<?xml version="1.0" encoding="utf-8" standalone="no"?>
<!DOCTYPE svg PUBLIC "-//W3C//DTD SVG 1.1//EN"
  "http://www.w3.org/Graphics/SVG/1.1/DTD/svg11.dtd">
<svg xmlns:xlink="http://www.w3.org/1999/xlink" width="567.881875pt" height="357.499719pt" viewBox="0 0 567.881875 357.499719" xmlns="http://www.w3.org/2000/svg" version="1.1">
 <metadata>
  <rdf:RDF xmlns:dc="http://purl.org/dc/elements/1.1/" xmlns:cc="http://creativecommons.org/ns#" xmlns:rdf="http://www.w3.org/1999/02/22-rdf-syntax-ns#">
   <cc:Work>
    <dc:type rdf:resource="http://purl.org/dc/dcmitype/StillImage"/>
    <dc:date>2026-04-21T13:03:57.496417</dc:date>
    <dc:format>image/svg+xml</dc:format>
    <dc:creator>
     <cc:Agent>
      <dc:title>Matplotlib v3.10.8, https://matplotlib.org/</dc:title>
     </cc:Agent>
    </dc:creator>
   </cc:Work>
  </rdf:RDF>
 </metadata>
 <defs>
  <style type="text/css">*{stroke-linejoin: round; stroke-linecap: butt}</style>
 </defs>
 <g id="figure_1">
  <g id="patch_1">
   <path d="M 0 357.499719 
L 567.881875 357.499719 
L 567.881875 0 
L 0 0 
z
" style="fill: #ffffff"/>
  </g>
  <g id="axes_1">
   <g id="patch_2">
    <path d="M 43.721875 314.80925 
L 557.081875 314.80925 
L 557.081875 26.52125 
L 43.721875 26.52125 
z
" style="fill: #ffffff"/>
   </g>
   <g id="matplotlib.axis_1">
    <g id="xtick_1">
     <g id="line2d_1">
      <path d="M 106.06665 314.80925 
L 106.06665 26.52125 
" clip-path="url(#pc6c66dc555)" style="fill: none; stroke-dasharray: 0.8,1.32; stroke-dashoffset: 0; stroke: #d0d0d0; stroke-opacity: 0.7; stroke-width: 0.8"/>
     </g>
     <g id="line2d_2">
      <defs>
       <path id="m81ef6e8cee" d="M 0 0 
L 0 3.5 
" style="stroke: #000000; stroke-width: 0.8"/>
      </defs>
      <g>
       <use xlink:href="#m81ef6e8cee" x="106.06665" y="314.80925" style="stroke: #000000; stroke-width: 0.8"/>
      </g>
     </g>
     <g id="text_1">
      <!-- 20 -->
      <g transform="translate(100.56665 329.447375) scale(0.11 -0.11)">
       <defs>
        <path id="TimesNewRomanPSMT-32" d="M 2934 816 
L 2638 0 
L 138 0 
L 138 116 
Q 1241 1122 1691 1759 
Q 2141 2397 2141 2925 
Q 2141 3328 1894 3587 
Q 1647 3847 1303 3847 
Q 991 3847 742 3664 
Q 494 3481 375 3128 
L 259 3128 
Q 338 3706 661 4015 
Q 984 4325 1469 4325 
Q 1984 4325 2329 3994 
Q 2675 3663 2675 3213 
Q 2675 2891 2525 2569 
Q 2294 2063 1775 1497 
Q 997 647 803 472 
L 1909 472 
Q 2247 472 2383 497 
Q 2519 522 2628 598 
Q 2738 675 2819 816 
L 2934 816 
z
" transform="scale(0.015625)"/>
        <path id="TimesNewRomanPSMT-30" d="M 231 2094 
Q 231 2819 450 3342 
Q 669 3866 1031 4122 
Q 1313 4325 1613 4325 
Q 2100 4325 2488 3828 
Q 2972 3213 2972 2159 
Q 2972 1422 2759 906 
Q 2547 391 2217 158 
Q 1888 -75 1581 -75 
Q 975 -75 572 641 
Q 231 1244 231 2094 
z
M 844 2016 
Q 844 1141 1059 588 
Q 1238 122 1591 122 
Q 1759 122 1940 273 
Q 2122 425 2216 781 
Q 2359 1319 2359 2297 
Q 2359 3022 2209 3506 
Q 2097 3866 1919 4016 
Q 1791 4119 1609 4119 
Q 1397 4119 1231 3928 
Q 1006 3669 925 3112 
Q 844 2556 844 2016 
z
" transform="scale(0.015625)"/>
       </defs>
       <use xlink:href="#TimesNewRomanPSMT-32"/>
       <use xlink:href="#TimesNewRomanPSMT-30" transform="translate(50 0)"/>
      </g>
     </g>
    </g>
    <g id="xtick_2">
     <g id="line2d_3">
      <path d="M 171.692728 314.80925 
L 171.692728 26.52125 
" clip-path="url(#pc6c66dc555)" style="fill: none; stroke-dasharray: 0.8,1.32; stroke-dashoffset: 0; stroke: #d0d0d0; stroke-opacity: 0.7; stroke-width: 0.8"/>
     </g>
     <g id="line2d_4">
      <g>
       <use xlink:href="#m81ef6e8cee" x="171.692728" y="314.80925" style="stroke: #000000; stroke-width: 0.8"/>
      </g>
     </g>
     <g id="text_2">
      <!-- 40 -->
      <g transform="translate(166.192728 329.447375) scale(0.11 -0.11)">
       <defs>
        <path id="TimesNewRomanPSMT-34" d="M 2978 1563 
L 2978 1119 
L 2409 1119 
L 2409 0 
L 1894 0 
L 1894 1119 
L 100 1119 
L 100 1519 
L 2066 4325 
L 2409 4325 
L 2409 1563 
L 2978 1563 
z
M 1894 1563 
L 1894 3666 
L 406 1563 
L 1894 1563 
z
" transform="scale(0.015625)"/>
       </defs>
       <use xlink:href="#TimesNewRomanPSMT-34"/>
       <use xlink:href="#TimesNewRomanPSMT-30" transform="translate(50 0)"/>
      </g>
     </g>
    </g>
    <g id="xtick_3">
     <g id="line2d_5">
      <path d="M 237.318807 314.80925 
L 237.318807 26.52125 
" clip-path="url(#pc6c66dc555)" style="fill: none; stroke-dasharray: 0.8,1.32; stroke-dashoffset: 0; stroke: #d0d0d0; stroke-opacity: 0.7; stroke-width: 0.8"/>
     </g>
     <g id="line2d_6">
      <g>
       <use xlink:href="#m81ef6e8cee" x="237.318807" y="314.80925" style="stroke: #000000; stroke-width: 0.8"/>
      </g>
     </g>
     <g id="text_3">
      <!-- 60 -->
      <g transform="translate(231.818807 329.447375) scale(0.11 -0.11)">
       <defs>
        <path id="TimesNewRomanPSMT-36" d="M 2869 4325 
L 2869 4209 
Q 2456 4169 2195 4045 
Q 1934 3922 1679 3669 
Q 1425 3416 1258 3105 
Q 1091 2794 978 2366 
Q 1428 2675 1881 2675 
Q 2316 2675 2634 2325 
Q 2953 1975 2953 1425 
Q 2953 894 2631 456 
Q 2244 -75 1606 -75 
Q 1172 -75 869 213 
Q 275 772 275 1663 
Q 275 2231 503 2743 
Q 731 3256 1154 3653 
Q 1578 4050 1965 4187 
Q 2353 4325 2688 4325 
L 2869 4325 
z
M 925 2138 
Q 869 1716 869 1456 
Q 869 1156 980 804 
Q 1091 453 1309 247 
Q 1469 100 1697 100 
Q 1969 100 2183 356 
Q 2397 613 2397 1088 
Q 2397 1622 2184 2012 
Q 1972 2403 1581 2403 
Q 1463 2403 1327 2353 
Q 1191 2303 925 2138 
z
" transform="scale(0.015625)"/>
       </defs>
       <use xlink:href="#TimesNewRomanPSMT-36"/>
       <use xlink:href="#TimesNewRomanPSMT-30" transform="translate(50 0)"/>
      </g>
     </g>
    </g>
    <g id="xtick_4">
     <g id="line2d_7">
      <path d="M 302.944886 314.80925 
L 302.944886 26.52125 
" clip-path="url(#pc6c66dc555)" style="fill: none; stroke-dasharray: 0.8,1.32; stroke-dashoffset: 0; stroke: #d0d0d0; stroke-opacity: 0.7; stroke-width: 0.8"/>
     </g>
     <g id="line2d_8">
      <g>
       <use xlink:href="#m81ef6e8cee" x="302.944886" y="314.80925" style="stroke: #000000; stroke-width: 0.8"/>
      </g>
     </g>
     <g id="text_4">
      <!-- 80 -->
      <g transform="translate(297.444886 329.447375) scale(0.11 -0.11)">
       <defs>
        <path id="TimesNewRomanPSMT-38" d="M 1228 2134 
Q 725 2547 579 2797 
Q 434 3047 434 3316 
Q 434 3728 753 4026 
Q 1072 4325 1600 4325 
Q 2113 4325 2425 4047 
Q 2738 3769 2738 3413 
Q 2738 3175 2569 2928 
Q 2400 2681 1866 2347 
Q 2416 1922 2594 1678 
Q 2831 1359 2831 1006 
Q 2831 559 2490 242 
Q 2150 -75 1597 -75 
Q 994 -75 656 303 
Q 388 606 388 966 
Q 388 1247 577 1523 
Q 766 1800 1228 2134 
z
M 1719 2469 
Q 2094 2806 2194 3001 
Q 2294 3197 2294 3444 
Q 2294 3772 2109 3958 
Q 1925 4144 1606 4144 
Q 1288 4144 1088 3959 
Q 888 3775 888 3528 
Q 888 3366 970 3203 
Q 1053 3041 1206 2894 
L 1719 2469 
z
M 1375 2016 
Q 1116 1797 991 1539 
Q 866 1281 866 981 
Q 866 578 1086 336 
Q 1306 94 1647 94 
Q 1984 94 2187 284 
Q 2391 475 2391 747 
Q 2391 972 2272 1150 
Q 2050 1481 1375 2016 
z
" transform="scale(0.015625)"/>
       </defs>
       <use xlink:href="#TimesNewRomanPSMT-38"/>
       <use xlink:href="#TimesNewRomanPSMT-30" transform="translate(50 0)"/>
      </g>
     </g>
    </g>
    <g id="xtick_5">
     <g id="line2d_9">
      <path d="M 368.570964 314.80925 
L 368.570964 26.52125 
" clip-path="url(#pc6c66dc555)" style="fill: none; stroke-dasharray: 0.8,1.32; stroke-dashoffset: 0; stroke: #d0d0d0; stroke-opacity: 0.7; stroke-width: 0.8"/>
     </g>
     <g id="line2d_10">
      <g>
       <use xlink:href="#m81ef6e8cee" x="368.570964" y="314.80925" style="stroke: #000000; stroke-width: 0.8"/>
      </g>
     </g>
     <g id="text_5">
      <!-- 100 -->
      <g transform="translate(360.320964 329.447375) scale(0.11 -0.11)">
       <defs>
        <path id="TimesNewRomanPSMT-31" d="M 750 3822 
L 1781 4325 
L 1884 4325 
L 1884 747 
Q 1884 391 1914 303 
Q 1944 216 2037 169 
Q 2131 122 2419 116 
L 2419 0 
L 825 0 
L 825 116 
Q 1125 122 1212 167 
Q 1300 213 1334 289 
Q 1369 366 1369 747 
L 1369 3034 
Q 1369 3497 1338 3628 
Q 1316 3728 1258 3775 
Q 1200 3822 1119 3822 
Q 1003 3822 797 3725 
L 750 3822 
z
" transform="scale(0.015625)"/>
       </defs>
       <use xlink:href="#TimesNewRomanPSMT-31"/>
       <use xlink:href="#TimesNewRomanPSMT-30" transform="translate(50 0)"/>
       <use xlink:href="#TimesNewRomanPSMT-30" transform="translate(100 0)"/>
      </g>
     </g>
    </g>
    <g id="xtick_6">
     <g id="line2d_11">
      <path d="M 434.197043 314.80925 
L 434.197043 26.52125 
" clip-path="url(#pc6c66dc555)" style="fill: none; stroke-dasharray: 0.8,1.32; stroke-dashoffset: 0; stroke: #d0d0d0; stroke-opacity: 0.7; stroke-width: 0.8"/>
     </g>
     <g id="line2d_12">
      <g>
       <use xlink:href="#m81ef6e8cee" x="434.197043" y="314.80925" style="stroke: #000000; stroke-width: 0.8"/>
      </g>
     </g>
     <g id="text_6">
      <!-- 120 -->
      <g transform="translate(425.947043 329.447375) scale(0.11 -0.11)">
       <use xlink:href="#TimesNewRomanPSMT-31"/>
       <use xlink:href="#TimesNewRomanPSMT-32" transform="translate(50 0)"/>
       <use xlink:href="#TimesNewRomanPSMT-30" transform="translate(100 0)"/>
      </g>
     </g>
    </g>
    <g id="xtick_7">
     <g id="line2d_13">
      <path d="M 499.823121 314.80925 
L 499.823121 26.52125 
" clip-path="url(#pc6c66dc555)" style="fill: none; stroke-dasharray: 0.8,1.32; stroke-dashoffset: 0; stroke: #d0d0d0; stroke-opacity: 0.7; stroke-width: 0.8"/>
     </g>
     <g id="line2d_14">
      <g>
       <use xlink:href="#m81ef6e8cee" x="499.823121" y="314.80925" style="stroke: #000000; stroke-width: 0.8"/>
      </g>
     </g>
     <g id="text_7">
      <!-- 140 -->
      <g transform="translate(491.573121 329.447375) scale(0.11 -0.11)">
       <use xlink:href="#TimesNewRomanPSMT-31"/>
       <use xlink:href="#TimesNewRomanPSMT-34" transform="translate(50 0)"/>
       <use xlink:href="#TimesNewRomanPSMT-30" transform="translate(100 0)"/>
      </g>
     </g>
    </g>
    <g id="text_8">
     <!-- Epoch -->
     <g transform="translate(285.07375 344.132844) scale(0.12 -0.12)">
      <defs>
       <path id="TimesNewRomanPSMT-45" d="M 1338 4006 
L 1338 2331 
L 2269 2331 
Q 2631 2331 2753 2441 
Q 2916 2584 2934 2947 
L 3050 2947 
L 3050 1472 
L 2934 1472 
Q 2891 1781 2847 1869 
Q 2791 1978 2662 2040 
Q 2534 2103 2269 2103 
L 1338 2103 
L 1338 706 
Q 1338 425 1363 364 
Q 1388 303 1450 267 
Q 1513 231 1688 231 
L 2406 231 
Q 2766 231 2928 281 
Q 3091 331 3241 478 
Q 3434 672 3638 1063 
L 3763 1063 
L 3397 0 
L 131 0 
L 131 116 
L 281 116 
Q 431 116 566 188 
Q 666 238 702 338 
Q 738 438 738 747 
L 738 3500 
Q 738 3903 656 3997 
Q 544 4122 281 4122 
L 131 4122 
L 131 4238 
L 3397 4238 
L 3444 3309 
L 3322 3309 
Q 3256 3644 3176 3769 
Q 3097 3894 2941 3959 
Q 2816 4006 2500 4006 
L 1338 4006 
z
" transform="scale(0.015625)"/>
       <path id="TimesNewRomanPSMT-70" d="M -6 2578 
L 875 2934 
L 994 2934 
L 994 2266 
Q 1216 2644 1439 2795 
Q 1663 2947 1909 2947 
Q 2341 2947 2628 2609 
Q 2981 2197 2981 1534 
Q 2981 794 2556 309 
Q 2206 -88 1675 -88 
Q 1444 -88 1275 -22 
Q 1150 25 994 166 
L 994 -706 
Q 994 -1000 1030 -1079 
Q 1066 -1159 1155 -1206 
Q 1244 -1253 1478 -1253 
L 1478 -1369 
L -22 -1369 
L -22 -1253 
L 56 -1253 
Q 228 -1256 350 -1188 
Q 409 -1153 442 -1076 
Q 475 -1000 475 -688 
L 475 2019 
Q 475 2297 450 2372 
Q 425 2447 370 2484 
Q 316 2522 222 2522 
Q 147 2522 31 2478 
L -6 2578 
z
M 994 2081 
L 994 1013 
Q 994 666 1022 556 
Q 1066 375 1236 237 
Q 1406 100 1666 100 
Q 1978 100 2172 344 
Q 2425 663 2425 1241 
Q 2425 1897 2138 2250 
Q 1938 2494 1663 2494 
Q 1513 2494 1366 2419 
Q 1253 2363 994 2081 
z
" transform="scale(0.015625)"/>
       <path id="TimesNewRomanPSMT-6f" d="M 1600 2947 
Q 2250 2947 2644 2453 
Q 2978 2031 2978 1484 
Q 2978 1100 2793 706 
Q 2609 313 2286 112 
Q 1963 -88 1566 -88 
Q 919 -88 538 428 
Q 216 863 216 1403 
Q 216 1797 411 2186 
Q 606 2575 925 2761 
Q 1244 2947 1600 2947 
z
M 1503 2744 
Q 1338 2744 1170 2645 
Q 1003 2547 900 2300 
Q 797 2053 797 1666 
Q 797 1041 1045 587 
Q 1294 134 1700 134 
Q 2003 134 2200 384 
Q 2397 634 2397 1244 
Q 2397 2006 2069 2444 
Q 1847 2744 1503 2744 
z
" transform="scale(0.015625)"/>
       <path id="TimesNewRomanPSMT-63" d="M 2631 1088 
Q 2516 522 2178 217 
Q 1841 -88 1431 -88 
Q 944 -88 581 321 
Q 219 731 219 1428 
Q 219 2103 620 2525 
Q 1022 2947 1584 2947 
Q 2006 2947 2278 2723 
Q 2550 2500 2550 2259 
Q 2550 2141 2473 2067 
Q 2397 1994 2259 1994 
Q 2075 1994 1981 2113 
Q 1928 2178 1911 2362 
Q 1894 2547 1784 2644 
Q 1675 2738 1481 2738 
Q 1169 2738 978 2506 
Q 725 2200 725 1697 
Q 725 1184 976 792 
Q 1228 400 1656 400 
Q 1963 400 2206 609 
Q 2378 753 2541 1131 
L 2631 1088 
z
" transform="scale(0.015625)"/>
       <path id="TimesNewRomanPSMT-68" d="M 1041 4444 
L 1041 2350 
Q 1388 2731 1591 2839 
Q 1794 2947 1997 2947 
Q 2241 2947 2416 2812 
Q 2591 2678 2675 2391 
Q 2734 2191 2734 1659 
L 2734 647 
Q 2734 375 2778 275 
Q 2809 200 2884 156 
Q 2959 113 3159 113 
L 3159 0 
L 1753 0 
L 1753 113 
L 1819 113 
Q 2019 113 2097 173 
Q 2175 234 2206 353 
Q 2216 403 2216 647 
L 2216 1659 
Q 2216 2128 2167 2275 
Q 2119 2422 2012 2495 
Q 1906 2569 1756 2569 
Q 1603 2569 1437 2487 
Q 1272 2406 1041 2159 
L 1041 647 
Q 1041 353 1073 281 
Q 1106 209 1195 161 
Q 1284 113 1503 113 
L 1503 0 
L 84 0 
L 84 113 
Q 275 113 384 172 
Q 447 203 484 290 
Q 522 378 522 647 
L 522 3238 
Q 522 3728 498 3840 
Q 475 3953 426 3993 
Q 378 4034 297 4034 
Q 231 4034 84 3984 
L 41 4094 
L 897 4444 
L 1041 4444 
z
" transform="scale(0.015625)"/>
      </defs>
      <use xlink:href="#TimesNewRomanPSMT-45"/>
      <use xlink:href="#TimesNewRomanPSMT-70" transform="translate(61.083984 0)"/>
      <use xlink:href="#TimesNewRomanPSMT-6f" transform="translate(111.083984 0)"/>
      <use xlink:href="#TimesNewRomanPSMT-63" transform="translate(161.083984 0)"/>
      <use xlink:href="#TimesNewRomanPSMT-68" transform="translate(205.46875 0)"/>
     </g>
    </g>
   </g>
   <g id="matplotlib.axis_2">
    <g id="ytick_1">
     <g id="line2d_15">
      <path d="M 43.721875 301.70525 
L 557.081875 301.70525 
" clip-path="url(#pc6c66dc555)" style="fill: none; stroke-dasharray: 0.8,1.32; stroke-dashoffset: 0; stroke: #d0d0d0; stroke-opacity: 0.7; stroke-width: 0.8"/>
     </g>
     <g id="line2d_16">
      <defs>
       <path id="m80925b97b9" d="M 0 0 
L -3.5 0 
" style="stroke: #000000; stroke-width: 0.8"/>
      </defs>
      <g>
       <use xlink:href="#m80925b97b9" x="43.721875" y="301.70525" style="stroke: #000000; stroke-width: 0.8"/>
      </g>
     </g>
     <g id="text_9">
      <!-- 0 -->
      <g transform="translate(31.221875 305.524313) scale(0.11 -0.11)">
       <use xlink:href="#TimesNewRomanPSMT-30"/>
      </g>
     </g>
    </g>
    <g id="ytick_2">
     <g id="line2d_17">
      <path d="M 43.721875 238.098231 
L 557.081875 238.098231 
" clip-path="url(#pc6c66dc555)" style="fill: none; stroke-dasharray: 0.8,1.32; stroke-dashoffset: 0; stroke: #d0d0d0; stroke-opacity: 0.7; stroke-width: 0.8"/>
     </g>
     <g id="line2d_18">
      <g>
       <use xlink:href="#m80925b97b9" x="43.721875" y="238.098231" style="stroke: #000000; stroke-width: 0.8"/>
      </g>
     </g>
     <g id="text_10">
      <!-- 10 -->
      <g transform="translate(25.721875 241.917294) scale(0.11 -0.11)">
       <use xlink:href="#TimesNewRomanPSMT-31"/>
       <use xlink:href="#TimesNewRomanPSMT-30" transform="translate(50 0)"/>
      </g>
     </g>
    </g>
    <g id="ytick_3">
     <g id="line2d_19">
      <path d="M 43.721875 174.491212 
L 557.081875 174.491212 
" clip-path="url(#pc6c66dc555)" style="fill: none; stroke-dasharray: 0.8,1.32; stroke-dashoffset: 0; stroke: #d0d0d0; stroke-opacity: 0.7; stroke-width: 0.8"/>
     </g>
     <g id="line2d_20">
      <g>
       <use xlink:href="#m80925b97b9" x="43.721875" y="174.491212" style="stroke: #000000; stroke-width: 0.8"/>
      </g>
     </g>
     <g id="text_11">
      <!-- 20 -->
      <g transform="translate(25.721875 178.310275) scale(0.11 -0.11)">
       <use xlink:href="#TimesNewRomanPSMT-32"/>
       <use xlink:href="#TimesNewRomanPSMT-30" transform="translate(50 0)"/>
      </g>
     </g>
    </g>
    <g id="ytick_4">
     <g id="line2d_21">
      <path d="M 43.721875 110.884193 
L 557.081875 110.884193 
" clip-path="url(#pc6c66dc555)" style="fill: none; stroke-dasharray: 0.8,1.32; stroke-dashoffset: 0; stroke: #d0d0d0; stroke-opacity: 0.7; stroke-width: 0.8"/>
     </g>
     <g id="line2d_22">
      <g>
       <use xlink:href="#m80925b97b9" x="43.721875" y="110.884193" style="stroke: #000000; stroke-width: 0.8"/>
      </g>
     </g>
     <g id="text_12">
      <!-- 30 -->
      <g transform="translate(25.721875 114.703256) scale(0.11 -0.11)">
       <defs>
        <path id="TimesNewRomanPSMT-33" d="M 325 3431 
Q 506 3859 782 4092 
Q 1059 4325 1472 4325 
Q 1981 4325 2253 3994 
Q 2459 3747 2459 3466 
Q 2459 3003 1878 2509 
Q 2269 2356 2469 2072 
Q 2669 1788 2669 1403 
Q 2669 853 2319 450 
Q 1863 -75 997 -75 
Q 569 -75 414 31 
Q 259 138 259 259 
Q 259 350 332 419 
Q 406 488 509 488 
Q 588 488 669 463 
Q 722 447 909 348 
Q 1097 250 1169 231 
Q 1284 197 1416 197 
Q 1734 197 1970 444 
Q 2206 691 2206 1028 
Q 2206 1275 2097 1509 
Q 2016 1684 1919 1775 
Q 1784 1900 1550 2001 
Q 1316 2103 1072 2103 
L 972 2103 
L 972 2197 
Q 1219 2228 1467 2375 
Q 1716 2522 1828 2728 
Q 1941 2934 1941 3181 
Q 1941 3503 1739 3701 
Q 1538 3900 1238 3900 
Q 753 3900 428 3381 
L 325 3431 
z
" transform="scale(0.015625)"/>
       </defs>
       <use xlink:href="#TimesNewRomanPSMT-33"/>
       <use xlink:href="#TimesNewRomanPSMT-30" transform="translate(50 0)"/>
      </g>
     </g>
    </g>
    <g id="ytick_5">
     <g id="line2d_23">
      <path d="M 43.721875 47.277174 
L 557.081875 47.277174 
" clip-path="url(#pc6c66dc555)" style="fill: none; stroke-dasharray: 0.8,1.32; stroke-dashoffset: 0; stroke: #d0d0d0; stroke-opacity: 0.7; stroke-width: 0.8"/>
     </g>
     <g id="line2d_24">
      <g>
       <use xlink:href="#m80925b97b9" x="43.721875" y="47.277174" style="stroke: #000000; stroke-width: 0.8"/>
      </g>
     </g>
     <g id="text_13">
      <!-- 40 -->
      <g transform="translate(25.721875 51.096237) scale(0.11 -0.11)">
       <use xlink:href="#TimesNewRomanPSMT-34"/>
       <use xlink:href="#TimesNewRomanPSMT-30" transform="translate(50 0)"/>
      </g>
     </g>
    </g>
    <g id="text_14">
     <!-- mAP@0.5:0.95 (%) -->
     <g transform="translate(19.1325 218.68775) rotate(-90) scale(0.12 -0.12)">
      <defs>
       <path id="TimesNewRomanPSMT-6d" d="M 1050 2338 
Q 1363 2650 1419 2697 
Q 1559 2816 1721 2881 
Q 1884 2947 2044 2947 
Q 2313 2947 2506 2790 
Q 2700 2634 2766 2338 
Q 3088 2713 3309 2830 
Q 3531 2947 3766 2947 
Q 3994 2947 4170 2830 
Q 4347 2713 4450 2447 
Q 4519 2266 4519 1878 
L 4519 647 
Q 4519 378 4559 278 
Q 4591 209 4675 161 
Q 4759 113 4950 113 
L 4950 0 
L 3538 0 
L 3538 113 
L 3597 113 
Q 3781 113 3884 184 
Q 3956 234 3988 344 
Q 4000 397 4000 647 
L 4000 1878 
Q 4000 2228 3916 2372 
Q 3794 2572 3525 2572 
Q 3359 2572 3192 2489 
Q 3025 2406 2788 2181 
L 2781 2147 
L 2788 2013 
L 2788 647 
Q 2788 353 2820 281 
Q 2853 209 2943 161 
Q 3034 113 3253 113 
L 3253 0 
L 1806 0 
L 1806 113 
Q 2044 113 2133 169 
Q 2222 225 2256 338 
Q 2272 391 2272 647 
L 2272 1878 
Q 2272 2228 2169 2381 
Q 2031 2581 1784 2581 
Q 1616 2581 1450 2491 
Q 1191 2353 1050 2181 
L 1050 647 
Q 1050 366 1089 281 
Q 1128 197 1204 155 
Q 1281 113 1516 113 
L 1516 0 
L 100 0 
L 100 113 
Q 297 113 375 155 
Q 453 197 493 289 
Q 534 381 534 647 
L 534 1741 
Q 534 2213 506 2350 
Q 484 2453 437 2492 
Q 391 2531 309 2531 
Q 222 2531 100 2484 
L 53 2597 
L 916 2947 
L 1050 2947 
L 1050 2338 
z
" transform="scale(0.015625)"/>
       <path id="TimesNewRomanPSMT-41" d="M 2928 1419 
L 1288 1419 
L 1000 750 
Q 894 503 894 381 
Q 894 284 986 211 
Q 1078 138 1384 116 
L 1384 0 
L 50 0 
L 50 116 
Q 316 163 394 238 
Q 553 388 747 847 
L 2238 4334 
L 2347 4334 
L 3822 809 
Q 4000 384 4145 257 
Q 4291 131 4550 116 
L 4550 0 
L 2878 0 
L 2878 116 
Q 3131 128 3220 200 
Q 3309 272 3309 375 
Q 3309 513 3184 809 
L 2928 1419 
z
M 2841 1650 
L 2122 3363 
L 1384 1650 
L 2841 1650 
z
" transform="scale(0.015625)"/>
       <path id="TimesNewRomanPSMT-50" d="M 1313 1984 
L 1313 750 
Q 1313 350 1400 253 
Q 1519 116 1759 116 
L 1922 116 
L 1922 0 
L 106 0 
L 106 116 
L 266 116 
Q 534 116 650 291 
Q 713 388 713 750 
L 713 3488 
Q 713 3888 628 3984 
Q 506 4122 266 4122 
L 106 4122 
L 106 4238 
L 1659 4238 
Q 2228 4238 2556 4120 
Q 2884 4003 3109 3725 
Q 3334 3447 3334 3066 
Q 3334 2547 2992 2222 
Q 2650 1897 2025 1897 
Q 1872 1897 1694 1919 
Q 1516 1941 1313 1984 
z
M 1313 2163 
Q 1478 2131 1606 2115 
Q 1734 2100 1825 2100 
Q 2150 2100 2386 2351 
Q 2622 2603 2622 3003 
Q 2622 3278 2509 3514 
Q 2397 3750 2190 3867 
Q 1984 3984 1722 3984 
Q 1563 3984 1313 3925 
L 1313 2163 
z
" transform="scale(0.015625)"/>
       <path id="TimesNewRomanPSMT-40" d="M 4400 2994 
L 4034 1747 
Q 3831 1047 3787 859 
Q 3744 672 3744 559 
Q 3744 459 3811 390 
Q 3878 322 3978 322 
Q 4206 322 4526 550 
Q 4847 778 5075 1290 
Q 5303 1803 5303 2359 
Q 5303 2894 5045 3347 
Q 4788 3800 4317 4042 
Q 3847 4284 3278 4284 
Q 2556 4284 1937 3901 
Q 1319 3519 958 2800 
Q 597 2081 597 1306 
Q 597 588 914 0 
Q 1231 -588 1806 -889 
Q 2381 -1191 3044 -1191 
Q 3866 -1191 4530 -750 
Q 5194 -309 5556 538 
L 5738 538 
Q 5456 -319 4715 -850 
Q 3975 -1381 3028 -1381 
Q 2284 -1381 1646 -1029 
Q 1009 -678 656 -32 
Q 303 613 303 1388 
Q 303 2213 690 2927 
Q 1078 3641 1776 4042 
Q 2475 4444 3259 4444 
Q 3906 4444 4426 4176 
Q 4947 3909 5219 3395 
Q 5491 2881 5491 2303 
Q 5491 1731 5236 1170 
Q 4981 609 4587 353 
Q 4194 97 3766 97 
Q 3528 97 3408 209 
Q 3288 322 3288 525 
Q 3288 700 3344 984 
Q 2881 425 2603 259 
Q 2325 94 2113 94 
Q 1891 94 1719 292 
Q 1547 491 1547 822 
Q 1547 1275 1842 1837 
Q 2138 2400 2625 2753 
Q 2984 3013 3269 3013 
Q 3478 3013 3617 2905 
Q 3756 2797 3806 2581 
L 3909 2925 
L 4400 2994 
z
M 3303 2866 
Q 3069 2866 2828 2619 
Q 2475 2256 2225 1641 
Q 2041 1191 2041 916 
Q 2041 719 2152 595 
Q 2263 472 2400 472 
Q 2581 472 2781 609 
Q 2981 747 3200 1033 
Q 3419 1319 3519 1606 
Q 3694 2103 3694 2416 
Q 3694 2622 3580 2744 
Q 3466 2866 3303 2866 
z
" transform="scale(0.015625)"/>
       <path id="TimesNewRomanPSMT-2e" d="M 800 606 
Q 947 606 1047 504 
Q 1147 403 1147 259 
Q 1147 116 1045 14 
Q 944 -88 800 -88 
Q 656 -88 554 14 
Q 453 116 453 259 
Q 453 406 554 506 
Q 656 606 800 606 
z
" transform="scale(0.015625)"/>
       <path id="TimesNewRomanPSMT-35" d="M 2778 4238 
L 2534 3706 
L 1259 3706 
L 981 3138 
Q 1809 3016 2294 2522 
Q 2709 2097 2709 1522 
Q 2709 1188 2573 903 
Q 2438 619 2231 419 
Q 2025 219 1772 97 
Q 1413 -75 1034 -75 
Q 653 -75 479 54 
Q 306 184 306 341 
Q 306 428 378 495 
Q 450 563 559 563 
Q 641 563 702 538 
Q 763 513 909 409 
Q 1144 247 1384 247 
Q 1750 247 2026 523 
Q 2303 800 2303 1197 
Q 2303 1581 2056 1914 
Q 1809 2247 1375 2428 
Q 1034 2569 447 2591 
L 1259 4238 
L 2778 4238 
z
" transform="scale(0.015625)"/>
       <path id="TimesNewRomanPSMT-3a" d="M 903 2950 
Q 1047 2950 1148 2848 
Q 1250 2747 1250 2603 
Q 1250 2459 1148 2357 
Q 1047 2256 903 2256 
Q 759 2256 657 2357 
Q 556 2459 556 2603 
Q 556 2747 657 2848 
Q 759 2950 903 2950 
z
M 897 609 
Q 1044 609 1145 506 
Q 1247 403 1247 259 
Q 1247 116 1144 14 
Q 1041 -88 897 -88 
Q 753 -88 651 14 
Q 550 116 550 259 
Q 550 403 651 506 
Q 753 609 897 609 
z
" transform="scale(0.015625)"/>
       <path id="TimesNewRomanPSMT-39" d="M 338 -88 
L 338 28 
Q 744 34 1094 217 
Q 1444 400 1770 856 
Q 2097 1313 2225 1859 
Q 1734 1544 1338 1544 
Q 891 1544 572 1889 
Q 253 2234 253 2806 
Q 253 3363 572 3797 
Q 956 4325 1575 4325 
Q 2097 4325 2469 3894 
Q 2925 3359 2925 2575 
Q 2925 1869 2578 1258 
Q 2231 647 1613 244 
Q 1109 -88 516 -88 
L 338 -88 
z
M 2275 2091 
Q 2331 2497 2331 2741 
Q 2331 3044 2228 3395 
Q 2125 3747 1936 3934 
Q 1747 4122 1506 4122 
Q 1228 4122 1018 3872 
Q 809 3622 809 3128 
Q 809 2469 1088 2097 
Q 1291 1828 1588 1828 
Q 1731 1828 1928 1897 
Q 2125 1966 2275 2091 
z
" transform="scale(0.015625)"/>
       <path id="TimesNewRomanPSMT-20" transform="scale(0.015625)"/>
       <path id="TimesNewRomanPSMT-28" d="M 1988 -1253 
L 1988 -1369 
Q 1516 -1131 1200 -813 
Q 750 -359 506 256 
Q 263 872 263 1534 
Q 263 2503 741 3301 
Q 1219 4100 1988 4444 
L 1988 4313 
Q 1603 4100 1356 3731 
Q 1109 3363 987 2797 
Q 866 2231 866 1616 
Q 866 947 969 400 
Q 1050 -31 1165 -292 
Q 1281 -553 1476 -793 
Q 1672 -1034 1988 -1253 
z
" transform="scale(0.015625)"/>
       <path id="TimesNewRomanPSMT-25" d="M 4350 4334 
L 1263 -175 
L 984 -175 
L 4072 4334 
L 4350 4334 
z
M 1138 4334 
Q 1559 4334 1792 3984 
Q 2025 3634 2025 3181 
Q 2025 2638 1762 2341 
Q 1500 2044 1131 2044 
Q 884 2044 678 2180 
Q 472 2316 348 2584 
Q 225 2853 225 3181 
Q 225 3509 350 3786 
Q 475 4063 692 4198 
Q 909 4334 1138 4334 
z
M 1128 4159 
Q 969 4159 845 3971 
Q 722 3784 722 3184 
Q 722 2750 791 2522 
Q 844 2350 956 2256 
Q 1022 2200 1119 2200 
Q 1269 2200 1375 2363 
Q 1531 2603 1531 3166 
Q 1531 3759 1378 4000 
Q 1278 4159 1128 4159 
z
M 4206 2103 
Q 4428 2103 4648 1962 
Q 4869 1822 4989 1553 
Q 5109 1284 5109 963 
Q 5109 409 4843 117 
Q 4578 -175 4216 -175 
Q 3988 -175 3773 -34 
Q 3559 106 3436 367 
Q 3313 628 3313 963 
Q 3313 1291 3436 1562 
Q 3559 1834 3773 1968 
Q 3988 2103 4206 2103 
z
M 4209 1938 
Q 4059 1938 3950 1769 
Q 3809 1550 3809 941 
Q 3809 381 3953 159 
Q 4059 0 4209 0 
Q 4353 0 4466 172 
Q 4616 400 4616 956 
Q 4616 1544 4466 1778 
Q 4363 1938 4209 1938 
z
" transform="scale(0.015625)"/>
       <path id="TimesNewRomanPSMT-29" d="M 144 4313 
L 144 4444 
Q 619 4209 934 3891 
Q 1381 3434 1625 2820 
Q 1869 2206 1869 1541 
Q 1869 572 1392 -226 
Q 916 -1025 144 -1369 
L 144 -1253 
Q 528 -1038 776 -670 
Q 1025 -303 1145 264 
Q 1266 831 1266 1447 
Q 1266 2113 1163 2663 
Q 1084 3094 967 3353 
Q 850 3613 656 3853 
Q 463 4094 144 4313 
z
" transform="scale(0.015625)"/>
      </defs>
      <use xlink:href="#TimesNewRomanPSMT-6d"/>
      <use xlink:href="#TimesNewRomanPSMT-41" transform="translate(77.783203 0)"/>
      <use xlink:href="#TimesNewRomanPSMT-50" transform="translate(150 0)"/>
      <use xlink:href="#TimesNewRomanPSMT-40" transform="translate(205.615234 0)"/>
      <use xlink:href="#TimesNewRomanPSMT-30" transform="translate(297.705078 0)"/>
      <use xlink:href="#TimesNewRomanPSMT-2e" transform="translate(347.705078 0)"/>
      <use xlink:href="#TimesNewRomanPSMT-35" transform="translate(372.705078 0)"/>
      <use xlink:href="#TimesNewRomanPSMT-3a" transform="translate(422.705078 0)"/>
      <use xlink:href="#TimesNewRomanPSMT-30" transform="translate(450.488281 0)"/>
      <use xlink:href="#TimesNewRomanPSMT-2e" transform="translate(500.488281 0)"/>
      <use xlink:href="#TimesNewRomanPSMT-39" transform="translate(525.488281 0)"/>
      <use xlink:href="#TimesNewRomanPSMT-35" transform="translate(575.488281 0)"/>
      <use xlink:href="#TimesNewRomanPSMT-20" transform="translate(625.488281 0)"/>
      <use xlink:href="#TimesNewRomanPSMT-28" transform="translate(650.488281 0)"/>
      <use xlink:href="#TimesNewRomanPSMT-25" transform="translate(683.789062 0)"/>
      <use xlink:href="#TimesNewRomanPSMT-29" transform="translate(767.089844 0)"/>
     </g>
    </g>
   </g>
   <g id="line2d_25">
    <path d="M 43.721875 301.037376 
L 47.003179 299.822482 
L 50.284483 294.237786 
L 53.565787 290.421365 
L 56.847091 289.607195 
L 60.128395 284.041581 
L 63.409699 284.556798 
L 66.691003 282.470487 
L 69.972306 282.266945 
L 73.25361 278.107046 
L 76.534914 274.729513 
L 79.816218 268.330647 
L 83.097522 265.620988 
L 86.378826 265.054886 
L 89.66013 259.050383 
L 92.941434 257.549257 
L 96.222738 252.454335 
L 99.504042 249.184934 
L 102.785346 248.587029 
L 106.06665 240.127295 
L 109.347954 237.404915 
L 112.629258 241.024154 
L 115.910561 234.180039 
L 119.191865 233.925611 
L 122.473169 234.682534 
L 125.754473 226.935199 
L 129.035777 225.643977 
L 132.317081 225.904766 
L 135.598385 225.885683 
L 138.879689 218.818944 
L 142.160993 217.082472 
L 145.442297 213.819432 
L 148.723601 211.497776 
L 152.004905 202.599154 
L 155.286209 201.02806 
L 158.567513 200.65914 
L 161.848817 196.836358 
L 165.13012 196.009467 
L 168.411424 194.298438 
L 171.692728 195.074444 
L 178.255336 187.358912 
L 181.53664 186.398446 
L 184.817944 181.551591 
L 188.099248 179.751513 
L 191.380552 179.395313 
L 194.661856 174.071406 
L 197.94316 175.458039 
L 201.224464 172.309491 
L 204.505768 169.428093 
L 207.787072 168.073264 
L 211.068375 164.263204 
L 214.349679 162.762078 
L 220.912287 156.280523 
L 224.193591 156.515869 
L 227.474895 155.98793 
L 230.756199 152.546791 
L 234.037503 149.888017 
L 237.318807 146.898487 
L 240.600111 145.276508 
L 243.881415 147.534558 
L 247.162719 145.861693 
L 250.444023 145.060245 
L 253.725327 143.438266 
L 257.006631 141.30743 
L 260.287934 140.30244 
L 263.569238 138.375147 
L 266.850542 137.929898 
L 270.131846 137.153892 
L 273.41315 136.715004 
L 276.694454 134.997614 
L 283.257062 132.943107 
L 286.538366 130.646894 
L 293.100974 127.269361 
L 296.382278 127.752775 
L 299.663582 127.301165 
L 302.944886 126.270731 
L 306.226189 125.405676 
L 309.507493 124.127175 
L 312.788797 123.681925 
L 316.070101 122.136275 
L 319.351405 121.417516 
L 322.632709 121.36663 
L 325.914013 120.030883 
L 329.195317 119.534748 
L 335.757925 116.907778 
L 339.039229 115.953673 
L 342.320533 116.125412 
L 345.601837 114.700614 
L 348.883141 113.956412 
L 355.445748 113.224932 
L 362.008356 112.537976 
L 365.28966 112.03548 
L 368.570964 111.704724 
L 371.852268 111.144982 
L 375.133572 110.826947 
L 381.69618 110.477108 
L 384.977484 110.235402 
L 388.258788 109.815595 
L 391.540092 109.255854 
L 398.1027 108.778801 
L 401.384003 108.142731 
L 404.665307 107.627514 
L 407.946611 106.87059 
L 411.227915 106.972362 
L 414.509219 106.298127 
L 421.071827 106.183635 
L 424.353131 105.426711 
L 434.197043 105.191365 
L 437.478347 104.809723 
L 440.759651 104.96238 
L 444.040955 104.32631 
L 447.322259 104.05916 
L 450.603562 103.60755 
L 453.884866 102.952398 
L 457.16617 102.799741 
L 460.447474 102.15731 
L 463.728778 101.928325 
L 473.57269 100.554413 
L 476.853994 99.848376 
L 483.416602 99.441291 
L 493.260514 98.277282 
L 496.541817 98.061018 
L 506.385729 96.877928 
L 509.667033 96.280022 
L 512.948337 95.427688 
L 516.229641 95.007881 
L 519.510945 94.206433 
L 522.792249 93.284131 
L 526.073553 92.972457 
L 529.354857 93.023342 
L 532.636161 92.800718 
L 532.636161 92.800718 
" clip-path="url(#pc6c66dc555)" style="fill: none; stroke: #2a9d8f; stroke-width: 2; stroke-linecap: square"/>
   </g>
   <g id="line2d_26">
    <path d="M 43.721875 301.590757 
L 47.003179 300.483995 
L 50.284483 290.395922 
L 53.565787 282.018878 
L 56.847091 267.929923 
L 60.128395 246.672457 
L 63.409699 246.201765 
L 66.691003 231.629397 
L 69.972306 213.227887 
L 73.25361 218.354612 
L 76.534914 209.837633 
L 79.816218 200.690943 
L 83.097522 197.866792 
L 86.378826 189.082662 
L 89.66013 176.316734 
L 92.941434 175.311743 
L 96.222738 169.205469 
L 99.504042 171.730668 
L 102.785346 157.813452 
L 106.06665 150.803958 
L 109.347954 143.005738 
L 112.629258 146.936652 
L 115.910561 138.40059 
L 119.191865 134.921286 
L 122.473169 122.206243 
L 125.754473 123.00133 
L 129.035777 121.258498 
L 132.317081 116.10633 
L 135.598385 111.717445 
L 138.879689 104.816084 
L 142.160993 103.117776 
L 145.442297 97.08147 
L 148.723601 93.990169 
L 152.004905 93.843873 
L 155.286209 93.067867 
L 158.567513 91.897498 
L 161.848817 87.349596 
L 165.13012 83.654028 
L 168.411424 84.150163 
L 171.692728 79.392358 
L 174.974032 79.099766 
L 178.255336 71.575056 
L 181.53664 71.269742 
L 184.817944 71.517809 
L 188.099248 68.53464 
L 191.380552 64.959926 
L 194.661856 66.295673 
L 197.94316 64.610087 
L 201.224464 61.270719 
L 204.505768 59.737789 
L 207.787072 60.386581 
L 211.068375 60.208481 
L 214.349679 59.572411 
L 217.630983 57.855022 
L 220.912287 59.394311 
L 224.193591 57.956793 
L 227.474895 56.780063 
L 230.756199 55.819597 
L 234.037503 55.889565 
L 237.318807 54.273946 
L 240.600111 53.485219 
L 243.881415 53.561548 
L 247.162719 51.95229 
L 250.444023 51.481598 
L 253.725327 51.417991 
L 257.006631 50.368475 
L 260.287934 50.018637 
L 263.569238 50.13313 
L 270.131846 48.644725 
L 273.41315 48.021376 
L 276.694454 47.544324 
L 279.975758 46.539333 
L 283.257062 46.164052 
L 286.538366 46.176773 
L 289.81967 45.890541 
L 293.100974 45.3308 
L 296.382278 45.197225 
L 299.663582 44.402137 
L 302.944886 44.173152 
L 306.226189 44.459383 
L 309.507493 44.357612 
L 312.788797 44.039577 
L 316.070101 43.505278 
L 319.351405 43.365343 
L 322.632709 42.684748 
L 325.914013 43.365343 
L 329.195317 43.861477 
L 332.476621 43.187243 
L 335.757925 43.314457 
L 339.039229 43.607049 
L 342.320533 43.199964 
L 345.601837 43.206325 
L 348.883141 42.646583 
L 355.445748 42.881929 
L 358.727052 42.754715 
L 362.008356 42.271302 
L 365.28966 42.118645 
L 368.570964 41.80061 
L 375.133572 41.88966 
L 378.414876 41.756085 
L 381.69618 41.266311 
L 384.977484 40.503027 
L 388.258788 40.452141 
L 391.540092 40.865587 
L 394.821396 41.005522 
L 401.384003 40.738373 
L 404.665307 40.992801 
L 407.946611 40.865587 
L 411.227915 40.43942 
L 414.509219 40.248599 
L 417.790523 40.216795 
L 424.353131 39.949646 
L 427.634435 39.62525 
L 430.915739 40.184992 
L 437.478347 40.407616 
L 440.759651 40.286763 
L 444.040955 40.299484 
L 447.322259 40.814701 
L 450.603562 40.515748 
L 453.884866 41.145458 
L 460.447474 40.967358 
L 463.728778 40.541191 
L 467.010082 40.80198 
L 470.291386 40.751094 
L 473.57269 40.522109 
L 476.853994 40.579355 
L 480.135298 40.89103 
L 483.416602 40.719291 
L 489.97921 40.782898 
L 493.260514 40.363091 
L 496.541817 40.363091 
L 499.823121 40.490305 
L 503.104425 40.808341 
L 506.385729 40.687487 
L 509.667033 40.305845 
L 512.948337 40.146828 
L 516.229641 40.363091 
L 526.073553 40.477584 
L 529.354857 40.293124 
L 532.636161 40.369452 
L 532.636161 40.369452 
" clip-path="url(#pc6c66dc555)" style="fill: none; stroke: #386641; stroke-width: 2; stroke-linecap: square"/>
   </g>
   <g id="line2d_27">
    <path d="M 43.721875 301.539872 
L 47.003179 301.139148 
L 50.284483 295.471762 
L 53.565787 284.321452 
L 56.847091 268.934914 
L 60.128395 266.854964 
L 63.409699 253.045881 
L 66.691003 235.318604 
L 69.972306 234.701616 
L 73.25361 223.366846 
L 76.534914 217.769428 
L 79.816218 207.00076 
L 83.097522 202.739089 
L 86.378826 191.493368 
L 89.66013 189.496108 
L 92.941434 175.890567 
L 96.222738 175.966895 
L 99.504042 176.272209 
L 106.06665 151.128354 
L 109.347954 147.858953 
L 112.629258 138.305179 
L 115.910561 131.670967 
L 119.191865 133.890852 
L 122.473169 123.058577 
L 125.754473 126.671455 
L 129.035777 116.7424 
L 132.317081 111.348525 
L 135.598385 110.000056 
L 138.879689 103.588468 
L 142.160993 101.514879 
L 145.442297 98.817942 
L 148.723601 99.79749 
L 152.004905 94.511747 
L 155.286209 94.492665 
L 158.567513 91.420445 
L 161.848817 89.588563 
L 165.13012 88.259177 
L 168.411424 84.818037 
L 171.692728 82.413692 
L 174.974032 76.396468 
L 178.255336 76.491878 
L 181.53664 76.122957 
L 184.817944 74.195665 
L 188.099248 73.820383 
L 191.380552 67.408796 
L 194.661856 69.406056 
L 197.94316 67.873127 
L 201.224464 67.669585 
L 207.787072 64.641891 
L 211.068375 64.622808 
L 214.349679 61.728689 
L 217.630983 61.951314 
L 220.912287 59.750511 
L 224.193591 58.211221 
L 227.474895 57.708725 
L 230.756199 57.002688 
L 234.037503 56.958163 
L 237.318807 55.539726 
L 247.162719 50.788282 
L 250.444023 50.04408 
L 253.725327 49.821455 
L 257.006631 49.128139 
L 260.287934 49.083614 
L 263.569238 48.651086 
L 270.131846 48.714693 
L 273.41315 48.072262 
L 279.975758 48.078623 
L 283.257062 48.403019 
L 286.538366 48.320329 
L 289.81967 47.925966 
L 293.100974 48.167673 
L 296.382278 47.900523 
L 299.663582 47.87508 
L 302.944886 47.722424 
L 306.226189 47.824195 
L 309.507493 47.321699 
L 316.070101 46.9655 
L 319.351405 47.060911 
L 322.632709 47.334421 
L 329.195317 46.704711 
L 332.476621 46.761958 
L 335.757925 46.482087 
L 339.039229 45.795131 
L 342.320533 45.69972 
L 345.601837 45.324439 
L 348.883141 45.114536 
L 352.164445 45.133618 
L 355.445748 44.713812 
L 358.727052 44.79014 
L 362.008356 45.24811 
L 365.28966 44.764697 
L 368.570964 44.758336 
L 371.852268 44.510269 
L 375.133572 44.52299 
L 378.414876 44.688369 
L 381.69618 44.262202 
L 384.977484 44.122266 
L 388.258788 43.651574 
L 391.540092 43.518 
L 394.821396 43.269932 
L 398.1027 43.187243 
L 401.384003 43.257211 
L 407.946611 43.944167 
L 414.509219 43.689739 
L 417.790523 42.767437 
L 421.071827 43.098193 
L 430.915739 43.384425 
L 434.197043 43.199964 
L 437.478347 43.810592 
L 440.759651 43.568885 
L 444.040955 43.816953 
L 447.322259 43.708821 
L 450.603562 43.715181 
L 453.884866 43.918724 
L 457.16617 43.43531 
L 460.447474 43.142718 
L 467.010082 42.79924 
L 470.291386 43.269932 
L 473.57269 43.308096 
L 476.853994 43.861477 
L 480.135298 44.281284 
L 486.697906 44.841026 
L 489.97921 44.548433 
L 493.260514 44.682008 
L 496.541817 44.491187 
L 499.823121 44.16043 
L 503.104425 44.179513 
L 506.385729 43.893281 
L 509.667033 44.007774 
L 516.229641 43.575246 
L 519.510945 43.70246 
L 522.792249 43.486196 
L 526.073553 43.562524 
L 529.354857 44.122266 
L 532.636161 44.344891 
L 532.636161 44.344891 
" clip-path="url(#pc6c66dc555)" style="fill: none; stroke: #6a994e; stroke-width: 2; stroke-linecap: square"/>
   </g>
   <g id="line2d_28">
    <path d="M 43.721875 301.635282 
L 50.284483 301.679807 
L 53.565787 298.563063 
L 56.847091 292.564921 
L 60.128395 281.090215 
L 63.409699 273.164781 
L 66.691003 253.370276 
L 69.972306 241.71747 
L 73.25361 240.248148 
L 76.534914 226.280047 
L 79.816218 217.623132 
L 83.097522 211.319676 
L 86.378826 207.834011 
L 89.66013 205.448748 
L 92.941434 196.079434 
L 96.222738 189.343451 
L 99.504042 182.302154 
L 102.785346 174.338555 
L 106.06665 167.634376 
L 109.347954 157.953387 
L 112.629258 162.717553 
L 115.910561 158.296865 
L 119.191865 149.646311 
L 122.473169 141.714515 
L 125.754473 136.078933 
L 129.035777 132.116216 
L 132.317081 128.675076 
L 135.598385 122.950445 
L 138.879689 124.744163 
L 142.160993 118.154476 
L 145.442297 112.633386 
L 148.723601 110.915997 
L 152.004905 102.634363 
L 155.286209 101.673897 
L 158.567513 98.665285 
L 161.848817 99.97559 
L 165.13012 96.776156 
L 168.411424 93.347738 
L 171.692728 94.549911 
L 174.974032 90.46634 
L 178.255336 89.226003 
L 181.53664 87.057004 
L 184.817944 86.172866 
L 188.099248 84.296459 
L 191.380552 82.273756 
L 194.661856 78.164743 
L 197.94316 79.176094 
L 201.224464 78.603631 
L 204.505768 78.202907 
L 207.787072 79.182455 
L 211.068375 77.827626 
L 214.349679 76.212007 
L 217.630983 74.074811 
L 220.912287 72.872639 
L 224.193591 71.823123 
L 227.474895 69.113464 
L 230.756199 68.515558 
L 234.037503 67.275221 
L 237.318807 65.54511 
L 240.600111 65.341568 
L 243.881415 64.101231 
L 250.444023 62.91814 
L 257.006631 60.774584 
L 260.287934 60.125792 
L 263.569238 60.221203 
L 266.850542 59.044473 
L 270.131846 59.674182 
L 273.41315 58.230303 
L 276.694454 57.56879 
L 279.975758 57.619676 
L 283.257062 57.053573 
L 286.538366 56.264846 
L 289.81967 56.786424 
L 293.100974 55.806876 
L 296.382278 55.399791 
L 299.663582 55.552448 
L 302.944886 54.420243 
L 306.226189 54.089486 
L 309.507493 54.165815 
L 312.788797 54.12765 
L 316.070101 53.796894 
L 319.351405 53.243513 
L 322.632709 53.427973 
L 325.914013 53.364366 
L 329.195317 53.179906 
L 332.476621 53.243513 
L 339.039229 52.721935 
L 342.320533 52.696492 
L 345.601837 52.925478 
L 352.164445 52.2258 
L 355.445748 51.748748 
L 358.727052 51.672419 
L 368.570964 50.629264 
L 371.852268 49.948669 
L 384.977484 49.611552 
L 388.258788 49.497059 
L 391.540092 49.586109 
L 394.821396 48.854628 
L 398.1027 48.619282 
L 401.384003 48.860989 
L 404.665307 48.612922 
L 407.946611 48.746497 
L 411.227915 49.248992 
L 414.509219 49.121778 
L 417.790523 48.721054 
L 424.353131 48.460265 
L 427.634435 48.581118 
L 430.915739 48.383937 
L 434.197043 48.364854 
L 437.478347 48.606561 
L 440.759651 48.23764 
L 450.603562 48.517511 
L 453.884866 48.313969 
L 457.16617 48.396658 
L 460.447474 48.59384 
L 463.728778 48.523872 
L 467.010082 48.606561 
L 473.57269 49.287156 
L 476.853994 49.261713 
L 486.697906 49.630634 
L 489.97921 50.158572 
L 493.260514 49.929587 
L 496.541817 49.827816 
L 503.104425 50.253983 
L 506.385729 50.037719 
L 509.667033 50.457525 
L 512.948337 50.438443 
L 516.229641 50.578379 
L 519.510945 50.482968 
L 526.073553 50.540214 
L 529.354857 50.86461 
L 532.636161 51.029988 
L 532.636161 51.029988 
" clip-path="url(#pc6c66dc555)" style="fill: none; stroke: #a7c957; stroke-width: 2; stroke-linecap: square"/>
   </g>
   <g id="patch_3">
    <path d="M 43.721875 314.80925 
L 43.721875 26.52125 
" style="fill: none; stroke: #333333; stroke-linejoin: miter; stroke-linecap: square"/>
   </g>
   <g id="patch_4">
    <path d="M 557.081875 314.80925 
L 557.081875 26.52125 
" style="fill: none; stroke: #333333; stroke-linejoin: miter; stroke-linecap: square"/>
   </g>
   <g id="patch_5">
    <path d="M 43.721875 314.80925 
L 557.081875 314.80925 
" style="fill: none; stroke: #333333; stroke-linejoin: miter; stroke-linecap: square"/>
   </g>
   <g id="patch_6">
    <path d="M 43.721875 26.52125 
L 557.081875 26.52125 
" style="fill: none; stroke: #333333; stroke-linejoin: miter; stroke-linecap: square"/>
   </g>
   <g id="PathCollection_1">
    <defs>
     <path id="mdd12aee2eb" d="M 0 2.645751 
C 0.701661 2.645751 1.374679 2.366978 1.870829 1.870829 
C 2.366978 1.374679 2.645751 0.701661 2.645751 0 
C 2.645751 -0.701661 2.366978 -1.374679 1.870829 -1.870829 
C 1.374679 -2.366978 0.701661 -2.645751 0 -2.645751 
C -0.701661 -2.645751 -1.374679 -2.366978 -1.870829 -1.870829 
C -2.366978 -1.374679 -2.645751 -0.701661 -2.645751 0 
C -2.645751 0.701661 -2.366978 1.374679 -1.870829 1.870829 
C -1.374679 2.366978 -0.701661 2.645751 0 2.645751 
z
" style="stroke: #2a9d8f"/>
    </defs>
    <g clip-path="url(#pc6c66dc555)">
     <use xlink:href="#mdd12aee2eb" x="532.636161" y="92.800718" style="fill: #2a9d8f; stroke: #2a9d8f"/>
    </g>
   </g>
   <g id="PathCollection_2">
    <defs>
     <path id="m38d5ab8a66" d="M 0 2.645751 
C 0.701661 2.645751 1.374679 2.366978 1.870829 1.870829 
C 2.366978 1.374679 2.645751 0.701661 2.645751 0 
C 2.645751 -0.701661 2.366978 -1.374679 1.870829 -1.870829 
C 1.374679 -2.366978 0.701661 -2.645751 0 -2.645751 
C -0.701661 -2.645751 -1.374679 -2.366978 -1.870829 -1.870829 
C -2.366978 -1.374679 -2.645751 -0.701661 -2.645751 0 
C -2.645751 0.701661 -2.366978 1.374679 -1.870829 1.870829 
C -1.374679 2.366978 -0.701661 2.645751 0 2.645751 
z
" style="stroke: #386641"/>
    </defs>
    <g clip-path="url(#pc6c66dc555)">
     <use xlink:href="#m38d5ab8a66" x="427.634435" y="39.62525" style="fill: #386641; stroke: #386641"/>
    </g>
   </g>
   <g id="PathCollection_3">
    <defs>
     <path id="mb23cb0426a" d="M 0 2.645751 
C 0.701661 2.645751 1.374679 2.366978 1.870829 1.870829 
C 2.366978 1.374679 2.645751 0.701661 2.645751 0 
C 2.645751 -0.701661 2.366978 -1.374679 1.870829 -1.870829 
C 1.374679 -2.366978 0.701661 -2.645751 0 -2.645751 
C -0.701661 -2.645751 -1.374679 -2.366978 -1.870829 -1.870829 
C -2.366978 -1.374679 -2.645751 -0.701661 -2.645751 0 
C -2.645751 0.701661 -2.366978 1.374679 -1.870829 1.870829 
C -1.374679 2.366978 -0.701661 2.645751 0 2.645751 
z
" style="stroke: #6a994e"/>
    </defs>
    <g clip-path="url(#pc6c66dc555)">
     <use xlink:href="#mb23cb0426a" x="417.790523" y="42.767437" style="fill: #6a994e; stroke: #6a994e"/>
    </g>
   </g>
   <g id="PathCollection_4">
    <defs>
     <path id="m98878e6cc3" d="M 0 2.645751 
C 0.701661 2.645751 1.374679 2.366978 1.870829 1.870829 
C 2.366978 1.374679 2.645751 0.701661 2.645751 0 
C 2.645751 -0.701661 2.366978 -1.374679 1.870829 -1.870829 
C 1.374679 -2.366978 0.701661 -2.645751 0 -2.645751 
C -0.701661 -2.645751 -1.374679 -2.366978 -1.870829 -1.870829 
C -2.366978 -1.374679 -2.645751 -0.701661 -2.645751 0 
C -2.645751 0.701661 -2.366978 1.374679 -1.870829 1.870829 
C -1.374679 2.366978 -0.701661 2.645751 0 2.645751 
z
" style="stroke: #a7c957"/>
    </defs>
    <g clip-path="url(#pc6c66dc555)">
     <use xlink:href="#m98878e6cc3" x="440.759651" y="48.23764" style="fill: #a7c957; stroke: #a7c957"/>
    </g>
   </g>
   <g id="text_15">
    <!-- Ablation Training Curves -->
    <g transform="translate(228.837813 20.52125) scale(0.14 -0.14)">
     <defs>
      <path id="TimesNewRomanPSMT-62" d="M 984 2369 
Q 1400 2947 1881 2947 
Q 2322 2947 2650 2570 
Q 2978 2194 2978 1541 
Q 2978 778 2472 313 
Q 2038 -88 1503 -88 
Q 1253 -88 995 3 
Q 738 94 469 275 
L 469 3241 
Q 469 3728 445 3840 
Q 422 3953 372 3993 
Q 322 4034 247 4034 
Q 159 4034 28 3984 
L -16 4094 
L 844 4444 
L 984 4444 
L 984 2369 
z
M 984 2169 
L 984 456 
Q 1144 300 1314 220 
Q 1484 141 1663 141 
Q 1947 141 2192 453 
Q 2438 766 2438 1363 
Q 2438 1913 2192 2208 
Q 1947 2503 1634 2503 
Q 1469 2503 1303 2419 
Q 1178 2356 984 2169 
z
" transform="scale(0.015625)"/>
      <path id="TimesNewRomanPSMT-6c" d="M 1184 4444 
L 1184 647 
Q 1184 378 1223 290 
Q 1263 203 1344 158 
Q 1425 113 1647 113 
L 1647 0 
L 244 0 
L 244 113 
Q 441 113 512 153 
Q 584 194 625 287 
Q 666 381 666 647 
L 666 3247 
Q 666 3731 644 3842 
Q 622 3953 573 3993 
Q 525 4034 450 4034 
Q 369 4034 244 3984 
L 191 4094 
L 1044 4444 
L 1184 4444 
z
" transform="scale(0.015625)"/>
      <path id="TimesNewRomanPSMT-61" d="M 1822 413 
Q 1381 72 1269 19 
Q 1100 -59 909 -59 
Q 613 -59 420 144 
Q 228 347 228 678 
Q 228 888 322 1041 
Q 450 1253 767 1440 
Q 1084 1628 1822 1897 
L 1822 2009 
Q 1822 2438 1686 2597 
Q 1550 2756 1291 2756 
Q 1094 2756 978 2650 
Q 859 2544 859 2406 
L 866 2225 
Q 866 2081 792 2003 
Q 719 1925 600 1925 
Q 484 1925 411 2006 
Q 338 2088 338 2228 
Q 338 2497 613 2722 
Q 888 2947 1384 2947 
Q 1766 2947 2009 2819 
Q 2194 2722 2281 2516 
Q 2338 2381 2338 1966 
L 2338 994 
Q 2338 584 2353 492 
Q 2369 400 2405 369 
Q 2441 338 2488 338 
Q 2538 338 2575 359 
Q 2641 400 2828 588 
L 2828 413 
Q 2478 -56 2159 -56 
Q 2006 -56 1915 50 
Q 1825 156 1822 413 
z
M 1822 616 
L 1822 1706 
Q 1350 1519 1213 1441 
Q 966 1303 859 1153 
Q 753 1003 753 825 
Q 753 600 887 451 
Q 1022 303 1197 303 
Q 1434 303 1822 616 
z
" transform="scale(0.015625)"/>
      <path id="TimesNewRomanPSMT-74" d="M 1031 3803 
L 1031 2863 
L 1700 2863 
L 1700 2644 
L 1031 2644 
L 1031 788 
Q 1031 509 1111 412 
Q 1191 316 1316 316 
Q 1419 316 1516 380 
Q 1613 444 1666 569 
L 1788 569 
Q 1678 263 1478 108 
Q 1278 -47 1066 -47 
Q 922 -47 784 33 
Q 647 113 581 261 
Q 516 409 516 719 
L 516 2644 
L 63 2644 
L 63 2747 
Q 234 2816 414 2980 
Q 594 3144 734 3369 
Q 806 3488 934 3803 
L 1031 3803 
z
" transform="scale(0.015625)"/>
      <path id="TimesNewRomanPSMT-69" d="M 928 4444 
Q 1059 4444 1151 4351 
Q 1244 4259 1244 4128 
Q 1244 3997 1151 3903 
Q 1059 3809 928 3809 
Q 797 3809 703 3903 
Q 609 3997 609 4128 
Q 609 4259 701 4351 
Q 794 4444 928 4444 
z
M 1188 2947 
L 1188 647 
Q 1188 378 1227 289 
Q 1266 200 1342 156 
Q 1419 113 1622 113 
L 1622 0 
L 231 0 
L 231 113 
Q 441 113 512 153 
Q 584 194 626 287 
Q 669 381 669 647 
L 669 1750 
Q 669 2216 641 2353 
Q 619 2453 572 2492 
Q 525 2531 444 2531 
Q 356 2531 231 2484 
L 188 2597 
L 1050 2947 
L 1188 2947 
z
" transform="scale(0.015625)"/>
      <path id="TimesNewRomanPSMT-6e" d="M 1034 2341 
Q 1538 2947 1994 2947 
Q 2228 2947 2397 2830 
Q 2566 2713 2666 2444 
Q 2734 2256 2734 1869 
L 2734 647 
Q 2734 375 2778 278 
Q 2813 200 2889 156 
Q 2966 113 3172 113 
L 3172 0 
L 1756 0 
L 1756 113 
L 1816 113 
Q 2016 113 2095 173 
Q 2175 234 2206 353 
Q 2219 400 2219 647 
L 2219 1819 
Q 2219 2209 2117 2386 
Q 2016 2563 1775 2563 
Q 1403 2563 1034 2156 
L 1034 647 
Q 1034 356 1069 288 
Q 1113 197 1189 155 
Q 1266 113 1500 113 
L 1500 0 
L 84 0 
L 84 113 
L 147 113 
Q 366 113 442 223 
Q 519 334 519 647 
L 519 1709 
Q 519 2225 495 2337 
Q 472 2450 423 2490 
Q 375 2531 294 2531 
Q 206 2531 84 2484 
L 38 2597 
L 900 2947 
L 1034 2947 
L 1034 2341 
z
" transform="scale(0.015625)"/>
      <path id="TimesNewRomanPSMT-54" d="M 3703 4238 
L 3750 3244 
L 3631 3244 
Q 3597 3506 3538 3619 
Q 3441 3800 3280 3886 
Q 3119 3972 2856 3972 
L 2259 3972 
L 2259 734 
Q 2259 344 2344 247 
Q 2463 116 2709 116 
L 2856 116 
L 2856 0 
L 1059 0 
L 1059 116 
L 1209 116 
Q 1478 116 1591 278 
Q 1659 378 1659 734 
L 1659 3972 
L 1150 3972 
Q 853 3972 728 3928 
Q 566 3869 450 3700 
Q 334 3531 313 3244 
L 194 3244 
L 244 4238 
L 3703 4238 
z
" transform="scale(0.015625)"/>
      <path id="TimesNewRomanPSMT-72" d="M 1038 2947 
L 1038 2303 
Q 1397 2947 1775 2947 
Q 1947 2947 2059 2842 
Q 2172 2738 2172 2600 
Q 2172 2478 2090 2393 
Q 2009 2309 1897 2309 
Q 1788 2309 1652 2417 
Q 1516 2525 1450 2525 
Q 1394 2525 1328 2463 
Q 1188 2334 1038 2041 
L 1038 669 
Q 1038 431 1097 309 
Q 1138 225 1241 169 
Q 1344 113 1538 113 
L 1538 0 
L 72 0 
L 72 113 
Q 291 113 397 181 
Q 475 231 506 341 
Q 522 394 522 644 
L 522 1753 
Q 522 2253 501 2348 
Q 481 2444 426 2487 
Q 372 2531 291 2531 
Q 194 2531 72 2484 
L 41 2597 
L 906 2947 
L 1038 2947 
z
" transform="scale(0.015625)"/>
      <path id="TimesNewRomanPSMT-67" d="M 966 1044 
Q 703 1172 562 1401 
Q 422 1631 422 1909 
Q 422 2334 742 2640 
Q 1063 2947 1563 2947 
Q 1972 2947 2272 2747 
L 2878 2747 
Q 3013 2747 3034 2739 
Q 3056 2731 3066 2713 
Q 3084 2684 3084 2613 
Q 3084 2531 3069 2500 
Q 3059 2484 3036 2475 
Q 3013 2466 2878 2466 
L 2506 2466 
Q 2681 2241 2681 1891 
Q 2681 1491 2375 1206 
Q 2069 922 1553 922 
Q 1341 922 1119 984 
Q 981 866 932 777 
Q 884 688 884 625 
Q 884 572 936 522 
Q 988 472 1138 450 
Q 1225 438 1575 428 
Q 2219 413 2409 384 
Q 2700 344 2873 169 
Q 3047 -6 3047 -263 
Q 3047 -616 2716 -925 
Q 2228 -1381 1444 -1381 
Q 841 -1381 425 -1109 
Q 191 -953 191 -784 
Q 191 -709 225 -634 
Q 278 -519 444 -313 
Q 466 -284 763 25 
Q 600 122 533 198 
Q 466 275 466 372 
Q 466 481 555 628 
Q 644 775 966 1044 
z
M 1509 2797 
Q 1278 2797 1122 2612 
Q 966 2428 966 2047 
Q 966 1553 1178 1281 
Q 1341 1075 1591 1075 
Q 1828 1075 1981 1253 
Q 2134 1431 2134 1813 
Q 2134 2309 1919 2591 
Q 1759 2797 1509 2797 
z
M 934 0 
Q 788 -159 713 -296 
Q 638 -434 638 -550 
Q 638 -700 819 -813 
Q 1131 -1006 1722 -1006 
Q 2284 -1006 2551 -807 
Q 2819 -609 2819 -384 
Q 2819 -222 2659 -153 
Q 2497 -84 2016 -72 
Q 1313 -53 934 0 
z
" transform="scale(0.015625)"/>
      <path id="TimesNewRomanPSMT-43" d="M 3853 4334 
L 3950 2894 
L 3853 2894 
Q 3659 3541 3300 3825 
Q 2941 4109 2438 4109 
Q 2016 4109 1675 3895 
Q 1334 3681 1139 3212 
Q 944 2744 944 2047 
Q 944 1472 1128 1050 
Q 1313 628 1683 403 
Q 2053 178 2528 178 
Q 2941 178 3256 354 
Q 3572 531 3950 1056 
L 4047 994 
Q 3728 428 3303 165 
Q 2878 -97 2294 -97 
Q 1241 -97 663 684 
Q 231 1266 231 2053 
Q 231 2688 515 3219 
Q 800 3750 1298 4042 
Q 1797 4334 2388 4334 
Q 2847 4334 3294 4109 
Q 3425 4041 3481 4041 
Q 3566 4041 3628 4100 
Q 3709 4184 3744 4334 
L 3853 4334 
z
" transform="scale(0.015625)"/>
      <path id="TimesNewRomanPSMT-75" d="M 2709 2863 
L 2709 1128 
Q 2709 631 2732 520 
Q 2756 409 2807 365 
Q 2859 322 2928 322 
Q 3025 322 3147 375 
L 3191 266 
L 2334 -88 
L 2194 -88 
L 2194 519 
Q 1825 119 1631 15 
Q 1438 -88 1222 -88 
Q 981 -88 804 51 
Q 628 191 559 409 
Q 491 628 491 1028 
L 491 2306 
Q 491 2509 447 2587 
Q 403 2666 317 2708 
Q 231 2750 6 2747 
L 6 2863 
L 1009 2863 
L 1009 947 
Q 1009 547 1148 422 
Q 1288 297 1484 297 
Q 1619 297 1789 381 
Q 1959 466 2194 703 
L 2194 2325 
Q 2194 2569 2105 2655 
Q 2016 2741 1734 2747 
L 1734 2863 
L 2709 2863 
z
" transform="scale(0.015625)"/>
      <path id="TimesNewRomanPSMT-76" d="M 53 2863 
L 1400 2863 
L 1400 2747 
L 1313 2747 
Q 1191 2747 1127 2687 
Q 1063 2628 1063 2528 
Q 1063 2419 1128 2269 
L 1794 688 
L 2463 2328 
Q 2534 2503 2534 2594 
Q 2534 2638 2509 2666 
Q 2475 2713 2422 2730 
Q 2369 2747 2206 2747 
L 2206 2863 
L 3141 2863 
L 3141 2747 
Q 2978 2734 2916 2681 
Q 2806 2588 2719 2369 
L 1703 -88 
L 1575 -88 
L 553 2328 
Q 484 2497 421 2570 
Q 359 2644 263 2694 
Q 209 2722 53 2747 
L 53 2863 
z
" transform="scale(0.015625)"/>
      <path id="TimesNewRomanPSMT-65" d="M 681 1784 
Q 678 1147 991 784 
Q 1303 422 1725 422 
Q 2006 422 2214 576 
Q 2422 731 2563 1106 
L 2659 1044 
Q 2594 616 2278 264 
Q 1963 -88 1488 -88 
Q 972 -88 605 314 
Q 238 716 238 1394 
Q 238 2128 614 2539 
Q 991 2950 1559 2950 
Q 2041 2950 2350 2633 
Q 2659 2316 2659 1784 
L 681 1784 
z
M 681 1966 
L 2006 1966 
Q 1991 2241 1941 2353 
Q 1863 2528 1708 2628 
Q 1553 2728 1384 2728 
Q 1125 2728 920 2526 
Q 716 2325 681 1966 
z
" transform="scale(0.015625)"/>
      <path id="TimesNewRomanPSMT-73" d="M 2050 2947 
L 2050 1972 
L 1947 1972 
Q 1828 2431 1642 2597 
Q 1456 2763 1169 2763 
Q 950 2763 815 2647 
Q 681 2531 681 2391 
Q 681 2216 781 2091 
Q 878 1963 1175 1819 
L 1631 1597 
Q 2266 1288 2266 781 
Q 2266 391 1970 151 
Q 1675 -88 1309 -88 
Q 1047 -88 709 6 
Q 606 38 541 38 
Q 469 38 428 -44 
L 325 -44 
L 325 978 
L 428 978 
Q 516 541 762 319 
Q 1009 97 1316 97 
Q 1531 97 1667 223 
Q 1803 350 1803 528 
Q 1803 744 1651 891 
Q 1500 1038 1047 1263 
Q 594 1488 453 1669 
Q 313 1847 313 2119 
Q 313 2472 555 2709 
Q 797 2947 1181 2947 
Q 1350 2947 1591 2875 
Q 1750 2828 1803 2828 
Q 1853 2828 1881 2850 
Q 1909 2872 1947 2947 
L 2050 2947 
z
" transform="scale(0.015625)"/>
     </defs>
     <use xlink:href="#TimesNewRomanPSMT-41"/>
     <use xlink:href="#TimesNewRomanPSMT-62" transform="translate(72.216797 0)"/>
     <use xlink:href="#TimesNewRomanPSMT-6c" transform="translate(122.216797 0)"/>
     <use xlink:href="#TimesNewRomanPSMT-61" transform="translate(150 0)"/>
     <use xlink:href="#TimesNewRomanPSMT-74" transform="translate(194.384766 0)"/>
     <use xlink:href="#TimesNewRomanPSMT-69" transform="translate(222.167969 0)"/>
     <use xlink:href="#TimesNewRomanPSMT-6f" transform="translate(249.951172 0)"/>
     <use xlink:href="#TimesNewRomanPSMT-6e" transform="translate(299.951172 0)"/>
     <use xlink:href="#TimesNewRomanPSMT-20" transform="translate(349.951172 0)"/>
     <use xlink:href="#TimesNewRomanPSMT-54" transform="translate(373.201172 0)"/>
     <use xlink:href="#TimesNewRomanPSMT-72" transform="translate(430.785156 0)"/>
     <use xlink:href="#TimesNewRomanPSMT-61" transform="translate(464.085938 0)"/>
     <use xlink:href="#TimesNewRomanPSMT-69" transform="translate(508.470703 0)"/>
     <use xlink:href="#TimesNewRomanPSMT-6e" transform="translate(536.253906 0)"/>
     <use xlink:href="#TimesNewRomanPSMT-69" transform="translate(586.253906 0)"/>
     <use xlink:href="#TimesNewRomanPSMT-6e" transform="translate(614.037109 0)"/>
     <use xlink:href="#TimesNewRomanPSMT-67" transform="translate(664.037109 0)"/>
     <use xlink:href="#TimesNewRomanPSMT-20" transform="translate(714.037109 0)"/>
     <use xlink:href="#TimesNewRomanPSMT-43" transform="translate(739.037109 0)"/>
     <use xlink:href="#TimesNewRomanPSMT-75" transform="translate(805.736328 0)"/>
     <use xlink:href="#TimesNewRomanPSMT-72" transform="translate(855.736328 0)"/>
     <use xlink:href="#TimesNewRomanPSMT-76" transform="translate(889.037109 0)"/>
     <use xlink:href="#TimesNewRomanPSMT-65" transform="translate(939.037109 0)"/>
     <use xlink:href="#TimesNewRomanPSMT-73" transform="translate(983.421875 0)"/>
    </g>
   </g>
   <g id="legend_1">
    <g id="patch_7">
     <path d="M 329.399062 309.30925 
L 549.381875 309.30925 
Q 551.581875 309.30925 551.581875 307.10925 
L 551.581875 277.103313 
Q 551.581875 274.903313 549.381875 274.903313 
L 329.399062 274.903313 
Q 327.199062 274.903313 327.199062 277.103313 
L 327.199062 307.10925 
Q 327.199062 309.30925 329.399062 309.30925 
z
" style="fill: #ffffff; opacity: 0.8; stroke: #c0c0c0; stroke-linejoin: miter"/>
    </g>
    <g id="line2d_29">
     <path d="M 331.599062 283.153312 
L 342.599062 283.153312 
L 353.599062 283.153312 
" style="fill: none; stroke: #2a9d8f; stroke-width: 2; stroke-linecap: square"/>
    </g>
    <g id="text_16">
     <!-- Baseline -->
     <g transform="translate(362.399062 287.003312) scale(0.11 -0.11)">
      <defs>
       <path id="TimesNewRomanPSMT-42" d="M 2956 2163 
Q 3397 2069 3616 1863 
Q 3919 1575 3919 1159 
Q 3919 844 3719 555 
Q 3519 266 3170 133 
Q 2822 0 2106 0 
L 106 0 
L 106 116 
L 266 116 
Q 531 116 647 284 
Q 719 394 719 750 
L 719 3488 
Q 719 3881 628 3984 
Q 506 4122 266 4122 
L 106 4122 
L 106 4238 
L 1938 4238 
Q 2450 4238 2759 4163 
Q 3228 4050 3475 3764 
Q 3722 3478 3722 3106 
Q 3722 2788 3528 2536 
Q 3334 2284 2956 2163 
z
M 1319 2331 
Q 1434 2309 1582 2298 
Q 1731 2288 1909 2288 
Q 2366 2288 2595 2386 
Q 2825 2484 2947 2687 
Q 3069 2891 3069 3131 
Q 3069 3503 2766 3765 
Q 2463 4028 1881 4028 
Q 1569 4028 1319 3959 
L 1319 2331 
z
M 1319 306 
Q 1681 222 2034 222 
Q 2600 222 2897 476 
Q 3194 731 3194 1106 
Q 3194 1353 3059 1581 
Q 2925 1809 2622 1940 
Q 2319 2072 1872 2072 
Q 1678 2072 1540 2065 
Q 1403 2059 1319 2044 
L 1319 306 
z
" transform="scale(0.015625)"/>
      </defs>
      <use xlink:href="#TimesNewRomanPSMT-42"/>
      <use xlink:href="#TimesNewRomanPSMT-61" transform="translate(66.699219 0)"/>
      <use xlink:href="#TimesNewRomanPSMT-73" transform="translate(111.083984 0)"/>
      <use xlink:href="#TimesNewRomanPSMT-65" transform="translate(150 0)"/>
      <use xlink:href="#TimesNewRomanPSMT-6c" transform="translate(194.384766 0)"/>
      <use xlink:href="#TimesNewRomanPSMT-69" transform="translate(222.167969 0)"/>
      <use xlink:href="#TimesNewRomanPSMT-6e" transform="translate(249.951172 0)"/>
      <use xlink:href="#TimesNewRomanPSMT-65" transform="translate(299.951172 0)"/>
     </g>
    </g>
    <g id="line2d_30">
     <path d="M 331.599062 298.706281 
L 342.599062 298.706281 
L 353.599062 298.706281 
" style="fill: none; stroke: #386641; stroke-width: 2; stroke-linecap: square"/>
    </g>
    <g id="text_17">
     <!-- ARConv-Neck -->
     <g transform="translate(362.399062 302.556281) scale(0.11 -0.11)">
      <defs>
       <path id="TimesNewRomanPSMT-52" d="M 4325 0 
L 3194 0 
L 1759 1981 
Q 1600 1975 1500 1975 
Q 1459 1975 1412 1976 
Q 1366 1978 1316 1981 
L 1316 750 
Q 1316 350 1403 253 
Q 1522 116 1759 116 
L 1925 116 
L 1925 0 
L 109 0 
L 109 116 
L 269 116 
Q 538 116 653 291 
Q 719 388 719 750 
L 719 3488 
Q 719 3888 631 3984 
Q 509 4122 269 4122 
L 109 4122 
L 109 4238 
L 1653 4238 
Q 2328 4238 2648 4139 
Q 2969 4041 3192 3777 
Q 3416 3513 3416 3147 
Q 3416 2756 3161 2468 
Q 2906 2181 2372 2063 
L 3247 847 
Q 3547 428 3762 290 
Q 3978 153 4325 116 
L 4325 0 
z
M 1316 2178 
Q 1375 2178 1419 2176 
Q 1463 2175 1491 2175 
Q 2097 2175 2405 2437 
Q 2713 2700 2713 3106 
Q 2713 3503 2464 3751 
Q 2216 4000 1806 4000 
Q 1625 4000 1316 3941 
L 1316 2178 
z
" transform="scale(0.015625)"/>
       <path id="TimesNewRomanPSMT-2d" d="M 259 1672 
L 1875 1672 
L 1875 1200 
L 259 1200 
L 259 1672 
z
" transform="scale(0.015625)"/>
       <path id="TimesNewRomanPSMT-4e" d="M -84 4238 
L 1066 4238 
L 3656 1059 
L 3656 3503 
Q 3656 3894 3569 3991 
Q 3453 4122 3203 4122 
L 3056 4122 
L 3056 4238 
L 4531 4238 
L 4531 4122 
L 4381 4122 
Q 4113 4122 4000 3959 
Q 3931 3859 3931 3503 
L 3931 -69 
L 3819 -69 
L 1025 3344 
L 1025 734 
Q 1025 344 1109 247 
Q 1228 116 1475 116 
L 1625 116 
L 1625 0 
L 150 0 
L 150 116 
L 297 116 
Q 569 116 681 278 
Q 750 378 750 734 
L 750 3681 
Q 566 3897 470 3965 
Q 375 4034 191 4094 
Q 100 4122 -84 4122 
L -84 4238 
z
" transform="scale(0.015625)"/>
       <path id="TimesNewRomanPSMT-6b" d="M 1047 4444 
L 1047 1597 
L 1775 2259 
Q 2006 2472 2044 2528 
Q 2069 2566 2069 2603 
Q 2069 2666 2017 2711 
Q 1966 2756 1847 2763 
L 1847 2863 
L 3091 2863 
L 3091 2763 
Q 2834 2756 2664 2684 
Q 2494 2613 2291 2428 
L 1556 1750 
L 2291 822 
Q 2597 438 2703 334 
Q 2853 188 2966 144 
Q 3044 113 3238 113 
L 3238 0 
L 1847 0 
L 1847 113 
Q 1966 116 2008 148 
Q 2050 181 2050 241 
Q 2050 313 1925 472 
L 1047 1594 
L 1047 644 
Q 1047 366 1086 278 
Q 1125 191 1197 153 
Q 1269 116 1509 113 
L 1509 0 
L 53 0 
L 53 113 
Q 272 113 381 166 
Q 447 200 481 272 
Q 528 375 528 628 
L 528 3234 
Q 528 3731 506 3842 
Q 484 3953 434 3995 
Q 384 4038 303 4038 
Q 238 4038 106 3984 
L 53 4094 
L 903 4444 
L 1047 4444 
z
" transform="scale(0.015625)"/>
      </defs>
      <use xlink:href="#TimesNewRomanPSMT-41"/>
      <use xlink:href="#TimesNewRomanPSMT-52" transform="translate(72.216797 0)"/>
      <use xlink:href="#TimesNewRomanPSMT-43" transform="translate(138.916016 0)"/>
      <use xlink:href="#TimesNewRomanPSMT-6f" transform="translate(205.615234 0)"/>
      <use xlink:href="#TimesNewRomanPSMT-6e" transform="translate(255.615234 0)"/>
      <use xlink:href="#TimesNewRomanPSMT-76" transform="translate(305.615234 0)"/>
      <use xlink:href="#TimesNewRomanPSMT-2d" transform="translate(355.615234 0)"/>
      <use xlink:href="#TimesNewRomanPSMT-4e" transform="translate(388.916016 0)"/>
      <use xlink:href="#TimesNewRomanPSMT-65" transform="translate(461.132812 0)"/>
      <use xlink:href="#TimesNewRomanPSMT-63" transform="translate(505.517578 0)"/>
      <use xlink:href="#TimesNewRomanPSMT-6b" transform="translate(549.902344 0)"/>
     </g>
    </g>
    <g id="line2d_31">
     <path d="M 450.390469 283.153312 
L 461.390469 283.153312 
L 472.390469 283.153312 
" style="fill: none; stroke: #6a994e; stroke-width: 2; stroke-linecap: square"/>
    </g>
    <g id="text_18">
     <!-- ARConv-Head -->
     <g transform="translate(481.190469 287.003312) scale(0.11 -0.11)">
      <defs>
       <path id="TimesNewRomanPSMT-48" d="M 1316 2272 
L 3284 2272 
L 3284 3484 
Q 3284 3809 3244 3913 
Q 3213 3991 3113 4047 
Q 2978 4122 2828 4122 
L 2678 4122 
L 2678 4238 
L 4491 4238 
L 4491 4122 
L 4341 4122 
Q 4191 4122 4056 4050 
Q 3956 4000 3920 3898 
Q 3884 3797 3884 3484 
L 3884 750 
Q 3884 428 3925 325 
Q 3956 247 4053 191 
Q 4191 116 4341 116 
L 4491 116 
L 4491 0 
L 2678 0 
L 2678 116 
L 2828 116 
Q 3088 116 3206 269 
Q 3284 369 3284 750 
L 3284 2041 
L 1316 2041 
L 1316 750 
Q 1316 428 1356 325 
Q 1388 247 1488 191 
Q 1622 116 1772 116 
L 1925 116 
L 1925 0 
L 109 0 
L 109 116 
L 259 116 
Q 522 116 641 269 
Q 716 369 716 750 
L 716 3484 
Q 716 3809 675 3913 
Q 644 3991 547 4047 
Q 409 4122 259 4122 
L 109 4122 
L 109 4238 
L 1925 4238 
L 1925 4122 
L 1772 4122 
Q 1622 4122 1488 4050 
Q 1391 4000 1353 3898 
Q 1316 3797 1316 3484 
L 1316 2272 
z
" transform="scale(0.015625)"/>
       <path id="TimesNewRomanPSMT-64" d="M 2222 322 
Q 2013 103 1813 7 
Q 1613 -88 1381 -88 
Q 913 -88 563 304 
Q 213 697 213 1313 
Q 213 1928 600 2439 
Q 988 2950 1597 2950 
Q 1975 2950 2222 2709 
L 2222 3238 
Q 2222 3728 2198 3840 
Q 2175 3953 2125 3993 
Q 2075 4034 2000 4034 
Q 1919 4034 1784 3984 
L 1744 4094 
L 2597 4444 
L 2738 4444 
L 2738 1134 
Q 2738 631 2761 520 
Q 2784 409 2836 365 
Q 2888 322 2956 322 
Q 3041 322 3181 375 
L 3216 266 
L 2366 -88 
L 2222 -88 
L 2222 322 
z
M 2222 541 
L 2222 2016 
Q 2203 2228 2109 2403 
Q 2016 2578 1861 2667 
Q 1706 2756 1559 2756 
Q 1284 2756 1069 2509 
Q 784 2184 784 1559 
Q 784 928 1059 592 
Q 1334 256 1672 256 
Q 1956 256 2222 541 
z
" transform="scale(0.015625)"/>
      </defs>
      <use xlink:href="#TimesNewRomanPSMT-41"/>
      <use xlink:href="#TimesNewRomanPSMT-52" transform="translate(72.216797 0)"/>
      <use xlink:href="#TimesNewRomanPSMT-43" transform="translate(138.916016 0)"/>
      <use xlink:href="#TimesNewRomanPSMT-6f" transform="translate(205.615234 0)"/>
      <use xlink:href="#TimesNewRomanPSMT-6e" transform="translate(255.615234 0)"/>
      <use xlink:href="#TimesNewRomanPSMT-76" transform="translate(305.615234 0)"/>
      <use xlink:href="#TimesNewRomanPSMT-2d" transform="translate(355.615234 0)"/>
      <use xlink:href="#TimesNewRomanPSMT-48" transform="translate(388.916016 0)"/>
      <use xlink:href="#TimesNewRomanPSMT-65" transform="translate(461.132812 0)"/>
      <use xlink:href="#TimesNewRomanPSMT-61" transform="translate(505.517578 0)"/>
      <use xlink:href="#TimesNewRomanPSMT-64" transform="translate(549.902344 0)"/>
     </g>
    </g>
    <g id="line2d_32">
     <path d="M 450.390469 298.706281 
L 461.390469 298.706281 
L 472.390469 298.706281 
" style="fill: none; stroke: #a7c957; stroke-width: 2; stroke-linecap: square"/>
    </g>
    <g id="text_19">
     <!-- ARConv-Full -->
     <g transform="translate(481.190469 302.556281) scale(0.11 -0.11)">
      <defs>
       <path id="TimesNewRomanPSMT-46" d="M 1309 4006 
L 1309 2341 
L 2081 2341 
Q 2347 2341 2470 2458 
Q 2594 2575 2634 2922 
L 2750 2922 
L 2750 1488 
L 2634 1488 
Q 2631 1734 2570 1850 
Q 2509 1966 2401 2023 
Q 2294 2081 2081 2081 
L 1309 2081 
L 1309 750 
Q 1309 428 1350 325 
Q 1381 247 1481 191 
Q 1619 116 1769 116 
L 1922 116 
L 1922 0 
L 103 0 
L 103 116 
L 253 116 
Q 516 116 634 269 
Q 709 369 709 750 
L 709 3488 
Q 709 3809 669 3913 
Q 638 3991 541 4047 
Q 406 4122 253 4122 
L 103 4122 
L 103 4238 
L 3256 4238 
L 3297 3306 
L 3188 3306 
Q 3106 3603 2998 3742 
Q 2891 3881 2733 3943 
Q 2575 4006 2244 4006 
L 1309 4006 
z
" transform="scale(0.015625)"/>
      </defs>
      <use xlink:href="#TimesNewRomanPSMT-41"/>
      <use xlink:href="#TimesNewRomanPSMT-52" transform="translate(72.216797 0)"/>
      <use xlink:href="#TimesNewRomanPSMT-43" transform="translate(138.916016 0)"/>
      <use xlink:href="#TimesNewRomanPSMT-6f" transform="translate(205.615234 0)"/>
      <use xlink:href="#TimesNewRomanPSMT-6e" transform="translate(255.615234 0)"/>
      <use xlink:href="#TimesNewRomanPSMT-76" transform="translate(305.615234 0)"/>
      <use xlink:href="#TimesNewRomanPSMT-2d" transform="translate(355.615234 0)"/>
      <use xlink:href="#TimesNewRomanPSMT-46" transform="translate(388.916016 0)"/>
      <use xlink:href="#TimesNewRomanPSMT-75" transform="translate(444.53125 0)"/>
      <use xlink:href="#TimesNewRomanPSMT-6c" transform="translate(494.53125 0)"/>
      <use xlink:href="#TimesNewRomanPSMT-6c" transform="translate(522.314453 0)"/>
     </g>
    </g>
   </g>
  </g>
 </g>
 <defs>
  <clipPath id="pc6c66dc555">
   <rect x="43.721875" y="26.52125" width="513.36" height="288.288"/>
  </clipPath>
 </defs>
</svg>
