<?xml version="1.0" encoding="utf-8" standalone="no"?>
<!DOCTYPE svg PUBLIC "-//W3C//DTD SVG 1.1//EN"
  "http://www.w3.org/Graphics/SVG/1.1/DTD/svg11.dtd">
<svg xmlns:xlink="http://www.w3.org/1999/xlink" width="669.96pt" height="488.304pt" viewBox="0 0 669.96 488.304" xmlns="http://www.w3.org/2000/svg" version="1.1">
 <metadata>
  <rdf:RDF xmlns:dc="http://purl.org/dc/elements/1.1/" xmlns:cc="http://creativecommons.org/ns#" xmlns:rdf="http://www.w3.org/1999/02/22-rdf-syntax-ns#">
   <cc:Work>
    <dc:type rdf:resource="http://purl.org/dc/dcmitype/StillImage"/>
    <dc:date>2026-04-21T18:01:49.578134</dc:date>
    <dc:format>image/svg+xml</dc:format>
    <dc:creator>
     <cc:Agent>
      <dc:title>Matplotlib v3.10.8, https://matplotlib.org/</dc:title>
     </cc:Agent>
    </dc:creator>
   </cc:Work>
  </rdf:RDF>
 </metadata>
 <defs>
  <style type="text/css">*{stroke-linejoin: round; stroke-linecap: butt}</style>
 </defs>
 <g id="figure_1">
  <g id="patch_1">
   <path d="M 0 488.304 
L 669.96 488.304 
L 669.96 0 
L 0 0 
z
" style="fill: #ffffff"/>
  </g>
  <g id="axes_1">
   <g id="patch_2">
    <path d="M 27.48852 478.729728 
L 642.47148 478.729728 
Q 662.22468 478.729728 662.22468 464.426208 
L 662.22468 33.413472 
Q 662.22468 19.109952 642.47148 19.109952 
L 27.48852 19.109952 
Q 7.73532 19.109952 7.73532 33.413472 
L 7.73532 464.426208 
Q 7.73532 478.729728 27.48852 478.729728 
z
" clip-path="url(#p2aa20f6fee)" style="fill: #f8fbff; stroke: #c8d8eb; stroke-width: 1.4; stroke-linejoin: miter"/>
   </g>
   <g id="patch_3">
    <path d="M 282.3048 105.88464 
L 387.6552 105.88464 
Q 400.824 105.88464 400.824 96.34896 
L 400.824 79.66152 
Q 400.824 70.12584 387.6552 70.12584 
L 282.3048 70.12584 
Q 269.136 70.12584 269.136 79.66152 
L 269.136 96.34896 
Q 269.136 105.88464 282.3048 105.88464 
z
" clip-path="url(#p2aa20f6fee)" style="fill: #dff3e4; stroke: #4f8f5b; stroke-width: 1.8; stroke-linejoin: miter"/>
   </g>
   <g id="patch_4">
    <path d="M 196.7076 163.09872 
L 473.2524 163.09872 
Q 486.4212 163.09872 486.4212 153.56304 
L 486.4212 124.002432 
Q 486.4212 114.466752 473.2524 114.466752 
L 196.7076 114.466752 
Q 183.5388 114.466752 183.5388 124.002432 
L 183.5388 153.56304 
Q 183.5388 163.09872 196.7076 163.09872 
z
" clip-path="url(#p2aa20f6fee)" style="fill: #dceaf7; stroke: #457b9d; stroke-width: 1.8; stroke-linejoin: miter"/>
   </g>
   <g id="patch_5">
    <path d="M 242.7984 220.3128 
L 427.1616 220.3128 
Q 440.3304 220.3128 440.3304 210.77712 
L 440.3304 185.984352 
Q 440.3304 176.448672 427.1616 176.448672 
L 242.7984 176.448672 
Q 229.6296 176.448672 229.6296 185.984352 
L 229.6296 210.77712 
Q 229.6296 220.3128 242.7984 220.3128 
z
" clip-path="url(#p2aa20f6fee)" style="fill: #efe1ff; stroke: #8a63b8; stroke-width: 1.8; stroke-linejoin: miter"/>
   </g>
   <g id="patch_6">
    <path d="M 209.8764 277.52688 
L 460.0836 277.52688 
Q 473.2524 277.52688 473.2524 267.9912 
L 473.2524 243.198432 
Q 473.2524 233.662752 460.0836 233.662752 
L 209.8764 233.662752 
Q 196.7076 233.662752 196.7076 243.198432 
L 196.7076 267.9912 
Q 196.7076 277.52688 209.8764 277.52688 
z
" clip-path="url(#p2aa20f6fee)" style="fill: #dceaf7; stroke: #457b9d; stroke-width: 1.8; stroke-linejoin: miter"/>
   </g>
   <g id="patch_7">
    <path d="M 334.98 291.8304 
L 420.5772 314.47764 
L 334.98 337.12488 
L 249.3828 314.47764 
z
" clip-path="url(#p2aa20f6fee)" style="fill: #fdecc8; stroke: #d08c2f; stroke-width: 1.8"/>
   </g>
   <g id="patch_8">
    <path d="M 223.0452 401.49072 
L 446.9148 401.49072 
Q 460.0836 401.49072 460.0836 391.95504 
L 460.0836 367.162272 
Q 460.0836 357.626592 446.9148 357.626592 
L 223.0452 357.626592 
Q 209.8764 357.626592 209.8764 367.162272 
L 209.8764 391.95504 
Q 209.8764 401.49072 223.0452 401.49072 
z
" clip-path="url(#p2aa20f6fee)" style="fill: #dceaf7; stroke: #457b9d; stroke-width: 1.8; stroke-linejoin: miter"/>
   </g>
   <g id="patch_9">
    <path d="M 334.98 422.946 
L 420.5772 445.59324 
L 334.98 468.24048 
L 249.3828 445.59324 
z
" clip-path="url(#p2aa20f6fee)" style="fill: #fdecc8; stroke: #d08c2f; stroke-width: 1.8"/>
   </g>
   <g id="patch_10">
    <path d="M 486.4212 401.49072 
L 618.1092 401.49072 
Q 631.278 401.49072 631.278 391.95504 
L 631.278 365.73192 
Q 631.278 356.19624 618.1092 356.19624 
L 486.4212 356.19624 
Q 473.2524 356.19624 473.2524 365.73192 
L 473.2524 391.95504 
Q 473.2524 401.49072 486.4212 401.49072 
z
" clip-path="url(#p2aa20f6fee)" style="fill: #dff3e4; stroke: #4f8f5b; stroke-width: 1.8; stroke-linejoin: miter"/>
   </g>
   <g id="patch_11">
    <path d="M 486.4212 329.97312 
L 618.1092 329.97312 
Q 631.278 329.97312 631.278 320.43744 
L 631.278 289.44648 
Q 631.278 279.9108 618.1092 279.9108 
L 486.4212 279.9108 
Q 473.2524 279.9108 473.2524 289.44648 
L 473.2524 320.43744 
Q 473.2524 329.97312 486.4212 329.97312 
z
" clip-path="url(#p2aa20f6fee)" style="fill: #dceaf7; stroke: #457b9d; stroke-width: 1.8; stroke-linejoin: miter"/>
   </g>
   <g id="patch_12">
    <path d="M 486.4212 263.22336 
L 618.1092 263.22336 
Q 631.278 263.22336 631.278 253.68768 
L 631.278 222.69672 
Q 631.278 213.16104 618.1092 213.16104 
L 486.4212 213.16104 
Q 473.2524 213.16104 473.2524 222.69672 
L 473.2524 253.68768 
Q 473.2524 263.22336 486.4212 263.22336 
z
" clip-path="url(#p2aa20f6fee)" style="fill: #efe1ff; stroke: #8a63b8; stroke-width: 1.8; stroke-linejoin: miter"/>
   </g>
   <g id="patch_13">
    <path d="M 45.2664 411.0264 
L 163.7856 411.0264 
Q 176.9544 411.0264 176.9544 401.49072 
L 176.9544 375.2676 
Q 176.9544 365.73192 163.7856 365.73192 
L 45.2664 365.73192 
Q 32.0976 365.73192 32.0976 375.2676 
L 32.0976 401.49072 
Q 32.0976 411.0264 45.2664 411.0264 
z
" clip-path="url(#p2aa20f6fee)" style="fill: #dff3e4; stroke: #4f8f5b; stroke-width: 1.8; stroke-linejoin: miter"/>
   </g>
   <g id="patch_14">
    <path d="M 45.2664 310.90176 
L 163.7856 310.90176 
Q 176.9544 310.90176 176.9544 301.36608 
L 176.9544 275.14296 
Q 176.9544 265.60728 163.7856 265.60728 
L 45.2664 265.60728 
Q 32.0976 265.60728 32.0976 275.14296 
L 32.0976 301.36608 
Q 32.0976 310.90176 45.2664 310.90176 
z
" clip-path="url(#p2aa20f6fee)" style="fill: #dff3e4; stroke: #4f8f5b; stroke-width: 1.8; stroke-linejoin: miter"/>
   </g>
   <g id="patch_15">
    <path d="M 334.98 104.120213 
Q 334.98 109.675559 334.98 113.218444 
" clip-path="url(#p2aa20f6fee)" style="fill: none; stroke: #4b5563; stroke-width: 1.8; stroke-linecap: round"/>
    <path d="M 337.58 108.018444 
L 334.98 113.218444 
L 332.38 108.018444 
z
" clip-path="url(#p2aa20f6fee)" style="fill: #4b5563; stroke: #4b5563; stroke-width: 1.8; stroke-linecap: round"/>
   </g>
   <g id="patch_16">
    <path d="M 334.98 161.328473 
Q 334.98 169.274463 334.98 175.207992 
" clip-path="url(#p2aa20f6fee)" style="fill: none; stroke: #4b5563; stroke-width: 1.8; stroke-linecap: round"/>
    <path d="M 337.58 170.007992 
L 334.98 175.207992 
L 332.38 170.007992 
z
" clip-path="url(#p2aa20f6fee)" style="fill: #4b5563; stroke: #4b5563; stroke-width: 1.8; stroke-linecap: round"/>
   </g>
   <g id="patch_17">
    <path d="M 334.98 218.542553 
Q 334.98 226.488543 334.98 232.422072 
" clip-path="url(#p2aa20f6fee)" style="fill: none; stroke: #4b5563; stroke-width: 1.8; stroke-linecap: round"/>
    <path d="M 337.58 227.222072 
L 334.98 232.422072 
L 332.38 227.222072 
z
" clip-path="url(#p2aa20f6fee)" style="fill: #4b5563; stroke: #4b5563; stroke-width: 1.8; stroke-linecap: round"/>
   </g>
   <g id="patch_18">
    <path d="M 334.98 275.76222 
Q 334.98 281.797595 334.98 285.820508 
" clip-path="url(#p2aa20f6fee)" style="fill: none; stroke: #4b5563; stroke-width: 1.8; stroke-linecap: round"/>
    <path d="M 337.58 280.620508 
L 334.98 285.820508 
L 332.38 280.620508 
z
" clip-path="url(#p2aa20f6fee)" style="fill: #4b5563; stroke: #4b5563; stroke-width: 1.8; stroke-linecap: round"/>
   </g>
   <g id="patch_19">
    <path d="M 334.98 340.126256 
Q 334.98 349.261047 334.98 356.383376 
" clip-path="url(#p2aa20f6fee)" style="fill: none; stroke: #4b5563; stroke-width: 1.8; stroke-linecap: round"/>
    <path d="M 337.58 351.183376 
L 334.98 356.383376 
L 332.38 351.183376 
z
" clip-path="url(#p2aa20f6fee)" style="fill: #4b5563; stroke: #4b5563; stroke-width: 1.8; stroke-linecap: round"/>
   </g>
   <g id="patch_20">
    <path d="M 334.98 399.722277 
Q 334.98 409.334098 334.98 416.933457 
" clip-path="url(#p2aa20f6fee)" style="fill: none; stroke: #4b5563; stroke-width: 1.8; stroke-linecap: round"/>
    <path d="M 337.58 411.733457 
L 334.98 416.933457 
L 332.38 411.733457 
z
" clip-path="url(#p2aa20f6fee)" style="fill: #4b5563; stroke: #4b5563; stroke-width: 1.8; stroke-linecap: round"/>
   </g>
   <g id="patch_21">
    <path d="M 183.5388 289.44648 
Q 178.955762 289.44648 176.385185 289.44648 
" clip-path="url(#p2aa20f6fee)" style="fill: none; stroke: #4b5563; stroke-width: 1.8; stroke-linecap: round"/>
    <path d="M 181.585185 292.04648 
L 176.385185 289.44648 
L 181.585185 286.84648 
z
" clip-path="url(#p2aa20f6fee)" style="fill: #4b5563; stroke: #4b5563; stroke-width: 1.8; stroke-linecap: round"/>
   </g>
   <g id="patch_22">
    <path d="M 104.526 309.131426 
Q 104.526 337.817302 104.526 364.490716 
" clip-path="url(#p2aa20f6fee)" style="fill: none; stroke: #4b5563; stroke-width: 1.8; stroke-linecap: round"/>
    <path d="M 107.126 359.290716 
L 104.526 364.490716 
L 101.926 359.290716 
z
" clip-path="url(#p2aa20f6fee)" style="fill: #4b5563; stroke: #4b5563; stroke-width: 1.8; stroke-linecap: round"/>
   </g>
   <g id="patch_23">
    <path d="M 229.6296 444.40128 
Q 229.6296 312.900097 229.6296 183.411376 
" clip-path="url(#p2aa20f6fee)" style="fill: none; stroke: #4b5563; stroke-width: 1.8; stroke-linecap: round"/>
    <path d="M 227.0296 188.611376 
L 229.6296 183.411376 
L 232.2296 188.611376 
z
" clip-path="url(#p2aa20f6fee)" style="fill: #4b5563; stroke: #4b5563; stroke-width: 1.8; stroke-linecap: round"/>
   </g>
   <g id="patch_24">
    <path d="M 460.0836 380.03544 
Q 467.961249 380.03544 473.826438 380.03544 
" clip-path="url(#p2aa20f6fee)" style="fill: none; stroke: #4b5563; stroke-width: 1.8; stroke-linecap: round"/>
    <path d="M 468.626438 377.43544 
L 473.826438 380.03544 
L 468.626438 382.63544 
z
" clip-path="url(#p2aa20f6fee)" style="fill: #4b5563; stroke: #4b5563; stroke-width: 1.8; stroke-linecap: round"/>
   </g>
   <g id="patch_25">
    <path d="M 552.2652 357.965265 
Q 552.2652 343.586783 552.2652 331.220762 
" clip-path="url(#p2aa20f6fee)" style="fill: none; stroke: #4b5563; stroke-width: 1.8; stroke-linecap: round"/>
    <path d="M 549.6652 336.420762 
L 552.2652 331.220762 
L 554.8652 336.420762 
z
" clip-path="url(#p2aa20f6fee)" style="fill: #4b5563; stroke: #4b5563; stroke-width: 1.8; stroke-linecap: round"/>
   </g>
   <g id="patch_26">
    <path d="M 552.2652 281.679243 
Q 552.2652 272.067422 552.2652 264.468063 
" clip-path="url(#p2aa20f6fee)" style="fill: none; stroke: #4b5563; stroke-width: 1.8; stroke-linecap: round"/>
    <path d="M 549.6652 269.668063 
L 552.2652 264.468063 
L 554.8652 269.668063 
z
" clip-path="url(#p2aa20f6fee)" style="fill: #4b5563; stroke: #4b5563; stroke-width: 1.8; stroke-linecap: round"/>
   </g>
   <g id="patch_27">
    <path d="M 427.1616 177.40224 
Q 428.452438 177.40224 427.730815 177.40224 
" clip-path="url(#p2aa20f6fee)" style="fill: none; stroke: #4b5563; stroke-width: 1.8; stroke-linecap: round"/>
    <path d="M 422.530815 174.80224 
L 427.730815 177.40224 
L 422.530815 180.00224 
z
" clip-path="url(#p2aa20f6fee)" style="fill: #4b5563; stroke: #4b5563; stroke-width: 1.8; stroke-linecap: round"/>
   </g>
   <g id="patch_28">
    <path d="M 183.5388 388.617552 
Q 178.955762 388.617552 176.385185 388.617552 
" clip-path="url(#p2aa20f6fee)" style="fill: none; stroke: #4b5563; stroke-width: 1.8; stroke-linecap: round"/>
    <path d="M 181.585185 391.217552 
L 176.385185 388.617552 
L 181.585185 386.017552 
z
" clip-path="url(#p2aa20f6fee)" style="fill: #4b5563; stroke: #4b5563; stroke-width: 1.8; stroke-linecap: round"/>
   </g>
   <g id="line2d_1">
    <path d="M 249.3828 314.716032 
L 183.5388 314.716032 
L 183.5388 289.44648 
" clip-path="url(#p2aa20f6fee)" style="fill: none; stroke: #4b5563; stroke-width: 1.8; stroke-linecap: square"/>
   </g>
   <g id="line2d_2">
    <path d="M 104.526 406.25856 
L 104.526 444.40128 
L 229.6296 444.40128 
" clip-path="url(#p2aa20f6fee)" style="fill: none; stroke: #4b5563; stroke-width: 1.8; stroke-linecap: square"/>
   </g>
   <g id="line2d_3">
    <path d="M 420.5772 445.831632 
L 460.0836 445.831632 
L 460.0836 380.03544 
" clip-path="url(#p2aa20f6fee)" style="fill: none; stroke: #4b5563; stroke-width: 1.8; stroke-linecap: square"/>
   </g>
   <g id="line2d_4">
    <path d="M 479.8368 238.430592 
L 427.1616 238.430592 
L 427.1616 177.40224 
" clip-path="url(#p2aa20f6fee)" style="fill: none; stroke: #4b5563; stroke-width: 1.8; stroke-linecap: square"/>
   </g>
   <g id="line2d_5">
    <path d="M 249.3828 445.354848 
L 183.5388 445.354848 
L 183.5388 388.617552 
" clip-path="url(#p2aa20f6fee)" style="fill: none; stroke: #4b5563; stroke-width: 1.8; stroke-linecap: square"/>
   </g>
   <g id="text_1">
    <!-- Real-Time Pest Monitoring and Alarm Workflow -->
    <g style="fill: #1f2937" transform="translate(122.82668 30.459795) scale(0.175 -0.175)">
     <defs>
      <path id="MicrosoftYaHei-Bold-52" d="M 4553 0 
L 3366 0 
L 2606 1259 
Q 2372 1650 2222 1762 
Q 2072 1875 1903 1875 
L 1591 1875 
L 1591 0 
L 559 0 
L 559 4841 
L 2256 4841 
Q 3984 4841 3984 3528 
Q 3984 3034 3695 2681 
Q 3406 2328 2900 2184 
L 2900 2172 
Q 3234 2059 3641 1434 
L 4553 0 
z
M 1591 4056 
L 1591 2663 
L 2097 2663 
Q 2459 2663 2679 2873 
Q 2900 3084 2900 3400 
Q 2900 4056 2116 4056 
L 1591 4056 
z
" transform="scale(0.015625)"/>
      <path id="MicrosoftYaHei-Bold-65" d="M 3528 1444 
L 1253 1444 
Q 1306 641 2222 641 
Q 2794 641 3231 922 
L 3231 181 
Q 2759 -84 1994 -84 
Q 1169 -84 711 381 
Q 253 847 253 1678 
Q 253 2506 740 3023 
Q 1228 3541 1966 3541 
Q 2700 3541 3114 3095 
Q 3528 2650 3528 1872 
L 3528 1444 
z
M 2588 2075 
Q 2588 2850 1959 2850 
Q 1700 2850 1500 2637 
Q 1300 2425 1250 2075 
L 2588 2075 
z
" transform="scale(0.015625)"/>
      <path id="MicrosoftYaHei-Bold-61" d="M 544 3247 
Q 778 3378 1170 3459 
Q 1563 3541 1841 3541 
Q 3291 3541 3291 2088 
L 3291 0 
L 2331 0 
L 2331 503 
L 2319 503 
Q 1966 -84 1284 -84 
Q 794 -84 498 195 
Q 203 475 203 956 
Q 203 1950 1388 2113 
L 2338 2241 
Q 2338 2844 1709 2844 
Q 1091 2844 544 2469 
L 544 3247 
z
M 1684 1566 
Q 1138 1494 1138 1072 
Q 1138 878 1270 759 
Q 1403 641 1628 641 
Q 1938 641 2138 859 
Q 2338 1078 2338 1403 
L 2338 1650 
L 1684 1566 
z
" transform="scale(0.015625)"/>
      <path id="MicrosoftYaHei-Bold-6c" d="M 444 0 
L 444 5116 
L 1450 5116 
L 1450 0 
L 444 0 
z
" transform="scale(0.015625)"/>
      <path id="MicrosoftYaHei-Bold-2d" d="M 2328 1497 
L 481 1497 
L 481 2209 
L 2328 2209 
L 2328 1497 
z
" transform="scale(0.015625)"/>
      <path id="MicrosoftYaHei-Bold-54" d="M 3900 3997 
L 2519 3997 
L 2519 0 
L 1484 0 
L 1484 3997 
L 106 3997 
L 106 4841 
L 3900 4841 
L 3900 3997 
z
" transform="scale(0.015625)"/>
      <path id="MicrosoftYaHei-Bold-69" d="M 369 4572 
Q 369 4803 533 4948 
Q 697 5094 953 5094 
Q 1216 5094 1378 4945 
Q 1541 4797 1541 4572 
Q 1541 4344 1375 4192 
Q 1209 4041 953 4041 
Q 700 4041 534 4194 
Q 369 4347 369 4572 
z
M 444 0 
L 444 3456 
L 1450 3456 
L 1450 0 
L 444 0 
z
" transform="scale(0.015625)"/>
      <path id="MicrosoftYaHei-Bold-6d" d="M 5881 0 
L 4875 0 
L 4875 1972 
Q 4875 2766 4297 2766 
Q 4028 2766 3850 2525 
Q 3672 2284 3672 1938 
L 3672 0 
L 2666 0 
L 2666 1997 
Q 2666 2766 2094 2766 
Q 1809 2766 1639 2536 
Q 1469 2306 1469 1928 
L 1469 0 
L 459 0 
L 459 3456 
L 1469 3456 
L 1469 2916 
L 1481 2916 
Q 1663 3213 1963 3377 
Q 2263 3541 2594 3541 
Q 3322 3541 3591 2888 
Q 3991 3541 4753 3541 
Q 5881 3541 5881 2147 
L 5881 0 
z
" transform="scale(0.015625)"/>
      <path id="MicrosoftYaHei-Bold-20" transform="scale(0.015625)"/>
      <path id="MicrosoftYaHei-Bold-50" d="M 1591 1688 
L 1591 0 
L 559 0 
L 559 4841 
L 2225 4841 
Q 4031 4841 4031 3309 
Q 4031 2566 3486 2117 
Q 2941 1669 2122 1688 
L 1591 1688 
z
M 1591 4041 
L 1591 2478 
L 2038 2478 
Q 2947 2478 2947 3269 
Q 2947 4041 2047 4041 
L 1591 4041 
z
" transform="scale(0.015625)"/>
      <path id="MicrosoftYaHei-Bold-73" d="M 369 928 
Q 888 613 1384 613 
Q 2009 613 2009 947 
Q 2009 1184 1494 1344 
Q 850 1544 609 1789 
Q 369 2034 369 2453 
Q 369 2963 781 3252 
Q 1194 3541 1863 3541 
Q 2338 3541 2778 3400 
L 2778 2606 
Q 2375 2844 1891 2844 
Q 1650 2844 1503 2758 
Q 1356 2672 1356 2531 
Q 1356 2294 1794 2147 
Q 2263 1991 2498 1862 
Q 2734 1734 2857 1525 
Q 2981 1316 2981 1041 
Q 2981 506 2553 211 
Q 2125 -84 1409 -84 
Q 847 -84 369 94 
L 369 928 
z
" transform="scale(0.015625)"/>
      <path id="MicrosoftYaHei-Bold-74" d="M 2494 41 
Q 2266 -84 1803 -84 
Q 703 -84 703 1072 
L 703 2703 
L 134 2703 
L 134 3456 
L 703 3456 
L 703 4216 
L 1706 4503 
L 1706 3456 
L 2494 3456 
L 2494 2703 
L 1706 2703 
L 1706 1247 
Q 1706 694 2144 694 
Q 2313 694 2494 794 
L 2494 41 
z
" transform="scale(0.015625)"/>
      <path id="MicrosoftYaHei-Bold-4d" d="M 4991 0 
L 4991 2938 
Q 4991 3344 5031 3959 
L 5006 3959 
Q 4913 3494 4856 3338 
L 3663 0 
L 2841 0 
L 1631 3306 
Q 1588 3425 1478 3959 
L 1450 3959 
Q 1491 3350 1491 2738 
L 1491 0 
L 559 0 
L 559 4841 
L 2059 4841 
L 3103 1916 
Q 3234 1553 3281 1234 
L 3303 1234 
Q 3400 1631 3503 1922 
L 4550 4841 
L 6009 4841 
L 6009 0 
L 4991 0 
z
" transform="scale(0.015625)"/>
      <path id="MicrosoftYaHei-Bold-6f" d="M 253 1713 
Q 253 2566 764 3053 
Q 1275 3541 2138 3541 
Q 2972 3541 3462 3061 
Q 3953 2581 3953 1772 
Q 3953 922 3450 419 
Q 2947 -84 2088 -84 
Q 1244 -84 748 398 
Q 253 881 253 1713 
z
M 1275 1725 
Q 1275 691 2119 691 
Q 2928 691 2928 1753 
Q 2928 2766 2113 2766 
Q 1716 2766 1495 2494 
Q 1275 2222 1275 1725 
z
" transform="scale(0.015625)"/>
      <path id="MicrosoftYaHei-Bold-6e" d="M 3744 0 
L 2741 0 
L 2741 1928 
Q 2741 2766 2138 2766 
Q 1850 2766 1659 2542 
Q 1469 2319 1469 1972 
L 1469 0 
L 459 0 
L 459 3456 
L 1469 3456 
L 1469 2906 
L 1481 2906 
Q 1859 3541 2594 3541 
Q 3744 3541 3744 2116 
L 3744 0 
z
" transform="scale(0.015625)"/>
      <path id="MicrosoftYaHei-Bold-72" d="M 2663 2541 
Q 2478 2647 2216 2647 
Q 1872 2647 1670 2384 
Q 1469 2122 1469 1663 
L 1469 0 
L 459 0 
L 459 3456 
L 1469 3456 
L 1469 2806 
L 1481 2806 
Q 1731 3516 2391 3516 
Q 2569 3516 2663 3475 
L 2663 2541 
z
" transform="scale(0.015625)"/>
      <path id="MicrosoftYaHei-Bold-67" d="M 3800 381 
Q 3800 -581 3251 -1101 
Q 2703 -1622 1672 -1622 
Q 972 -1622 559 -1422 
L 559 -559 
Q 1097 -872 1644 -872 
Q 2184 -872 2489 -583 
Q 2794 -294 2794 219 
L 2794 506 
L 2778 506 
Q 2413 -84 1691 -84 
Q 1038 -84 645 381 
Q 253 847 253 1628 
Q 253 2500 686 3020 
Q 1119 3541 1822 3541 
Q 2459 3541 2778 3044 
L 2794 3044 
L 2794 3456 
L 3800 3456 
L 3800 381 
z
M 2803 1950 
Q 2803 2294 2595 2530 
Q 2388 2766 2072 2766 
Q 1703 2766 1489 2477 
Q 1275 2188 1275 1666 
Q 1275 1213 1481 952 
Q 1688 691 2028 691 
Q 2372 691 2587 956 
Q 2803 1222 2803 1647 
L 2803 1950 
z
" transform="scale(0.015625)"/>
      <path id="MicrosoftYaHei-Bold-64" d="M 3794 0 
L 2788 0 
L 2788 488 
L 2772 488 
Q 2406 -84 1691 -84 
Q 1031 -84 642 381 
Q 253 847 253 1650 
Q 253 2500 689 3020 
Q 1125 3541 1828 3541 
Q 2503 3541 2772 3053 
L 2788 3053 
L 2788 5116 
L 3794 5116 
L 3794 0 
z
M 2803 1956 
Q 2803 2306 2592 2536 
Q 2381 2766 2066 2766 
Q 1697 2766 1486 2473 
Q 1275 2181 1275 1681 
Q 1275 1206 1478 948 
Q 1681 691 2038 691 
Q 2372 691 2587 962 
Q 2803 1234 2803 1669 
L 2803 1956 
z
" transform="scale(0.015625)"/>
      <path id="MicrosoftYaHei-Bold-41" d="M 4759 0 
L 3634 0 
L 3272 1109 
L 1513 1109 
L 1156 0 
L 38 0 
L 1809 4841 
L 3022 4841 
L 4759 0 
z
M 3028 1906 
L 2478 3584 
Q 2425 3744 2403 4006 
L 2375 4006 
Q 2356 3794 2291 3597 
L 1738 1906 
L 3028 1906 
z
" transform="scale(0.015625)"/>
      <path id="MicrosoftYaHei-Bold-57" d="M 6825 4841 
L 5534 0 
L 4388 0 
L 3563 3156 
Q 3497 3413 3484 3691 
L 3472 3691 
Q 3441 3366 3384 3156 
L 2541 0 
L 1350 0 
L 59 4841 
L 1191 4841 
L 1909 1559 
Q 1956 1344 1975 1016 
L 1997 1016 
Q 2013 1272 2094 1575 
L 2994 4841 
L 4091 4841 
L 4909 1534 
Q 4959 1338 4988 1022 
L 5003 1022 
Q 5016 1294 5075 1553 
L 5778 4841 
L 6825 4841 
z
" transform="scale(0.015625)"/>
      <path id="MicrosoftYaHei-Bold-6b" d="M 3856 0 
L 2631 0 
L 1481 1709 
L 1469 1709 
L 1469 0 
L 459 0 
L 459 5116 
L 1469 5116 
L 1469 1859 
L 1481 1859 
L 2559 3456 
L 3763 3456 
L 2481 1825 
L 3856 0 
z
" transform="scale(0.015625)"/>
      <path id="MicrosoftYaHei-Bold-66" d="M 2653 4338 
Q 2447 4419 2263 4419 
Q 1744 4419 1744 3844 
L 1744 3456 
L 2531 3456 
L 2531 2703 
L 1744 2703 
L 1744 0 
L 734 0 
L 734 2703 
L 156 2703 
L 156 3456 
L 734 3456 
L 734 3900 
Q 734 4491 1118 4844 
Q 1503 5197 2128 5197 
Q 2447 5197 2653 5131 
L 2653 4338 
z
" transform="scale(0.015625)"/>
      <path id="MicrosoftYaHei-Bold-77" d="M 5391 3456 
L 4391 0 
L 3331 0 
L 2800 2075 
Q 2747 2284 2744 2503 
L 2722 2503 
Q 2700 2256 2656 2088 
L 2084 0 
L 1038 0 
L 53 3456 
L 1084 3456 
L 1588 1163 
Q 1619 1025 1638 784 
L 1659 784 
Q 1675 1016 1719 1175 
L 2338 3456 
L 3294 3456 
L 3847 1159 
Q 3869 1066 3894 778 
L 3919 778 
Q 3928 944 3972 1159 
L 4453 3456 
L 5391 3456 
z
" transform="scale(0.015625)"/>
     </defs>
     <use xlink:href="#MicrosoftYaHei-Bold-52"/>
     <use xlink:href="#MicrosoftYaHei-Bold-65" transform="translate(67.074219 0)"/>
     <use xlink:href="#MicrosoftYaHei-Bold-61" transform="translate(125.277344 0)"/>
     <use xlink:href="#MicrosoftYaHei-Bold-6c" transform="translate(183.041016 0)"/>
     <use xlink:href="#MicrosoftYaHei-Bold-2d" transform="translate(212.630859 0)"/>
     <use xlink:href="#MicrosoftYaHei-Bold-54" transform="translate(256.283203 0)"/>
     <use xlink:href="#MicrosoftYaHei-Bold-69" transform="translate(318.832031 0)"/>
     <use xlink:href="#MicrosoftYaHei-Bold-6d" transform="translate(348.421875 0)"/>
     <use xlink:href="#MicrosoftYaHei-Bold-65" transform="translate(446.615234 0)"/>
     <use xlink:href="#MicrosoftYaHei-Bold-20" transform="translate(504.818359 0)"/>
     <use xlink:href="#MicrosoftYaHei-Bold-50" transform="translate(534.603516 0)"/>
     <use xlink:href="#MicrosoftYaHei-Bold-65" transform="translate(596.951172 0)"/>
     <use xlink:href="#MicrosoftYaHei-Bold-73" transform="translate(655.154297 0)"/>
     <use xlink:href="#MicrosoftYaHei-Bold-74" transform="translate(704.519531 0)"/>
     <use xlink:href="#MicrosoftYaHei-Bold-20" transform="translate(745.925781 0)"/>
     <use xlink:href="#MicrosoftYaHei-Bold-4d" transform="translate(775.710938 0)"/>
     <use xlink:href="#MicrosoftYaHei-Bold-6f" transform="translate(878.542969 0)"/>
     <use xlink:href="#MicrosoftYaHei-Bold-6e" transform="translate(944.265625 0)"/>
     <use xlink:href="#MicrosoftYaHei-Bold-69" transform="translate(1009.060547 0)"/>
     <use xlink:href="#MicrosoftYaHei-Bold-74" transform="translate(1038.650391 0)"/>
     <use xlink:href="#MicrosoftYaHei-Bold-6f" transform="translate(1079.556641 0)"/>
     <use xlink:href="#MicrosoftYaHei-Bold-72" transform="translate(1145.279297 0)"/>
     <use xlink:href="#MicrosoftYaHei-Bold-69" transform="translate(1188.037109 0)"/>
     <use xlink:href="#MicrosoftYaHei-Bold-6e" transform="translate(1217.626953 0)"/>
     <use xlink:href="#MicrosoftYaHei-Bold-67" transform="translate(1282.421875 0)"/>
     <use xlink:href="#MicrosoftYaHei-Bold-20" transform="translate(1348.876953 0)"/>
     <use xlink:href="#MicrosoftYaHei-Bold-61" transform="translate(1378.662109 0)"/>
     <use xlink:href="#MicrosoftYaHei-Bold-6e" transform="translate(1436.425781 0)"/>
     <use xlink:href="#MicrosoftYaHei-Bold-64" transform="translate(1501.220703 0)"/>
     <use xlink:href="#MicrosoftYaHei-Bold-20" transform="translate(1567.675781 0)"/>
     <use xlink:href="#MicrosoftYaHei-Bold-41" transform="translate(1597.460938 0)"/>
     <use xlink:href="#MicrosoftYaHei-Bold-6c" transform="translate(1672.65625 0)"/>
     <use xlink:href="#MicrosoftYaHei-Bold-61" transform="translate(1702.246094 0)"/>
     <use xlink:href="#MicrosoftYaHei-Bold-72" transform="translate(1760.009766 0)"/>
     <use xlink:href="#MicrosoftYaHei-Bold-6d" transform="translate(1802.642578 0)"/>
     <use xlink:href="#MicrosoftYaHei-Bold-20" transform="translate(1900.835938 0)"/>
     <use xlink:href="#MicrosoftYaHei-Bold-57" transform="translate(1930.621094 0)"/>
     <use xlink:href="#MicrosoftYaHei-Bold-6f" transform="translate(2035.363281 0)"/>
     <use xlink:href="#MicrosoftYaHei-Bold-72" transform="translate(2101.085938 0)"/>
     <use xlink:href="#MicrosoftYaHei-Bold-6b" transform="translate(2143.46875 0)"/>
     <use xlink:href="#MicrosoftYaHei-Bold-66" transform="translate(2203.087891 0)"/>
     <use xlink:href="#MicrosoftYaHei-Bold-6c" transform="translate(2244.115234 0)"/>
     <use xlink:href="#MicrosoftYaHei-Bold-6f" transform="translate(2273.705078 0)"/>
     <use xlink:href="#MicrosoftYaHei-Bold-77" transform="translate(2339.427734 0)"/>
    </g>
   </g>
   <g id="text_2">
    <!-- Edge deployment pipeline for real-time pest warning -->
    <g style="fill: #52606d" transform="translate(201.81375 39.546036) scale(0.105 -0.105)">
     <defs>
      <path id="MicrosoftYaHei-45" d="M 3228 0 
L 625 0 
L 625 4841 
L 3119 4841 
L 3119 4284 
L 1250 4284 
L 1250 2734 
L 2981 2734 
L 2981 2181 
L 1250 2181 
L 1250 553 
L 3228 553 
L 3228 0 
z
" transform="scale(0.015625)"/>
      <path id="MicrosoftYaHei-64" d="M 3547 0 
L 2934 0 
L 2934 575 
L 2922 575 
Q 2544 -81 1747 -81 
Q 1091 -81 703 386 
Q 316 853 316 1647 
Q 316 2503 753 3020 
Q 1191 3538 1897 3538 
Q 2603 3538 2922 2988 
L 2934 2988 
L 2934 5116 
L 3547 5116 
L 3547 0 
z
M 2938 2056 
Q 2938 2472 2664 2751 
Q 2391 3031 1991 3031 
Q 1503 3031 1222 2667 
Q 941 2303 941 1675 
Q 941 1097 1211 761 
Q 1481 425 1931 425 
Q 2375 425 2656 754 
Q 2938 1084 2938 1575 
L 2938 2056 
z
" transform="scale(0.015625)"/>
      <path id="MicrosoftYaHei-67" d="M 3547 291 
Q 3547 -1628 1684 -1628 
Q 1041 -1628 566 -1388 
L 566 -797 
Q 1144 -1119 1675 -1119 
Q 2934 -1119 2934 206 
L 2934 572 
L 2922 572 
Q 2528 -81 1747 -81 
Q 1097 -81 706 384 
Q 316 850 316 1619 
Q 316 2503 747 3020 
Q 1178 3538 1897 3538 
Q 2588 3538 2922 2988 
L 2934 2988 
L 2934 3456 
L 3547 3456 
L 3547 291 
z
M 2934 2056 
Q 2938 2456 2666 2743 
Q 2394 3031 1997 3031 
Q 1497 3031 1219 2664 
Q 941 2297 941 1656 
Q 941 1106 1209 765 
Q 1478 425 1922 425 
Q 2369 425 2653 750 
Q 2938 1075 2934 1575 
L 2934 2056 
z
" transform="scale(0.015625)"/>
      <path id="MicrosoftYaHei-65" d="M 3363 1572 
L 944 1572 
Q 959 1019 1246 717 
Q 1534 416 2050 416 
Q 2631 416 3116 788 
L 3116 241 
Q 2659 -81 1906 -81 
Q 1156 -81 736 394 
Q 316 869 316 1713 
Q 316 2506 777 3022 
Q 1238 3538 1922 3538 
Q 2600 3538 2981 3102 
Q 3363 2666 3363 1881 
L 3363 1572 
z
M 2750 2063 
Q 2747 2531 2528 2787 
Q 2309 3044 1913 3044 
Q 1547 3044 1280 2772 
Q 1013 2500 944 2063 
L 2750 2063 
z
" transform="scale(0.015625)"/>
      <path id="MicrosoftYaHei-20" transform="scale(0.015625)"/>
      <path id="MicrosoftYaHei-70" d="M 1159 488 
L 1159 -1591 
L 547 -1591 
L 547 3456 
L 1159 3456 
L 1159 2859 
L 1172 2859 
Q 1578 3538 2359 3538 
Q 3022 3538 3398 3073 
Q 3775 2609 3775 1828 
Q 3775 966 3348 442 
Q 2922 -81 2200 -81 
Q 1534 -81 1172 488 
L 1159 488 
z
M 1156 1425 
Q 1156 1003 1428 714 
Q 1700 425 2109 425 
Q 2597 425 2872 800 
Q 3147 1175 3147 1838 
Q 3147 2397 2890 2714 
Q 2634 3031 2191 3031 
Q 1738 3031 1447 2709 
Q 1156 2388 1156 1884 
L 1156 1425 
z
" transform="scale(0.015625)"/>
      <path id="MicrosoftYaHei-6c" d="M 544 0 
L 544 5116 
L 1156 5116 
L 1156 0 
L 544 0 
z
" transform="scale(0.015625)"/>
      <path id="MicrosoftYaHei-6f" d="M 316 1691 
Q 316 2547 794 3042 
Q 1272 3538 2091 3538 
Q 2869 3538 3311 3061 
Q 3753 2584 3753 1744 
Q 3753 925 3281 422 
Q 2809 -81 2016 -81 
Q 1241 -81 778 406 
Q 316 894 316 1691 
z
M 941 1709 
Q 941 1113 1242 769 
Q 1544 425 2053 425 
Q 2578 425 2853 761 
Q 3128 1097 3128 1725 
Q 3128 2356 2853 2693 
Q 2578 3031 2053 3031 
Q 1538 3031 1239 2678 
Q 941 2325 941 1709 
z
" transform="scale(0.015625)"/>
      <path id="MicrosoftYaHei-79" d="M 3359 3456 
L 1791 -522 
Q 1353 -1628 556 -1628 
Q 328 -1628 166 -1578 
L 166 -1041 
Q 344 -1109 509 -1109 
Q 925 -1109 1131 -622 
L 1397 6 
L 41 3456 
L 719 3456 
L 1622 859 
L 1697 575 
L 1713 575 
Q 1731 672 1788 853 
L 2731 3456 
L 3359 3456 
z
" transform="scale(0.015625)"/>
      <path id="MicrosoftYaHei-6d" d="M 5522 0 
L 4909 0 
L 4909 1984 
Q 4909 2547 4734 2789 
Q 4559 3031 4159 3031 
Q 3822 3031 3581 2715 
Q 3341 2400 3341 1969 
L 3341 0 
L 2728 0 
L 2728 2047 
Q 2728 3031 1969 3031 
Q 1619 3031 1389 2731 
Q 1159 2431 1159 1966 
L 1159 0 
L 547 0 
L 547 3456 
L 1159 3456 
L 1159 2909 
L 1172 2909 
Q 1541 3538 2250 3538 
Q 2597 3538 2862 3347 
Q 3128 3156 3231 2831 
Q 3616 3538 4381 3538 
Q 5522 3538 5522 2131 
L 5522 0 
z
" transform="scale(0.015625)"/>
      <path id="MicrosoftYaHei-6e" d="M 3469 0 
L 2859 0 
L 2859 1966 
Q 2859 3031 2081 3031 
Q 1678 3031 1418 2731 
Q 1159 2431 1159 1972 
L 1159 0 
L 547 0 
L 547 3456 
L 1159 3456 
L 1159 2884 
L 1172 2884 
Q 1563 3538 2306 3538 
Q 2875 3538 3172 3173 
Q 3469 2809 3469 2113 
L 3469 0 
z
" transform="scale(0.015625)"/>
      <path id="MicrosoftYaHei-74" d="M 2206 34 
Q 2006 -75 1666 -75 
Q 738 -75 738 953 
L 738 2950 
L 144 2950 
L 144 3456 
L 738 3456 
L 738 4288 
L 1347 4481 
L 1347 3456 
L 2206 3456 
L 2206 2950 
L 1347 2950 
L 1347 1063 
Q 1347 722 1462 575 
Q 1578 428 1847 428 
Q 2053 428 2206 544 
L 2206 34 
z
" transform="scale(0.015625)"/>
      <path id="MicrosoftYaHei-69" d="M 472 4675 
Q 472 4838 583 4948 
Q 694 5059 856 5059 
Q 1022 5059 1136 4950 
Q 1250 4841 1250 4675 
Q 1250 4513 1136 4405 
Q 1022 4297 856 4297 
Q 691 4297 581 4405 
Q 472 4513 472 4675 
z
M 544 0 
L 544 3456 
L 1156 3456 
L 1156 0 
L 544 0 
z
" transform="scale(0.015625)"/>
      <path id="MicrosoftYaHei-66" d="M 2319 4594 
Q 2147 4684 1947 4684 
Q 1372 4684 1372 3972 
L 1372 3456 
L 2181 3456 
L 2181 2950 
L 1372 2950 
L 1372 0 
L 766 0 
L 766 2950 
L 175 2950 
L 175 3456 
L 766 3456 
L 766 4000 
Q 766 4556 1086 4873 
Q 1406 5191 1900 5191 
Q 2163 5191 2319 5131 
L 2319 4594 
z
" transform="scale(0.015625)"/>
      <path id="MicrosoftYaHei-72" d="M 2400 2850 
Q 2247 2959 1978 2959 
Q 1622 2959 1390 2626 
Q 1159 2294 1159 1750 
L 1159 0 
L 547 0 
L 547 3456 
L 1159 3456 
L 1159 2753 
L 1172 2753 
Q 1434 3516 2078 3516 
Q 2288 3516 2400 3469 
L 2400 2850 
z
" transform="scale(0.015625)"/>
      <path id="MicrosoftYaHei-61" d="M 628 3216 
Q 1144 3538 1819 3538 
Q 3069 3538 3069 2225 
L 3069 0 
L 2463 0 
L 2463 534 
L 2447 534 
Q 2088 -81 1388 -81 
Q 884 -81 587 191 
Q 291 463 291 925 
Q 291 1894 1438 2053 
L 2463 2197 
Q 2463 3044 1763 3044 
Q 1141 3044 628 2625 
L 628 3216 
z
M 1653 1625 
Q 1228 1569 1067 1412 
Q 906 1256 906 975 
Q 906 728 1081 572 
Q 1256 416 1544 416 
Q 1944 416 2203 697 
Q 2463 978 2463 1403 
L 2463 1734 
L 1653 1625 
z
" transform="scale(0.015625)"/>
      <path id="MicrosoftYaHei-2d" d="M 2328 1681 
L 488 1681 
L 488 2153 
L 2328 2153 
L 2328 1681 
z
" transform="scale(0.015625)"/>
      <path id="MicrosoftYaHei-73" d="M 353 747 
Q 816 413 1350 413 
Q 2066 413 2066 881 
Q 2066 1081 1909 1211 
Q 1753 1341 1275 1519 
Q 700 1750 528 1976 
Q 356 2203 356 2525 
Q 356 2984 745 3261 
Q 1134 3538 1703 3538 
Q 2144 3538 2522 3384 
L 2522 2794 
Q 2134 3044 1644 3044 
Q 1350 3044 1165 2916 
Q 981 2788 981 2578 
Q 981 2372 1114 2256 
Q 1247 2141 1703 1959 
Q 2281 1744 2484 1512 
Q 2688 1281 2688 941 
Q 2688 466 2298 192 
Q 1909 -81 1291 -81 
Q 753 -81 353 122 
L 353 747 
z
" transform="scale(0.015625)"/>
      <path id="MicrosoftYaHei-77" d="M 4975 3456 
L 3944 0 
L 3306 0 
L 2619 2425 
Q 2575 2581 2563 2756 
L 2550 2756 
Q 2541 2625 2478 2431 
L 1734 0 
L 1116 0 
L 78 3456 
L 716 3456 
L 1406 894 
Q 1438 778 1453 578 
L 1478 578 
Q 1491 750 1538 903 
L 2281 3456 
L 2847 3456 
L 3572 891 
Q 3603 778 3622 572 
L 3650 572 
Q 3656 709 3706 891 
L 4381 3456 
L 4975 3456 
z
" transform="scale(0.015625)"/>
     </defs>
     <use xlink:href="#MicrosoftYaHei-45"/>
     <use xlink:href="#MicrosoftYaHei-64" transform="translate(54.980469 0)"/>
     <use xlink:href="#MicrosoftYaHei-67" transform="translate(118.945312 0)"/>
     <use xlink:href="#MicrosoftYaHei-65" transform="translate(182.910156 0)"/>
     <use xlink:href="#MicrosoftYaHei-20" transform="translate(239.648438 0)"/>
     <use xlink:href="#MicrosoftYaHei-64" transform="translate(269.238281 0)"/>
     <use xlink:href="#MicrosoftYaHei-65" transform="translate(333.203125 0)"/>
     <use xlink:href="#MicrosoftYaHei-70" transform="translate(389.941406 0)"/>
     <use xlink:href="#MicrosoftYaHei-6c" transform="translate(453.808594 0)"/>
     <use xlink:href="#MicrosoftYaHei-6f" transform="translate(480.419922 0)"/>
     <use xlink:href="#MicrosoftYaHei-79" transform="translate(543.994141 0)"/>
     <use xlink:href="#MicrosoftYaHei-6d" transform="translate(596.923828 0)"/>
     <use xlink:href="#MicrosoftYaHei-65" transform="translate(690.625 0)"/>
     <use xlink:href="#MicrosoftYaHei-6e" transform="translate(747.363281 0)"/>
     <use xlink:href="#MicrosoftYaHei-74" transform="translate(808.984375 0)"/>
     <use xlink:href="#MicrosoftYaHei-20" transform="translate(846.240234 0)"/>
     <use xlink:href="#MicrosoftYaHei-70" transform="translate(875.830078 0)"/>
     <use xlink:href="#MicrosoftYaHei-69" transform="translate(939.697266 0)"/>
     <use xlink:href="#MicrosoftYaHei-70" transform="translate(966.308594 0)"/>
     <use xlink:href="#MicrosoftYaHei-65" transform="translate(1030.175781 0)"/>
     <use xlink:href="#MicrosoftYaHei-6c" transform="translate(1086.914062 0)"/>
     <use xlink:href="#MicrosoftYaHei-69" transform="translate(1113.525391 0)"/>
     <use xlink:href="#MicrosoftYaHei-6e" transform="translate(1140.136719 0)"/>
     <use xlink:href="#MicrosoftYaHei-65" transform="translate(1201.757812 0)"/>
     <use xlink:href="#MicrosoftYaHei-20" transform="translate(1258.496094 0)"/>
     <use xlink:href="#MicrosoftYaHei-66" transform="translate(1288.085938 0)"/>
     <use xlink:href="#MicrosoftYaHei-6f" transform="translate(1322.753906 0)"/>
     <use xlink:href="#MicrosoftYaHei-72" transform="translate(1386.328125 0)"/>
     <use xlink:href="#MicrosoftYaHei-20" transform="translate(1424.511719 0)"/>
     <use xlink:href="#MicrosoftYaHei-72" transform="translate(1454.101562 0)"/>
     <use xlink:href="#MicrosoftYaHei-65" transform="translate(1490.910156 0)"/>
     <use xlink:href="#MicrosoftYaHei-61" transform="translate(1547.648438 0)"/>
     <use xlink:href="#MicrosoftYaHei-6c" transform="translate(1602.921875 0)"/>
     <use xlink:href="#MicrosoftYaHei-2d" transform="translate(1629.533203 0)"/>
     <use xlink:href="#MicrosoftYaHei-74" transform="translate(1672.794922 0)"/>
     <use xlink:href="#MicrosoftYaHei-69" transform="translate(1710.050781 0)"/>
     <use xlink:href="#MicrosoftYaHei-6d" transform="translate(1736.662109 0)"/>
     <use xlink:href="#MicrosoftYaHei-65" transform="translate(1830.363281 0)"/>
     <use xlink:href="#MicrosoftYaHei-20" transform="translate(1887.101562 0)"/>
     <use xlink:href="#MicrosoftYaHei-70" transform="translate(1916.691406 0)"/>
     <use xlink:href="#MicrosoftYaHei-65" transform="translate(1980.558594 0)"/>
     <use xlink:href="#MicrosoftYaHei-73" transform="translate(2037.296875 0)"/>
     <use xlink:href="#MicrosoftYaHei-74" transform="translate(2083.585938 0)"/>
     <use xlink:href="#MicrosoftYaHei-20" transform="translate(2120.841797 0)"/>
     <use xlink:href="#MicrosoftYaHei-77" transform="translate(2150.431641 0)"/>
     <use xlink:href="#MicrosoftYaHei-61" transform="translate(2229.386719 0)"/>
     <use xlink:href="#MicrosoftYaHei-72" transform="translate(2284.660156 0)"/>
     <use xlink:href="#MicrosoftYaHei-6e" transform="translate(2322.59375 0)"/>
     <use xlink:href="#MicrosoftYaHei-69" transform="translate(2384.214844 0)"/>
     <use xlink:href="#MicrosoftYaHei-6e" transform="translate(2410.826172 0)"/>
     <use xlink:href="#MicrosoftYaHei-67" transform="translate(2472.447266 0)"/>
    </g>
   </g>
   <g id="text_3">
    <!-- Start -->
    <g style="fill: #1f2937" transform="translate(321.5875 88.149994) scale(0.11 -0.11)">
     <defs>
      <path id="MicrosoftYaHei-Bold-53" d="M 338 1219 
Q 922 734 1666 734 
Q 2088 734 2300 879 
Q 2513 1025 2513 1253 
Q 2513 1450 2344 1625 
Q 2175 1800 1453 2100 
Q 319 2581 319 3500 
Q 319 4175 833 4548 
Q 1347 4922 2194 4922 
Q 2903 4922 3384 4738 
L 3384 3769 
Q 2897 4100 2244 4100 
Q 1863 4100 1634 3961 
Q 1406 3822 1406 3588 
Q 1406 3400 1562 3242 
Q 1719 3084 2334 2816 
Q 3056 2506 3326 2162 
Q 3597 1819 3597 1344 
Q 3597 647 3103 281 
Q 2609 -84 1700 -84 
Q 869 -84 338 184 
L 338 1219 
z
" transform="scale(0.015625)"/>
     </defs>
     <use xlink:href="#MicrosoftYaHei-Bold-53"/>
     <use xlink:href="#MicrosoftYaHei-Bold-74" transform="translate(57.40625 0)"/>
     <use xlink:href="#MicrosoftYaHei-Bold-61" transform="translate(98.8125 0)"/>
     <use xlink:href="#MicrosoftYaHei-Bold-72" transform="translate(156.576172 0)"/>
     <use xlink:href="#MicrosoftYaHei-Bold-74" transform="translate(202.083984 0)"/>
    </g>
   </g>
   <g id="text_4">
    <!-- Initialize edge monitoring system -->
    <g style="fill: #1f2937" transform="translate(242.244844 137.484801) scale(0.11 -0.11)">
     <defs>
      <path id="MicrosoftYaHei-Bold-49" d="M 1588 4841 
L 1588 0 
L 556 0 
L 556 4841 
L 1588 4841 
z
" transform="scale(0.015625)"/>
      <path id="MicrosoftYaHei-Bold-7a" d="M 3159 0 
L 88 0 
L 88 409 
L 1856 2703 
L 263 2703 
L 263 3456 
L 3150 3456 
L 3150 2969 
L 1459 753 
L 3159 753 
L 3159 0 
z
" transform="scale(0.015625)"/>
      <path id="MicrosoftYaHei-Bold-79" d="M 3691 3456 
L 2266 -309 
Q 1769 -1622 778 -1622 
Q 388 -1622 172 -1541 
L 172 -731 
Q 375 -847 619 -847 
Q 1031 -847 1200 -447 
L 1391 6 
L -6 3456 
L 1113 3456 
L 1788 1291 
Q 1850 1094 1878 850 
L 1897 850 
Q 1919 1016 2000 1284 
L 2691 3456 
L 3691 3456 
z
" transform="scale(0.015625)"/>
     </defs>
     <use xlink:href="#MicrosoftYaHei-Bold-49"/>
     <use xlink:href="#MicrosoftYaHei-Bold-6e" transform="translate(33.544922 0)"/>
     <use xlink:href="#MicrosoftYaHei-Bold-69" transform="translate(98.339844 0)"/>
     <use xlink:href="#MicrosoftYaHei-Bold-74" transform="translate(127.929688 0)"/>
     <use xlink:href="#MicrosoftYaHei-Bold-69" transform="translate(169.335938 0)"/>
     <use xlink:href="#MicrosoftYaHei-Bold-61" transform="translate(198.925781 0)"/>
     <use xlink:href="#MicrosoftYaHei-Bold-6c" transform="translate(256.689453 0)"/>
     <use xlink:href="#MicrosoftYaHei-Bold-69" transform="translate(286.279297 0)"/>
     <use xlink:href="#MicrosoftYaHei-Bold-7a" transform="translate(315.869141 0)"/>
     <use xlink:href="#MicrosoftYaHei-Bold-65" transform="translate(367.236328 0)"/>
     <use xlink:href="#MicrosoftYaHei-Bold-20" transform="translate(425.439453 0)"/>
     <use xlink:href="#MicrosoftYaHei-Bold-65" transform="translate(455.224609 0)"/>
     <use xlink:href="#MicrosoftYaHei-Bold-64" transform="translate(513.427734 0)"/>
     <use xlink:href="#MicrosoftYaHei-Bold-67" transform="translate(579.882812 0)"/>
     <use xlink:href="#MicrosoftYaHei-Bold-65" transform="translate(646.337891 0)"/>
     <use xlink:href="#MicrosoftYaHei-Bold-20" transform="translate(704.541016 0)"/>
     <use xlink:href="#MicrosoftYaHei-Bold-6d" transform="translate(734.326172 0)"/>
     <use xlink:href="#MicrosoftYaHei-Bold-6f" transform="translate(832.519531 0)"/>
     <use xlink:href="#MicrosoftYaHei-Bold-6e" transform="translate(898.242188 0)"/>
     <use xlink:href="#MicrosoftYaHei-Bold-69" transform="translate(963.037109 0)"/>
     <use xlink:href="#MicrosoftYaHei-Bold-74" transform="translate(992.626953 0)"/>
     <use xlink:href="#MicrosoftYaHei-Bold-6f" transform="translate(1033.533203 0)"/>
     <use xlink:href="#MicrosoftYaHei-Bold-72" transform="translate(1099.255859 0)"/>
     <use xlink:href="#MicrosoftYaHei-Bold-69" transform="translate(1142.013672 0)"/>
     <use xlink:href="#MicrosoftYaHei-Bold-6e" transform="translate(1171.603516 0)"/>
     <use xlink:href="#MicrosoftYaHei-Bold-67" transform="translate(1236.398438 0)"/>
     <use xlink:href="#MicrosoftYaHei-Bold-20" transform="translate(1302.853516 0)"/>
     <use xlink:href="#MicrosoftYaHei-Bold-73" transform="translate(1332.638672 0)"/>
     <use xlink:href="#MicrosoftYaHei-Bold-79" transform="translate(1382.003906 0)"/>
     <use xlink:href="#MicrosoftYaHei-Bold-73" transform="translate(1439.425781 0)"/>
     <use xlink:href="#MicrosoftYaHei-Bold-74" transform="translate(1488.791016 0)"/>
     <use xlink:href="#MicrosoftYaHei-Bold-65" transform="translate(1529.697266 0)"/>
     <use xlink:href="#MicrosoftYaHei-Bold-6d" transform="translate(1587.900391 0)"/>
    </g>
   </g>
   <g id="text_5">
    <!-- Camera, YOLO11n-ARConv detector, buzzer and display -->
    <g style="fill: #1f2937" transform="translate(208.602539 149.190744) scale(0.095 -0.095)">
     <defs>
      <path id="MicrosoftYaHei-43" d="M 3938 200 
Q 3403 -81 2597 -81 
Q 1556 -81 934 580 
Q 313 1241 313 2328 
Q 313 3497 1013 4209 
Q 1713 4922 2791 4922 
Q 3484 4922 3938 4725 
L 3938 4072 
Q 3419 4359 2797 4359 
Q 1988 4359 1478 3820 
Q 969 3281 969 2366 
Q 969 1497 1444 986 
Q 1919 475 2688 475 
Q 3406 475 3938 800 
L 3938 200 
z
" transform="scale(0.015625)"/>
      <path id="MicrosoftYaHei-2c" d="M 1109 778 
L 575 -888 
L 131 -888 
L 519 778 
L 1109 778 
z
" transform="scale(0.015625)"/>
      <path id="MicrosoftYaHei-59" d="M 3828 4841 
L 2234 1781 
L 2234 0 
L 1606 0 
L 1606 1766 
L 53 4841 
L 769 4841 
L 1816 2697 
Q 1819 2694 1931 2388 
L 1941 2388 
Q 1978 2519 2069 2694 
L 3163 4841 
L 3828 4841 
z
" transform="scale(0.015625)"/>
      <path id="MicrosoftYaHei-4f" d="M 313 2363 
Q 313 3534 947 4228 
Q 1581 4922 2666 4922 
Q 3675 4922 4290 4244 
Q 4906 3566 4906 2478 
Q 4906 1300 4275 609 
Q 3644 -81 2588 -81 
Q 1556 -81 934 597 
Q 313 1275 313 2363 
z
M 969 2413 
Q 969 1534 1417 1004 
Q 1866 475 2588 475 
Q 3363 475 3805 983 
Q 4247 1491 4247 2403 
Q 4247 3341 3814 3850 
Q 3381 4359 2628 4359 
Q 1888 4359 1428 3821 
Q 969 3284 969 2413 
z
" transform="scale(0.015625)"/>
      <path id="MicrosoftYaHei-4c" d="M 3178 0 
L 625 0 
L 625 4841 
L 1250 4841 
L 1250 553 
L 3178 553 
L 3178 0 
z
" transform="scale(0.015625)"/>
      <path id="MicrosoftYaHei-31" d="M 1781 0 
L 1781 4141 
Q 1638 3997 1295 3819 
Q 953 3641 663 3569 
L 663 4169 
Q 1047 4275 1484 4508 
Q 1922 4741 2156 4947 
L 2388 4947 
L 2388 0 
L 1781 0 
z
" transform="scale(0.015625)"/>
      <path id="MicrosoftYaHei-41" d="M 4428 0 
L 3738 0 
L 3244 1325 
L 1228 1325 
L 763 0 
L 72 0 
L 1916 4841 
L 2584 4841 
L 4428 0 
z
M 3050 1872 
L 2319 3884 
Q 2284 3981 2244 4222 
L 2228 4222 
Q 2194 4003 2150 3884 
L 1425 1872 
L 3050 1872 
z
" transform="scale(0.015625)"/>
      <path id="MicrosoftYaHei-52" d="M 4159 0 
L 3422 0 
L 2619 1344 
Q 2378 1747 2178 1892 
Q 1978 2038 1700 2038 
L 1250 2038 
L 1250 0 
L 625 0 
L 625 4841 
L 2100 4841 
Q 2806 4841 3206 4500 
Q 3606 4159 3606 3547 
Q 3606 2541 2531 2241 
L 2531 2225 
Q 2731 2141 2876 1984 
Q 3022 1828 3253 1450 
L 4159 0 
z
M 1250 4294 
L 1250 2584 
L 1988 2584 
Q 2416 2584 2683 2834 
Q 2950 3084 2950 3491 
Q 2950 3869 2706 4081 
Q 2463 4294 1997 4294 
L 1250 4294 
z
" transform="scale(0.015625)"/>
      <path id="MicrosoftYaHei-76" d="M 3331 3456 
L 1963 0 
L 1344 0 
L 44 3456 
L 713 3456 
L 1556 988 
Q 1659 691 1678 491 
L 1694 491 
Q 1725 753 1803 975 
L 2688 3456 
L 3331 3456 
z
" transform="scale(0.015625)"/>
      <path id="MicrosoftYaHei-63" d="M 2934 156 
Q 2538 -81 1978 -81 
Q 1228 -81 772 400 
Q 316 881 316 1647 
Q 316 2497 808 3017 
Q 1300 3538 2125 3538 
Q 2600 3538 2938 3369 
L 2938 2763 
Q 2572 3031 2125 3031 
Q 1600 3031 1270 2667 
Q 941 2303 941 1697 
Q 941 1100 1252 762 
Q 1563 425 2091 425 
Q 2538 425 2934 719 
L 2934 156 
z
" transform="scale(0.015625)"/>
      <path id="MicrosoftYaHei-62" d="M 1159 488 
L 1159 0 
L 547 0 
L 547 5116 
L 1159 5116 
L 1159 2859 
L 1172 2859 
Q 1578 3538 2359 3538 
Q 3009 3538 3392 3080 
Q 3775 2622 3775 1828 
Q 3775 953 3345 436 
Q 2916 -81 2200 -81 
Q 1525 -81 1172 488 
L 1159 488 
z
M 1156 1422 
Q 1156 1003 1428 714 
Q 1700 425 2109 425 
Q 2597 425 2872 800 
Q 3147 1175 3147 1838 
Q 3147 2384 2890 2707 
Q 2634 3031 2191 3031 
Q 1741 3031 1448 2709 
Q 1156 2388 1156 1891 
L 1156 1422 
z
" transform="scale(0.015625)"/>
      <path id="MicrosoftYaHei-75" d="M 3400 0 
L 2784 0 
L 2784 544 
L 2772 544 
Q 2425 -81 1706 -81 
Q 478 -81 478 1388 
L 478 3456 
L 1084 3456 
L 1084 1478 
Q 1084 425 1891 425 
Q 2291 425 2537 720 
Q 2784 1016 2784 1466 
L 2784 3456 
L 3400 3456 
L 3400 0 
z
" transform="scale(0.015625)"/>
      <path id="MicrosoftYaHei-7a" d="M 2978 0 
L 109 0 
L 109 203 
L 2119 2950 
L 297 2950 
L 297 3456 
L 2991 3456 
L 2991 3256 
L 994 506 
L 2978 506 
L 2978 0 
z
" transform="scale(0.015625)"/>
     </defs>
     <use xlink:href="#MicrosoftYaHei-43"/>
     <use xlink:href="#MicrosoftYaHei-61" transform="translate(66.894531 0)"/>
     <use xlink:href="#MicrosoftYaHei-6d" transform="translate(122.167969 0)"/>
     <use xlink:href="#MicrosoftYaHei-65" transform="translate(215.869141 0)"/>
     <use xlink:href="#MicrosoftYaHei-72" transform="translate(272.607422 0)"/>
     <use xlink:href="#MicrosoftYaHei-61" transform="translate(310.791016 0)"/>
     <use xlink:href="#MicrosoftYaHei-2c" transform="translate(366.064453 0)"/>
     <use xlink:href="#MicrosoftYaHei-20" transform="translate(390.136719 0)"/>
     <use xlink:href="#MicrosoftYaHei-59" transform="translate(419.726562 0)"/>
     <use xlink:href="#MicrosoftYaHei-4f" transform="translate(477.703125 0)"/>
     <use xlink:href="#MicrosoftYaHei-4c" transform="translate(559.197266 0)"/>
     <use xlink:href="#MicrosoftYaHei-4f" transform="translate(606.765625 0)"/>
     <use xlink:href="#MicrosoftYaHei-31" transform="translate(688.259766 0)"/>
     <use xlink:href="#MicrosoftYaHei-31" transform="translate(746.902344 0)"/>
     <use xlink:href="#MicrosoftYaHei-6e" transform="translate(805.544922 0)"/>
     <use xlink:href="#MicrosoftYaHei-2d" transform="translate(867.166016 0)"/>
     <use xlink:href="#MicrosoftYaHei-41" transform="translate(910.427734 0)"/>
     <use xlink:href="#MicrosoftYaHei-52" transform="translate(980.789062 0)"/>
     <use xlink:href="#MicrosoftYaHei-43" transform="translate(1044.572266 0)"/>
     <use xlink:href="#MicrosoftYaHei-6f" transform="translate(1111.466797 0)"/>
     <use xlink:href="#MicrosoftYaHei-6e" transform="translate(1175.041016 0)"/>
     <use xlink:href="#MicrosoftYaHei-76" transform="translate(1236.662109 0)"/>
     <use xlink:href="#MicrosoftYaHei-20" transform="translate(1289.152344 0)"/>
     <use xlink:href="#MicrosoftYaHei-64" transform="translate(1318.742188 0)"/>
     <use xlink:href="#MicrosoftYaHei-65" transform="translate(1382.707031 0)"/>
     <use xlink:href="#MicrosoftYaHei-74" transform="translate(1439.445312 0)"/>
     <use xlink:href="#MicrosoftYaHei-65" transform="translate(1475.826172 0)"/>
     <use xlink:href="#MicrosoftYaHei-63" transform="translate(1532.564453 0)"/>
     <use xlink:href="#MicrosoftYaHei-74" transform="translate(1582.710938 0)"/>
     <use xlink:href="#MicrosoftYaHei-6f" transform="translate(1619.091797 0)"/>
     <use xlink:href="#MicrosoftYaHei-72" transform="translate(1682.666016 0)"/>
     <use xlink:href="#MicrosoftYaHei-2c" transform="translate(1712.474609 0)"/>
     <use xlink:href="#MicrosoftYaHei-20" transform="translate(1736.546875 0)"/>
     <use xlink:href="#MicrosoftYaHei-62" transform="translate(1766.136719 0)"/>
     <use xlink:href="#MicrosoftYaHei-75" transform="translate(1830.003906 0)"/>
     <use xlink:href="#MicrosoftYaHei-7a" transform="translate(1891.625 0)"/>
     <use xlink:href="#MicrosoftYaHei-7a" transform="translate(1940.794922 0)"/>
     <use xlink:href="#MicrosoftYaHei-65" transform="translate(1989.964844 0)"/>
     <use xlink:href="#MicrosoftYaHei-72" transform="translate(2046.703125 0)"/>
     <use xlink:href="#MicrosoftYaHei-20" transform="translate(2084.886719 0)"/>
     <use xlink:href="#MicrosoftYaHei-61" transform="translate(2114.476562 0)"/>
     <use xlink:href="#MicrosoftYaHei-6e" transform="translate(2169.75 0)"/>
     <use xlink:href="#MicrosoftYaHei-64" transform="translate(2231.371094 0)"/>
     <use xlink:href="#MicrosoftYaHei-20" transform="translate(2295.335938 0)"/>
     <use xlink:href="#MicrosoftYaHei-64" transform="translate(2324.925781 0)"/>
     <use xlink:href="#MicrosoftYaHei-69" transform="translate(2388.890625 0)"/>
     <use xlink:href="#MicrosoftYaHei-73" transform="translate(2415.501953 0)"/>
     <use xlink:href="#MicrosoftYaHei-70" transform="translate(2461.791016 0)"/>
     <use xlink:href="#MicrosoftYaHei-6c" transform="translate(2525.658203 0)"/>
     <use xlink:href="#MicrosoftYaHei-61" transform="translate(2552.269531 0)"/>
     <use xlink:href="#MicrosoftYaHei-79" transform="translate(2607.542969 0)"/>
    </g>
   </g>
   <g id="text_6">
    <!-- Acquire current frame -->
    <g style="fill: #1f2937" transform="translate(273.953203 197.703513) scale(0.11 -0.11)">
     <defs>
      <path id="MicrosoftYaHei-Bold-63" d="M 3050 128 
Q 2688 -84 2019 -84 
Q 1228 -84 740 397 
Q 253 878 253 1644 
Q 253 2525 778 3033 
Q 1303 3541 2178 3541 
Q 2769 3541 3053 3378 
L 3053 2513 
Q 2706 2766 2297 2766 
Q 1834 2766 1554 2484 
Q 1275 2203 1275 1713 
Q 1275 1238 1540 964 
Q 1806 691 2263 691 
Q 2666 691 3050 947 
L 3050 128 
z
" transform="scale(0.015625)"/>
      <path id="MicrosoftYaHei-Bold-71" d="M 3794 -1591 
L 2788 -1591 
L 2788 488 
L 2772 488 
Q 2409 -84 1697 -84 
Q 1044 -84 648 370 
Q 253 825 253 1644 
Q 253 2509 689 3025 
Q 1125 3541 1825 3541 
Q 2466 3541 2772 3044 
L 2788 3044 
L 2788 3456 
L 3794 3456 
L 3794 -1591 
z
M 2803 1944 
Q 2803 2288 2597 2527 
Q 2391 2766 2072 2766 
Q 1709 2766 1492 2478 
Q 1275 2191 1275 1672 
Q 1275 1206 1484 948 
Q 1694 691 2022 691 
Q 2375 691 2589 955 
Q 2803 1219 2803 1641 
L 2803 1944 
z
" transform="scale(0.015625)"/>
      <path id="MicrosoftYaHei-Bold-75" d="M 3691 0 
L 2688 0 
L 2688 528 
L 2672 528 
Q 2284 -84 1613 -84 
Q 406 -84 406 1372 
L 406 3456 
L 1416 3456 
L 1416 1466 
Q 1416 691 2022 691 
Q 2325 691 2506 903 
Q 2688 1116 2688 1478 
L 2688 3456 
L 3691 3456 
L 3691 0 
z
" transform="scale(0.015625)"/>
     </defs>
     <use xlink:href="#MicrosoftYaHei-Bold-41"/>
     <use xlink:href="#MicrosoftYaHei-Bold-63" transform="translate(75.195312 0)"/>
     <use xlink:href="#MicrosoftYaHei-Bold-71" transform="translate(126.855469 0)"/>
     <use xlink:href="#MicrosoftYaHei-Bold-75" transform="translate(193.310547 0)"/>
     <use xlink:href="#MicrosoftYaHei-Bold-69" transform="translate(258.105469 0)"/>
     <use xlink:href="#MicrosoftYaHei-Bold-72" transform="translate(287.695312 0)"/>
     <use xlink:href="#MicrosoftYaHei-Bold-65" transform="translate(329.578125 0)"/>
     <use xlink:href="#MicrosoftYaHei-Bold-20" transform="translate(387.78125 0)"/>
     <use xlink:href="#MicrosoftYaHei-Bold-63" transform="translate(417.566406 0)"/>
     <use xlink:href="#MicrosoftYaHei-Bold-75" transform="translate(469.226562 0)"/>
     <use xlink:href="#MicrosoftYaHei-Bold-72" transform="translate(534.021484 0)"/>
     <use xlink:href="#MicrosoftYaHei-Bold-72" transform="translate(576.404297 0)"/>
     <use xlink:href="#MicrosoftYaHei-Bold-65" transform="translate(618.287109 0)"/>
     <use xlink:href="#MicrosoftYaHei-Bold-6e" transform="translate(676.490234 0)"/>
     <use xlink:href="#MicrosoftYaHei-Bold-74" transform="translate(741.285156 0)"/>
     <use xlink:href="#MicrosoftYaHei-Bold-20" transform="translate(782.691406 0)"/>
     <use xlink:href="#MicrosoftYaHei-Bold-66" transform="translate(812.476562 0)"/>
     <use xlink:href="#MicrosoftYaHei-Bold-72" transform="translate(853.003906 0)"/>
     <use xlink:href="#MicrosoftYaHei-Bold-61" transform="translate(895.386719 0)"/>
     <use xlink:href="#MicrosoftYaHei-Bold-6d" transform="translate(953.150391 0)"/>
     <use xlink:href="#MicrosoftYaHei-Bold-65" transform="translate(1051.34375 0)"/>
    </g>
   </g>
   <g id="text_7">
    <!-- Real-time video stream from the edge camera -->
    <g style="fill: #1f2937" transform="translate(230.454023 207.89084) scale(0.095 -0.095)">
     <defs>
      <path id="MicrosoftYaHei-68" d="M 3466 0 
L 2856 0 
L 2856 1988 
Q 2856 3031 2081 3031 
Q 1684 3031 1421 2726 
Q 1159 2422 1159 1959 
L 1159 0 
L 547 0 
L 547 5116 
L 1159 5116 
L 1159 2888 
L 1172 2888 
Q 1569 3538 2300 3538 
Q 3466 3538 3466 2128 
L 3466 0 
z
" transform="scale(0.015625)"/>
     </defs>
     <use xlink:href="#MicrosoftYaHei-52"/>
     <use xlink:href="#MicrosoftYaHei-65" transform="translate(62.283203 0)"/>
     <use xlink:href="#MicrosoftYaHei-61" transform="translate(119.021484 0)"/>
     <use xlink:href="#MicrosoftYaHei-6c" transform="translate(174.294922 0)"/>
     <use xlink:href="#MicrosoftYaHei-2d" transform="translate(200.90625 0)"/>
     <use xlink:href="#MicrosoftYaHei-74" transform="translate(244.167969 0)"/>
     <use xlink:href="#MicrosoftYaHei-69" transform="translate(281.423828 0)"/>
     <use xlink:href="#MicrosoftYaHei-6d" transform="translate(308.035156 0)"/>
     <use xlink:href="#MicrosoftYaHei-65" transform="translate(401.736328 0)"/>
     <use xlink:href="#MicrosoftYaHei-20" transform="translate(458.474609 0)"/>
     <use xlink:href="#MicrosoftYaHei-76" transform="translate(488.064453 0)"/>
     <use xlink:href="#MicrosoftYaHei-69" transform="translate(540.554688 0)"/>
     <use xlink:href="#MicrosoftYaHei-64" transform="translate(567.166016 0)"/>
     <use xlink:href="#MicrosoftYaHei-65" transform="translate(631.130859 0)"/>
     <use xlink:href="#MicrosoftYaHei-6f" transform="translate(687.869141 0)"/>
     <use xlink:href="#MicrosoftYaHei-20" transform="translate(751.443359 0)"/>
     <use xlink:href="#MicrosoftYaHei-73" transform="translate(781.033203 0)"/>
     <use xlink:href="#MicrosoftYaHei-74" transform="translate(827.322266 0)"/>
     <use xlink:href="#MicrosoftYaHei-72" transform="translate(864.578125 0)"/>
     <use xlink:href="#MicrosoftYaHei-65" transform="translate(901.386719 0)"/>
     <use xlink:href="#MicrosoftYaHei-61" transform="translate(958.125 0)"/>
     <use xlink:href="#MicrosoftYaHei-6d" transform="translate(1013.398438 0)"/>
     <use xlink:href="#MicrosoftYaHei-20" transform="translate(1107.099609 0)"/>
     <use xlink:href="#MicrosoftYaHei-66" transform="translate(1136.689453 0)"/>
     <use xlink:href="#MicrosoftYaHei-72" transform="translate(1171.357422 0)"/>
     <use xlink:href="#MicrosoftYaHei-6f" transform="translate(1208.166016 0)"/>
     <use xlink:href="#MicrosoftYaHei-6d" transform="translate(1271.740234 0)"/>
     <use xlink:href="#MicrosoftYaHei-20" transform="translate(1365.441406 0)"/>
     <use xlink:href="#MicrosoftYaHei-74" transform="translate(1395.03125 0)"/>
     <use xlink:href="#MicrosoftYaHei-68" transform="translate(1432.287109 0)"/>
     <use xlink:href="#MicrosoftYaHei-65" transform="translate(1493.859375 0)"/>
     <use xlink:href="#MicrosoftYaHei-20" transform="translate(1550.597656 0)"/>
     <use xlink:href="#MicrosoftYaHei-65" transform="translate(1580.1875 0)"/>
     <use xlink:href="#MicrosoftYaHei-64" transform="translate(1636.925781 0)"/>
     <use xlink:href="#MicrosoftYaHei-67" transform="translate(1700.890625 0)"/>
     <use xlink:href="#MicrosoftYaHei-65" transform="translate(1764.855469 0)"/>
     <use xlink:href="#MicrosoftYaHei-20" transform="translate(1821.59375 0)"/>
     <use xlink:href="#MicrosoftYaHei-63" transform="translate(1851.183594 0)"/>
     <use xlink:href="#MicrosoftYaHei-61" transform="translate(1901.330078 0)"/>
     <use xlink:href="#MicrosoftYaHei-6d" transform="translate(1956.603516 0)"/>
     <use xlink:href="#MicrosoftYaHei-65" transform="translate(2050.304688 0)"/>
     <use xlink:href="#MicrosoftYaHei-72" transform="translate(2107.042969 0)"/>
     <use xlink:href="#MicrosoftYaHei-61" transform="translate(2145.226562 0)"/>
    </g>
   </g>
   <g id="text_8">
    <!-- Run pest detection inference -->
    <g style="fill: #1f2937" transform="translate(255.276406 254.917593) scale(0.11 -0.11)">
     <defs>
      <path id="MicrosoftYaHei-Bold-70" d="M 1469 416 
L 1469 -1591 
L 459 -1591 
L 459 3456 
L 1469 3456 
L 1469 2928 
L 1481 2928 
Q 1878 3541 2603 3541 
Q 3263 3541 3634 3080 
Q 4006 2619 4006 1825 
Q 4006 959 3575 437 
Q 3144 -84 2444 -84 
Q 1809 -84 1481 416 
L 1469 416 
z
M 1453 1528 
Q 1453 1159 1653 925 
Q 1853 691 2172 691 
Q 2550 691 2761 984 
Q 2972 1278 2972 1816 
Q 2972 2766 2231 2766 
Q 1888 2766 1670 2503 
Q 1453 2241 1453 1828 
L 1453 1528 
z
" transform="scale(0.015625)"/>
     </defs>
     <use xlink:href="#MicrosoftYaHei-Bold-52"/>
     <use xlink:href="#MicrosoftYaHei-Bold-75" transform="translate(69.824219 0)"/>
     <use xlink:href="#MicrosoftYaHei-Bold-6e" transform="translate(134.619141 0)"/>
     <use xlink:href="#MicrosoftYaHei-Bold-20" transform="translate(199.414062 0)"/>
     <use xlink:href="#MicrosoftYaHei-Bold-70" transform="translate(229.199219 0)"/>
     <use xlink:href="#MicrosoftYaHei-Bold-65" transform="translate(295.800781 0)"/>
     <use xlink:href="#MicrosoftYaHei-Bold-73" transform="translate(354.003906 0)"/>
     <use xlink:href="#MicrosoftYaHei-Bold-74" transform="translate(403.369141 0)"/>
     <use xlink:href="#MicrosoftYaHei-Bold-20" transform="translate(444.775391 0)"/>
     <use xlink:href="#MicrosoftYaHei-Bold-64" transform="translate(474.560547 0)"/>
     <use xlink:href="#MicrosoftYaHei-Bold-65" transform="translate(541.015625 0)"/>
     <use xlink:href="#MicrosoftYaHei-Bold-74" transform="translate(599.21875 0)"/>
     <use xlink:href="#MicrosoftYaHei-Bold-65" transform="translate(640.125 0)"/>
     <use xlink:href="#MicrosoftYaHei-Bold-63" transform="translate(698.328125 0)"/>
     <use xlink:href="#MicrosoftYaHei-Bold-74" transform="translate(749.988281 0)"/>
     <use xlink:href="#MicrosoftYaHei-Bold-69" transform="translate(791.394531 0)"/>
     <use xlink:href="#MicrosoftYaHei-Bold-6f" transform="translate(820.984375 0)"/>
     <use xlink:href="#MicrosoftYaHei-Bold-6e" transform="translate(886.707031 0)"/>
     <use xlink:href="#MicrosoftYaHei-Bold-20" transform="translate(951.501953 0)"/>
     <use xlink:href="#MicrosoftYaHei-Bold-69" transform="translate(981.287109 0)"/>
     <use xlink:href="#MicrosoftYaHei-Bold-6e" transform="translate(1010.876953 0)"/>
     <use xlink:href="#MicrosoftYaHei-Bold-66" transform="translate(1075.671875 0)"/>
     <use xlink:href="#MicrosoftYaHei-Bold-65" transform="translate(1116.199219 0)"/>
     <use xlink:href="#MicrosoftYaHei-Bold-72" transform="translate(1174.402344 0)"/>
     <use xlink:href="#MicrosoftYaHei-Bold-65" transform="translate(1216.285156 0)"/>
     <use xlink:href="#MicrosoftYaHei-Bold-6e" transform="translate(1274.488281 0)"/>
     <use xlink:href="#MicrosoftYaHei-Bold-63" transform="translate(1339.283203 0)"/>
     <use xlink:href="#MicrosoftYaHei-Bold-65" transform="translate(1390.943359 0)"/>
    </g>
   </g>
   <g id="text_9">
    <!-- YOLO11n-ARConv forward pass -->
    <g style="fill: #1f2937" transform="translate(263.025664 265.132381) scale(0.095 -0.095)">
     <use xlink:href="#MicrosoftYaHei-59"/>
     <use xlink:href="#MicrosoftYaHei-4f" transform="translate(57.976562 0)"/>
     <use xlink:href="#MicrosoftYaHei-4c" transform="translate(139.470703 0)"/>
     <use xlink:href="#MicrosoftYaHei-4f" transform="translate(187.039062 0)"/>
     <use xlink:href="#MicrosoftYaHei-31" transform="translate(268.533203 0)"/>
     <use xlink:href="#MicrosoftYaHei-31" transform="translate(327.175781 0)"/>
     <use xlink:href="#MicrosoftYaHei-6e" transform="translate(385.818359 0)"/>
     <use xlink:href="#MicrosoftYaHei-2d" transform="translate(447.439453 0)"/>
     <use xlink:href="#MicrosoftYaHei-41" transform="translate(490.701172 0)"/>
     <use xlink:href="#MicrosoftYaHei-52" transform="translate(561.0625 0)"/>
     <use xlink:href="#MicrosoftYaHei-43" transform="translate(624.845703 0)"/>
     <use xlink:href="#MicrosoftYaHei-6f" transform="translate(691.740234 0)"/>
     <use xlink:href="#MicrosoftYaHei-6e" transform="translate(755.314453 0)"/>
     <use xlink:href="#MicrosoftYaHei-76" transform="translate(816.935547 0)"/>
     <use xlink:href="#MicrosoftYaHei-20" transform="translate(869.425781 0)"/>
     <use xlink:href="#MicrosoftYaHei-66" transform="translate(899.015625 0)"/>
     <use xlink:href="#MicrosoftYaHei-6f" transform="translate(933.683594 0)"/>
     <use xlink:href="#MicrosoftYaHei-72" transform="translate(997.257812 0)"/>
     <use xlink:href="#MicrosoftYaHei-77" transform="translate(1039.816406 0)"/>
     <use xlink:href="#MicrosoftYaHei-61" transform="translate(1118.771484 0)"/>
     <use xlink:href="#MicrosoftYaHei-72" transform="translate(1174.044922 0)"/>
     <use xlink:href="#MicrosoftYaHei-64" transform="translate(1210.853516 0)"/>
     <use xlink:href="#MicrosoftYaHei-20" transform="translate(1274.818359 0)"/>
     <use xlink:href="#MicrosoftYaHei-70" transform="translate(1304.408203 0)"/>
     <use xlink:href="#MicrosoftYaHei-61" transform="translate(1366.900391 0)"/>
     <use xlink:href="#MicrosoftYaHei-73" transform="translate(1422.173828 0)"/>
     <use xlink:href="#MicrosoftYaHei-73" transform="translate(1468.462891 0)"/>
    </g>
   </g>
   <g id="text_10">
    <!-- Target pest detected? -->
    <g style="fill: #1f2937" transform="translate(275.446797 312.497903) scale(0.11 -0.11)">
     <defs>
      <path id="MicrosoftYaHei-Bold-3f" d="M 919 1394 
Q 844 1597 844 1813 
Q 844 2341 1344 2763 
Q 1653 3025 1762 3200 
Q 1872 3375 1872 3578 
Q 1872 3800 1715 3942 
Q 1559 4084 1313 4084 
Q 734 4084 238 3641 
L 238 4609 
Q 759 4922 1425 4922 
Q 2100 4922 2490 4609 
Q 2881 4297 2881 3719 
Q 2881 3372 2728 3090 
Q 2575 2809 2166 2475 
Q 1838 2200 1759 2047 
Q 1681 1894 1681 1722 
Q 1681 1553 1766 1394 
L 919 1394 
z
M 791 463 
Q 791 694 966 845 
Q 1141 997 1391 997 
Q 1631 997 1804 845 
Q 1978 694 1978 463 
Q 1978 234 1815 79 
Q 1653 -75 1425 -75 
Q 1134 -75 962 84 
Q 791 244 791 463 
z
" transform="scale(0.015625)"/>
     </defs>
     <use xlink:href="#MicrosoftYaHei-Bold-54"/>
     <use xlink:href="#MicrosoftYaHei-Bold-61" transform="translate(53.173828 0)"/>
     <use xlink:href="#MicrosoftYaHei-Bold-72" transform="translate(110.9375 0)"/>
     <use xlink:href="#MicrosoftYaHei-Bold-67" transform="translate(152.820312 0)"/>
     <use xlink:href="#MicrosoftYaHei-Bold-65" transform="translate(219.275391 0)"/>
     <use xlink:href="#MicrosoftYaHei-Bold-74" transform="translate(277.478516 0)"/>
     <use xlink:href="#MicrosoftYaHei-Bold-20" transform="translate(318.884766 0)"/>
     <use xlink:href="#MicrosoftYaHei-Bold-70" transform="translate(348.669922 0)"/>
     <use xlink:href="#MicrosoftYaHei-Bold-65" transform="translate(415.271484 0)"/>
     <use xlink:href="#MicrosoftYaHei-Bold-73" transform="translate(473.474609 0)"/>
     <use xlink:href="#MicrosoftYaHei-Bold-74" transform="translate(522.839844 0)"/>
     <use xlink:href="#MicrosoftYaHei-Bold-20" transform="translate(564.246094 0)"/>
     <use xlink:href="#MicrosoftYaHei-Bold-64" transform="translate(594.03125 0)"/>
     <use xlink:href="#MicrosoftYaHei-Bold-65" transform="translate(660.486328 0)"/>
     <use xlink:href="#MicrosoftYaHei-Bold-74" transform="translate(718.689453 0)"/>
     <use xlink:href="#MicrosoftYaHei-Bold-65" transform="translate(759.595703 0)"/>
     <use xlink:href="#MicrosoftYaHei-Bold-63" transform="translate(817.798828 0)"/>
     <use xlink:href="#MicrosoftYaHei-Bold-74" transform="translate(869.458984 0)"/>
     <use xlink:href="#MicrosoftYaHei-Bold-65" transform="translate(910.365234 0)"/>
     <use xlink:href="#MicrosoftYaHei-Bold-64" transform="translate(968.568359 0)"/>
     <use xlink:href="#MicrosoftYaHei-Bold-3f" transform="translate(1035.023438 0)"/>
    </g>
   </g>
   <g id="text_11">
    <!-- Update persistence timer -->
    <g style="fill: #1f2937" transform="translate(265.304453 378.811824) scale(0.11 -0.11)">
     <defs>
      <path id="MicrosoftYaHei-Bold-55" d="M 4466 2081 
Q 4466 -84 2453 -84 
Q 509 -84 509 2025 
L 509 4841 
L 1544 4841 
L 1544 2019 
Q 1544 809 2497 809 
Q 3434 809 3434 1975 
L 3434 4841 
L 4466 4841 
L 4466 2081 
z
" transform="scale(0.015625)"/>
     </defs>
     <use xlink:href="#MicrosoftYaHei-Bold-55"/>
     <use xlink:href="#MicrosoftYaHei-Bold-70" transform="translate(77.636719 0)"/>
     <use xlink:href="#MicrosoftYaHei-Bold-64" transform="translate(144.238281 0)"/>
     <use xlink:href="#MicrosoftYaHei-Bold-61" transform="translate(210.693359 0)"/>
     <use xlink:href="#MicrosoftYaHei-Bold-74" transform="translate(268.457031 0)"/>
     <use xlink:href="#MicrosoftYaHei-Bold-65" transform="translate(309.363281 0)"/>
     <use xlink:href="#MicrosoftYaHei-Bold-20" transform="translate(367.566406 0)"/>
     <use xlink:href="#MicrosoftYaHei-Bold-70" transform="translate(397.351562 0)"/>
     <use xlink:href="#MicrosoftYaHei-Bold-65" transform="translate(463.953125 0)"/>
     <use xlink:href="#MicrosoftYaHei-Bold-72" transform="translate(522.15625 0)"/>
     <use xlink:href="#MicrosoftYaHei-Bold-73" transform="translate(565.164062 0)"/>
     <use xlink:href="#MicrosoftYaHei-Bold-69" transform="translate(614.529297 0)"/>
     <use xlink:href="#MicrosoftYaHei-Bold-73" transform="translate(644.119141 0)"/>
     <use xlink:href="#MicrosoftYaHei-Bold-74" transform="translate(693.484375 0)"/>
     <use xlink:href="#MicrosoftYaHei-Bold-65" transform="translate(734.390625 0)"/>
     <use xlink:href="#MicrosoftYaHei-Bold-6e" transform="translate(792.59375 0)"/>
     <use xlink:href="#MicrosoftYaHei-Bold-63" transform="translate(857.388672 0)"/>
     <use xlink:href="#MicrosoftYaHei-Bold-65" transform="translate(909.048828 0)"/>
     <use xlink:href="#MicrosoftYaHei-Bold-20" transform="translate(967.251953 0)"/>
     <use xlink:href="#MicrosoftYaHei-Bold-74" transform="translate(997.037109 0)"/>
     <use xlink:href="#MicrosoftYaHei-Bold-69" transform="translate(1038.443359 0)"/>
     <use xlink:href="#MicrosoftYaHei-Bold-6d" transform="translate(1068.033203 0)"/>
     <use xlink:href="#MicrosoftYaHei-Bold-65" transform="translate(1166.226562 0)"/>
     <use xlink:href="#MicrosoftYaHei-Bold-72" transform="translate(1224.429688 0)"/>
    </g>
   </g>
   <g id="text_12">
    <!-- Suppress transient false positives -->
    <g style="fill: #1f2937" transform="translate(259.855039 389.096221) scale(0.095 -0.095)">
     <defs>
      <path id="MicrosoftYaHei-53" d="M 400 909 
Q 622 716 994 591 
Q 1366 466 1700 466 
Q 2719 466 2719 1191 
Q 2719 1394 2609 1556 
Q 2500 1719 2309 1844 
Q 2119 1969 1594 2228 
Q 866 2591 634 2902 
Q 403 3213 403 3613 
Q 403 4216 887 4569 
Q 1372 4922 2109 4922 
Q 2831 4922 3169 4747 
L 3169 4066 
Q 2731 4369 2063 4369 
Q 1619 4369 1339 4183 
Q 1059 3997 1059 3666 
Q 1059 3372 1253 3187 
Q 1447 3003 2094 2684 
Q 2806 2344 3090 2003 
Q 3375 1663 3375 1238 
Q 3375 600 2912 259 
Q 2450 -81 1628 -81 
Q 1341 -81 958 -1 
Q 575 78 400 197 
L 400 909 
z
" transform="scale(0.015625)"/>
     </defs>
     <use xlink:href="#MicrosoftYaHei-53"/>
     <use xlink:href="#MicrosoftYaHei-75" transform="translate(57.714844 0)"/>
     <use xlink:href="#MicrosoftYaHei-70" transform="translate(119.335938 0)"/>
     <use xlink:href="#MicrosoftYaHei-70" transform="translate(183.203125 0)"/>
     <use xlink:href="#MicrosoftYaHei-72" transform="translate(247.070312 0)"/>
     <use xlink:href="#MicrosoftYaHei-65" transform="translate(283.878906 0)"/>
     <use xlink:href="#MicrosoftYaHei-73" transform="translate(340.617188 0)"/>
     <use xlink:href="#MicrosoftYaHei-73" transform="translate(386.90625 0)"/>
     <use xlink:href="#MicrosoftYaHei-20" transform="translate(433.195312 0)"/>
     <use xlink:href="#MicrosoftYaHei-74" transform="translate(462.785156 0)"/>
     <use xlink:href="#MicrosoftYaHei-72" transform="translate(500.041016 0)"/>
     <use xlink:href="#MicrosoftYaHei-61" transform="translate(538.224609 0)"/>
     <use xlink:href="#MicrosoftYaHei-6e" transform="translate(593.498047 0)"/>
     <use xlink:href="#MicrosoftYaHei-73" transform="translate(655.119141 0)"/>
     <use xlink:href="#MicrosoftYaHei-69" transform="translate(701.408203 0)"/>
     <use xlink:href="#MicrosoftYaHei-65" transform="translate(728.019531 0)"/>
     <use xlink:href="#MicrosoftYaHei-6e" transform="translate(784.757812 0)"/>
     <use xlink:href="#MicrosoftYaHei-74" transform="translate(846.378906 0)"/>
     <use xlink:href="#MicrosoftYaHei-20" transform="translate(883.634766 0)"/>
     <use xlink:href="#MicrosoftYaHei-66" transform="translate(913.224609 0)"/>
     <use xlink:href="#MicrosoftYaHei-61" transform="translate(947.892578 0)"/>
     <use xlink:href="#MicrosoftYaHei-6c" transform="translate(1003.166016 0)"/>
     <use xlink:href="#MicrosoftYaHei-73" transform="translate(1029.777344 0)"/>
     <use xlink:href="#MicrosoftYaHei-65" transform="translate(1076.066406 0)"/>
     <use xlink:href="#MicrosoftYaHei-20" transform="translate(1132.804688 0)"/>
     <use xlink:href="#MicrosoftYaHei-70" transform="translate(1162.394531 0)"/>
     <use xlink:href="#MicrosoftYaHei-6f" transform="translate(1226.261719 0)"/>
     <use xlink:href="#MicrosoftYaHei-73" transform="translate(1289.835938 0)"/>
     <use xlink:href="#MicrosoftYaHei-69" transform="translate(1336.125 0)"/>
     <use xlink:href="#MicrosoftYaHei-74" transform="translate(1362.736328 0)"/>
     <use xlink:href="#MicrosoftYaHei-69" transform="translate(1399.992188 0)"/>
     <use xlink:href="#MicrosoftYaHei-76" transform="translate(1426.603516 0)"/>
     <use xlink:href="#MicrosoftYaHei-65" transform="translate(1478.46875 0)"/>
     <use xlink:href="#MicrosoftYaHei-73" transform="translate(1535.207031 0)"/>
    </g>
   </g>
   <g id="text_13">
    <!-- Persistent for &gt; 0.25 s? -->
    <g style="fill: #1f2937" transform="translate(271.651797 443.640144) scale(0.11 -0.11)">
     <defs>
      <path id="MicrosoftYaHei-Bold-3e" d="M 4000 1716 
L 878 275 
L 878 1041 
L 3122 1959 
L 3122 1975 
L 878 2969 
L 878 3738 
L 4000 2222 
L 4000 1716 
z
" transform="scale(0.015625)"/>
      <path id="MicrosoftYaHei-Bold-30" d="M 244 2341 
Q 244 3597 706 4259 
Q 1169 4922 2044 4922 
Q 3713 4922 3713 2453 
Q 3713 1238 3259 577 
Q 2806 -84 1950 -84 
Q 244 -84 244 2341 
z
M 1266 2366 
Q 1266 691 1981 691 
Q 2684 691 2684 2416 
Q 2684 4147 2000 4147 
Q 1266 4147 1266 2366 
z
" transform="scale(0.015625)"/>
      <path id="MicrosoftYaHei-Bold-2e" d="M 313 453 
Q 313 688 491 838 
Q 669 988 916 988 
Q 1166 988 1337 834 
Q 1509 681 1509 453 
Q 1509 213 1337 64 
Q 1166 -84 903 -84 
Q 659 -84 486 69 
Q 313 222 313 453 
z
" transform="scale(0.015625)"/>
      <path id="MicrosoftYaHei-Bold-32" d="M 1500 841 
L 3553 841 
L 3553 0 
L 334 0 
L 334 359 
Q 334 738 473 1050 
Q 613 1363 856 1633 
Q 1100 1903 1613 2266 
Q 2081 2616 2268 2886 
Q 2456 3156 2456 3459 
Q 2456 4113 1744 4113 
Q 1119 4113 550 3613 
L 550 4513 
Q 1184 4922 1975 4922 
Q 2700 4922 3122 4551 
Q 3544 4181 3544 3531 
Q 3544 3169 3422 2876 
Q 3300 2584 3069 2328 
Q 2838 2072 2328 1713 
Q 1838 1363 1669 1172 
Q 1500 981 1500 841 
z
" transform="scale(0.015625)"/>
      <path id="MicrosoftYaHei-Bold-35" d="M 541 125 
L 541 997 
Q 1044 691 1613 691 
Q 2041 691 2283 902 
Q 2525 1113 2525 1472 
Q 2525 2225 1494 2225 
Q 1113 2225 616 2169 
L 797 4841 
L 3359 4841 
L 3359 4009 
L 1613 4009 
L 1544 2991 
Q 1803 3013 2022 3013 
Q 2731 3013 3142 2625 
Q 3553 2238 3553 1575 
Q 3553 844 3056 380 
Q 2559 -84 1706 -84 
Q 1016 -84 541 125 
z
" transform="scale(0.015625)"/>
     </defs>
     <use xlink:href="#MicrosoftYaHei-Bold-50"/>
     <use xlink:href="#MicrosoftYaHei-Bold-65" transform="translate(62.347656 0)"/>
     <use xlink:href="#MicrosoftYaHei-Bold-72" transform="translate(120.550781 0)"/>
     <use xlink:href="#MicrosoftYaHei-Bold-73" transform="translate(163.558594 0)"/>
     <use xlink:href="#MicrosoftYaHei-Bold-69" transform="translate(212.923828 0)"/>
     <use xlink:href="#MicrosoftYaHei-Bold-73" transform="translate(242.513672 0)"/>
     <use xlink:href="#MicrosoftYaHei-Bold-74" transform="translate(291.878906 0)"/>
     <use xlink:href="#MicrosoftYaHei-Bold-65" transform="translate(332.785156 0)"/>
     <use xlink:href="#MicrosoftYaHei-Bold-6e" transform="translate(390.988281 0)"/>
     <use xlink:href="#MicrosoftYaHei-Bold-74" transform="translate(455.783203 0)"/>
     <use xlink:href="#MicrosoftYaHei-Bold-20" transform="translate(497.189453 0)"/>
     <use xlink:href="#MicrosoftYaHei-Bold-66" transform="translate(526.974609 0)"/>
     <use xlink:href="#MicrosoftYaHei-Bold-6f" transform="translate(567.501953 0)"/>
     <use xlink:href="#MicrosoftYaHei-Bold-72" transform="translate(633.224609 0)"/>
     <use xlink:href="#MicrosoftYaHei-Bold-20" transform="translate(675.607422 0)"/>
     <use xlink:href="#MicrosoftYaHei-Bold-3e" transform="translate(705.392578 0)"/>
     <use xlink:href="#MicrosoftYaHei-Bold-20" transform="translate(781.515625 0)"/>
     <use xlink:href="#MicrosoftYaHei-Bold-30" transform="translate(811.300781 0)"/>
     <use xlink:href="#MicrosoftYaHei-Bold-2e" transform="translate(872.970703 0)"/>
     <use xlink:href="#MicrosoftYaHei-Bold-32" transform="translate(901.535156 0)"/>
     <use xlink:href="#MicrosoftYaHei-Bold-35" transform="translate(963.205078 0)"/>
     <use xlink:href="#MicrosoftYaHei-Bold-20" transform="translate(1024.875 0)"/>
     <use xlink:href="#MicrosoftYaHei-Bold-73" transform="translate(1054.660156 0)"/>
     <use xlink:href="#MicrosoftYaHei-Bold-3f" transform="translate(1104.025391 0)"/>
    </g>
   </g>
   <g id="text_14">
    <!-- Activate buzzer alarm -->
    <g style="fill: #1f2937" transform="translate(492.255044 377.939309) scale(0.11 -0.11)">
     <defs>
      <path id="MicrosoftYaHei-Bold-76" d="M 3688 3456 
L 2391 0 
L 1250 0 
L 16 3456 
L 1097 3456 
L 1731 1281 
Q 1834 925 1847 684 
L 1863 684 
Q 1888 931 1984 1263 
L 2631 3456 
L 3688 3456 
z
" transform="scale(0.015625)"/>
      <path id="MicrosoftYaHei-Bold-62" d="M 1469 416 
L 1469 0 
L 459 0 
L 459 5116 
L 1469 5116 
L 1469 2928 
L 1481 2928 
Q 1878 3541 2613 3541 
Q 3266 3541 3636 3084 
Q 4006 2628 4006 1825 
Q 4006 966 3581 441 
Q 3156 -84 2453 -84 
Q 1809 -84 1481 416 
L 1469 416 
z
M 1453 1494 
Q 1453 1153 1656 922 
Q 1859 691 2172 691 
Q 2550 691 2761 984 
Q 2972 1278 2972 1816 
Q 2972 2263 2780 2514 
Q 2588 2766 2231 2766 
Q 1894 2766 1673 2512 
Q 1453 2259 1453 1863 
L 1453 1494 
z
" transform="scale(0.015625)"/>
     </defs>
     <use xlink:href="#MicrosoftYaHei-Bold-41"/>
     <use xlink:href="#MicrosoftYaHei-Bold-63" transform="translate(75.195312 0)"/>
     <use xlink:href="#MicrosoftYaHei-Bold-74" transform="translate(126.855469 0)"/>
     <use xlink:href="#MicrosoftYaHei-Bold-69" transform="translate(168.261719 0)"/>
     <use xlink:href="#MicrosoftYaHei-Bold-76" transform="translate(197.851562 0)"/>
     <use xlink:href="#MicrosoftYaHei-Bold-61" transform="translate(253.941406 0)"/>
     <use xlink:href="#MicrosoftYaHei-Bold-74" transform="translate(311.705078 0)"/>
     <use xlink:href="#MicrosoftYaHei-Bold-65" transform="translate(352.611328 0)"/>
     <use xlink:href="#MicrosoftYaHei-Bold-20" transform="translate(410.814453 0)"/>
     <use xlink:href="#MicrosoftYaHei-Bold-62" transform="translate(440.599609 0)"/>
     <use xlink:href="#MicrosoftYaHei-Bold-75" transform="translate(507.201172 0)"/>
     <use xlink:href="#MicrosoftYaHei-Bold-7a" transform="translate(571.996094 0)"/>
     <use xlink:href="#MicrosoftYaHei-Bold-7a" transform="translate(623.363281 0)"/>
     <use xlink:href="#MicrosoftYaHei-Bold-65" transform="translate(674.730469 0)"/>
     <use xlink:href="#MicrosoftYaHei-Bold-72" transform="translate(732.933594 0)"/>
     <use xlink:href="#MicrosoftYaHei-Bold-20" transform="translate(775.316406 0)"/>
     <use xlink:href="#MicrosoftYaHei-Bold-61" transform="translate(805.101562 0)"/>
     <use xlink:href="#MicrosoftYaHei-Bold-6c" transform="translate(862.865234 0)"/>
     <use xlink:href="#MicrosoftYaHei-Bold-61" transform="translate(892.455078 0)"/>
     <use xlink:href="#MicrosoftYaHei-Bold-72" transform="translate(950.21875 0)"/>
     <use xlink:href="#MicrosoftYaHei-Bold-6d" transform="translate(992.851562 0)"/>
    </g>
   </g>
   <g id="text_15">
    <!-- Overlay detection result -->
    <g style="fill: #1f2937" transform="translate(485.959263 303.486686) scale(0.11 -0.11)">
     <defs>
      <path id="MicrosoftYaHei-Bold-4f" d="M 256 2356 
Q 256 3494 920 4208 
Q 1584 4922 2675 4922 
Q 3713 4922 4345 4231 
Q 4978 3541 4978 2456 
Q 4978 1325 4320 620 
Q 3663 -84 2597 -84 
Q 1556 -84 906 598 
Q 256 1281 256 2356 
z
M 1341 2413 
Q 1341 1706 1681 1257 
Q 2022 809 2616 809 
Q 3222 809 3559 1239 
Q 3897 1669 3897 2394 
Q 3897 3150 3569 3589 
Q 3241 4028 2644 4028 
Q 2038 4028 1689 3578 
Q 1341 3128 1341 2413 
z
" transform="scale(0.015625)"/>
     </defs>
     <use xlink:href="#MicrosoftYaHei-Bold-4f"/>
     <use xlink:href="#MicrosoftYaHei-Bold-76" transform="translate(81.835938 0)"/>
     <use xlink:href="#MicrosoftYaHei-Bold-65" transform="translate(138.425781 0)"/>
     <use xlink:href="#MicrosoftYaHei-Bold-72" transform="translate(196.628906 0)"/>
     <use xlink:href="#MicrosoftYaHei-Bold-6c" transform="translate(239.011719 0)"/>
     <use xlink:href="#MicrosoftYaHei-Bold-61" transform="translate(268.601562 0)"/>
     <use xlink:href="#MicrosoftYaHei-Bold-79" transform="translate(326.365234 0)"/>
     <use xlink:href="#MicrosoftYaHei-Bold-20" transform="translate(383.787109 0)"/>
     <use xlink:href="#MicrosoftYaHei-Bold-64" transform="translate(413.572266 0)"/>
     <use xlink:href="#MicrosoftYaHei-Bold-65" transform="translate(480.027344 0)"/>
     <use xlink:href="#MicrosoftYaHei-Bold-74" transform="translate(538.230469 0)"/>
     <use xlink:href="#MicrosoftYaHei-Bold-65" transform="translate(579.136719 0)"/>
     <use xlink:href="#MicrosoftYaHei-Bold-63" transform="translate(637.339844 0)"/>
     <use xlink:href="#MicrosoftYaHei-Bold-74" transform="translate(689 0)"/>
     <use xlink:href="#MicrosoftYaHei-Bold-69" transform="translate(730.40625 0)"/>
     <use xlink:href="#MicrosoftYaHei-Bold-6f" transform="translate(759.996094 0)"/>
     <use xlink:href="#MicrosoftYaHei-Bold-6e" transform="translate(825.71875 0)"/>
     <use xlink:href="#MicrosoftYaHei-Bold-20" transform="translate(890.513672 0)"/>
     <use xlink:href="#MicrosoftYaHei-Bold-72" transform="translate(920.298828 0)"/>
     <use xlink:href="#MicrosoftYaHei-Bold-65" transform="translate(962.181641 0)"/>
     <use xlink:href="#MicrosoftYaHei-Bold-73" transform="translate(1020.384766 0)"/>
     <use xlink:href="#MicrosoftYaHei-Bold-75" transform="translate(1069.75 0)"/>
     <use xlink:href="#MicrosoftYaHei-Bold-6c" transform="translate(1134.544922 0)"/>
     <use xlink:href="#MicrosoftYaHei-Bold-74" transform="translate(1164.134766 0)"/>
    </g>
   </g>
   <g id="text_16">
    <!-- Bounding box, class label and confidence -->
    <g style="fill: #1f2937" transform="translate(458.4527 315.691702) scale(0.095 -0.095)">
     <defs>
      <path id="MicrosoftYaHei-42" d="M 625 0 
L 625 4841 
L 2047 4841 
Q 2684 4841 3065 4536 
Q 3447 4231 3447 3728 
Q 3447 3328 3220 3022 
Q 2994 2716 2597 2588 
L 2597 2575 
Q 3091 2519 3386 2201 
Q 3681 1884 3681 1397 
Q 3681 772 3232 386 
Q 2784 0 2084 0 
L 625 0 
z
M 1250 4294 
L 1250 2778 
L 1819 2778 
Q 2272 2778 2530 2998 
Q 2788 3219 2788 3609 
Q 2788 4294 1875 4294 
L 1250 4294 
z
M 1250 2234 
L 1250 547 
L 2000 547 
Q 2491 547 2758 773 
Q 3025 1000 3025 1403 
Q 3025 2234 1897 2234 
L 1250 2234 
z
" transform="scale(0.015625)"/>
      <path id="MicrosoftYaHei-78" d="M 3163 3456 
L 2006 1716 
L 3147 0 
L 2434 0 
L 1775 1100 
Q 1722 1188 1625 1369 
L 1613 1369 
Q 1609 1350 1456 1100 
L 784 0 
L 81 0 
L 1256 1697 
L 134 3456 
L 847 3456 
L 1494 2300 
Q 1553 2194 1638 2025 
L 1650 2025 
L 2491 3456 
L 3163 3456 
z
" transform="scale(0.015625)"/>
     </defs>
     <use xlink:href="#MicrosoftYaHei-42"/>
     <use xlink:href="#MicrosoftYaHei-6f" transform="translate(62.744141 0)"/>
     <use xlink:href="#MicrosoftYaHei-75" transform="translate(126.318359 0)"/>
     <use xlink:href="#MicrosoftYaHei-6e" transform="translate(187.939453 0)"/>
     <use xlink:href="#MicrosoftYaHei-64" transform="translate(249.560547 0)"/>
     <use xlink:href="#MicrosoftYaHei-69" transform="translate(313.525391 0)"/>
     <use xlink:href="#MicrosoftYaHei-6e" transform="translate(340.136719 0)"/>
     <use xlink:href="#MicrosoftYaHei-67" transform="translate(401.757812 0)"/>
     <use xlink:href="#MicrosoftYaHei-20" transform="translate(465.722656 0)"/>
     <use xlink:href="#MicrosoftYaHei-62" transform="translate(495.3125 0)"/>
     <use xlink:href="#MicrosoftYaHei-6f" transform="translate(559.179688 0)"/>
     <use xlink:href="#MicrosoftYaHei-78" transform="translate(621.378906 0)"/>
     <use xlink:href="#MicrosoftYaHei-2c" transform="translate(672.0625 0)"/>
     <use xlink:href="#MicrosoftYaHei-20" transform="translate(696.134766 0)"/>
     <use xlink:href="#MicrosoftYaHei-63" transform="translate(725.724609 0)"/>
     <use xlink:href="#MicrosoftYaHei-6c" transform="translate(775.871094 0)"/>
     <use xlink:href="#MicrosoftYaHei-61" transform="translate(802.482422 0)"/>
     <use xlink:href="#MicrosoftYaHei-73" transform="translate(857.755859 0)"/>
     <use xlink:href="#MicrosoftYaHei-73" transform="translate(904.044922 0)"/>
     <use xlink:href="#MicrosoftYaHei-20" transform="translate(950.333984 0)"/>
     <use xlink:href="#MicrosoftYaHei-6c" transform="translate(979.923828 0)"/>
     <use xlink:href="#MicrosoftYaHei-61" transform="translate(1006.535156 0)"/>
     <use xlink:href="#MicrosoftYaHei-62" transform="translate(1061.808594 0)"/>
     <use xlink:href="#MicrosoftYaHei-65" transform="translate(1125.675781 0)"/>
     <use xlink:href="#MicrosoftYaHei-6c" transform="translate(1182.414062 0)"/>
     <use xlink:href="#MicrosoftYaHei-20" transform="translate(1209.025391 0)"/>
     <use xlink:href="#MicrosoftYaHei-61" transform="translate(1238.615234 0)"/>
     <use xlink:href="#MicrosoftYaHei-6e" transform="translate(1293.888672 0)"/>
     <use xlink:href="#MicrosoftYaHei-64" transform="translate(1355.509766 0)"/>
     <use xlink:href="#MicrosoftYaHei-20" transform="translate(1419.474609 0)"/>
     <use xlink:href="#MicrosoftYaHei-63" transform="translate(1449.064453 0)"/>
     <use xlink:href="#MicrosoftYaHei-6f" transform="translate(1499.210938 0)"/>
     <use xlink:href="#MicrosoftYaHei-6e" transform="translate(1562.785156 0)"/>
     <use xlink:href="#MicrosoftYaHei-66" transform="translate(1624.40625 0)"/>
     <use xlink:href="#MicrosoftYaHei-69" transform="translate(1659.074219 0)"/>
     <use xlink:href="#MicrosoftYaHei-64" transform="translate(1685.685547 0)"/>
     <use xlink:href="#MicrosoftYaHei-65" transform="translate(1749.650391 0)"/>
     <use xlink:href="#MicrosoftYaHei-6e" transform="translate(1806.388672 0)"/>
     <use xlink:href="#MicrosoftYaHei-63" transform="translate(1868.009766 0)"/>
     <use xlink:href="#MicrosoftYaHei-65" transform="translate(1918.15625 0)"/>
    </g>
   </g>
   <g id="text_17">
    <!-- Display and log event -->
    <g style="fill: #1f2937" transform="translate(492.379653 236.736926) scale(0.11 -0.11)">
     <defs>
      <path id="MicrosoftYaHei-Bold-44" d="M 559 0 
L 559 4841 
L 2231 4841 
Q 4809 4841 4809 2481 
Q 4809 1359 4087 679 
Q 3366 0 2225 0 
L 559 0 
z
M 1591 3997 
L 1591 844 
L 2153 844 
Q 2888 844 3306 1281 
Q 3725 1719 3725 2466 
Q 3725 3188 3287 3592 
Q 2850 3997 2150 3997 
L 1591 3997 
z
" transform="scale(0.015625)"/>
     </defs>
     <use xlink:href="#MicrosoftYaHei-Bold-44"/>
     <use xlink:href="#MicrosoftYaHei-Bold-69" transform="translate(79.150391 0)"/>
     <use xlink:href="#MicrosoftYaHei-Bold-73" transform="translate(108.740234 0)"/>
     <use xlink:href="#MicrosoftYaHei-Bold-70" transform="translate(158.105469 0)"/>
     <use xlink:href="#MicrosoftYaHei-Bold-6c" transform="translate(224.707031 0)"/>
     <use xlink:href="#MicrosoftYaHei-Bold-61" transform="translate(254.296875 0)"/>
     <use xlink:href="#MicrosoftYaHei-Bold-79" transform="translate(312.060547 0)"/>
     <use xlink:href="#MicrosoftYaHei-Bold-20" transform="translate(369.482422 0)"/>
     <use xlink:href="#MicrosoftYaHei-Bold-61" transform="translate(399.267578 0)"/>
     <use xlink:href="#MicrosoftYaHei-Bold-6e" transform="translate(457.03125 0)"/>
     <use xlink:href="#MicrosoftYaHei-Bold-64" transform="translate(521.826172 0)"/>
     <use xlink:href="#MicrosoftYaHei-Bold-20" transform="translate(588.28125 0)"/>
     <use xlink:href="#MicrosoftYaHei-Bold-6c" transform="translate(618.066406 0)"/>
     <use xlink:href="#MicrosoftYaHei-Bold-6f" transform="translate(647.65625 0)"/>
     <use xlink:href="#MicrosoftYaHei-Bold-67" transform="translate(713.378906 0)"/>
     <use xlink:href="#MicrosoftYaHei-Bold-20" transform="translate(779.833984 0)"/>
     <use xlink:href="#MicrosoftYaHei-Bold-65" transform="translate(809.619141 0)"/>
     <use xlink:href="#MicrosoftYaHei-Bold-76" transform="translate(867.822266 0)"/>
     <use xlink:href="#MicrosoftYaHei-Bold-65" transform="translate(924.412109 0)"/>
     <use xlink:href="#MicrosoftYaHei-Bold-6e" transform="translate(982.615234 0)"/>
     <use xlink:href="#MicrosoftYaHei-Bold-74" transform="translate(1047.410156 0)"/>
    </g>
   </g>
   <g id="text_18">
    <!-- Timestamped pest information on the terminal -->
    <g style="fill: #1f2937" transform="translate(445.783559 248.969403) scale(0.095 -0.095)">
     <defs>
      <path id="MicrosoftYaHei-54" d="M 3550 4284 
L 2153 4284 
L 2153 0 
L 1525 0 
L 1525 4284 
L 134 4284 
L 134 4841 
L 3550 4841 
L 3550 4284 
z
" transform="scale(0.015625)"/>
     </defs>
     <use xlink:href="#MicrosoftYaHei-54"/>
     <use xlink:href="#MicrosoftYaHei-69" transform="translate(57.324219 0)"/>
     <use xlink:href="#MicrosoftYaHei-6d" transform="translate(83.935547 0)"/>
     <use xlink:href="#MicrosoftYaHei-65" transform="translate(177.636719 0)"/>
     <use xlink:href="#MicrosoftYaHei-73" transform="translate(234.375 0)"/>
     <use xlink:href="#MicrosoftYaHei-74" transform="translate(280.664062 0)"/>
     <use xlink:href="#MicrosoftYaHei-61" transform="translate(317.919922 0)"/>
     <use xlink:href="#MicrosoftYaHei-6d" transform="translate(373.193359 0)"/>
     <use xlink:href="#MicrosoftYaHei-70" transform="translate(466.894531 0)"/>
     <use xlink:href="#MicrosoftYaHei-65" transform="translate(530.761719 0)"/>
     <use xlink:href="#MicrosoftYaHei-64" transform="translate(587.5 0)"/>
     <use xlink:href="#MicrosoftYaHei-20" transform="translate(651.464844 0)"/>
     <use xlink:href="#MicrosoftYaHei-70" transform="translate(681.054688 0)"/>
     <use xlink:href="#MicrosoftYaHei-65" transform="translate(744.921875 0)"/>
     <use xlink:href="#MicrosoftYaHei-73" transform="translate(801.660156 0)"/>
     <use xlink:href="#MicrosoftYaHei-74" transform="translate(847.949219 0)"/>
     <use xlink:href="#MicrosoftYaHei-20" transform="translate(885.205078 0)"/>
     <use xlink:href="#MicrosoftYaHei-69" transform="translate(914.794922 0)"/>
     <use xlink:href="#MicrosoftYaHei-6e" transform="translate(941.40625 0)"/>
     <use xlink:href="#MicrosoftYaHei-66" transform="translate(1003.027344 0)"/>
     <use xlink:href="#MicrosoftYaHei-6f" transform="translate(1037.695312 0)"/>
     <use xlink:href="#MicrosoftYaHei-72" transform="translate(1101.269531 0)"/>
     <use xlink:href="#MicrosoftYaHei-6d" transform="translate(1139.203125 0)"/>
     <use xlink:href="#MicrosoftYaHei-61" transform="translate(1232.904297 0)"/>
     <use xlink:href="#MicrosoftYaHei-74" transform="translate(1288.177734 0)"/>
     <use xlink:href="#MicrosoftYaHei-69" transform="translate(1325.433594 0)"/>
     <use xlink:href="#MicrosoftYaHei-6f" transform="translate(1352.044922 0)"/>
     <use xlink:href="#MicrosoftYaHei-6e" transform="translate(1415.619141 0)"/>
     <use xlink:href="#MicrosoftYaHei-20" transform="translate(1477.240234 0)"/>
     <use xlink:href="#MicrosoftYaHei-6f" transform="translate(1506.830078 0)"/>
     <use xlink:href="#MicrosoftYaHei-6e" transform="translate(1570.404297 0)"/>
     <use xlink:href="#MicrosoftYaHei-20" transform="translate(1632.025391 0)"/>
     <use xlink:href="#MicrosoftYaHei-74" transform="translate(1661.615234 0)"/>
     <use xlink:href="#MicrosoftYaHei-68" transform="translate(1698.871094 0)"/>
     <use xlink:href="#MicrosoftYaHei-65" transform="translate(1760.443359 0)"/>
     <use xlink:href="#MicrosoftYaHei-20" transform="translate(1817.181641 0)"/>
     <use xlink:href="#MicrosoftYaHei-74" transform="translate(1846.771484 0)"/>
     <use xlink:href="#MicrosoftYaHei-65" transform="translate(1883.152344 0)"/>
     <use xlink:href="#MicrosoftYaHei-72" transform="translate(1939.890625 0)"/>
     <use xlink:href="#MicrosoftYaHei-6d" transform="translate(1977.824219 0)"/>
     <use xlink:href="#MicrosoftYaHei-69" transform="translate(2071.525391 0)"/>
     <use xlink:href="#MicrosoftYaHei-6e" transform="translate(2098.136719 0)"/>
     <use xlink:href="#MicrosoftYaHei-61" transform="translate(2159.757812 0)"/>
     <use xlink:href="#MicrosoftYaHei-6c" transform="translate(2215.03125 0)"/>
    </g>
   </g>
   <g id="text_19">
    <!-- Continue monitoring -->
    <g style="fill: #1f2937" transform="translate(46.503578 387.429442) scale(0.11 -0.11)">
     <defs>
      <path id="MicrosoftYaHei-Bold-43" d="M 4013 175 
Q 3484 -84 2634 -84 
Q 1541 -84 898 570 
Q 256 1225 256 2316 
Q 256 3463 973 4192 
Q 1691 4922 2825 4922 
Q 3534 4922 4013 4738 
L 4013 3741 
Q 3522 4028 2900 4028 
Q 2191 4028 1766 3575 
Q 1341 3122 1341 2391 
Q 1341 1678 1744 1243 
Q 2147 809 2834 809 
Q 3481 809 4013 1122 
L 4013 175 
z
" transform="scale(0.015625)"/>
     </defs>
     <use xlink:href="#MicrosoftYaHei-Bold-43"/>
     <use xlink:href="#MicrosoftYaHei-Bold-6f" transform="translate(67.333984 0)"/>
     <use xlink:href="#MicrosoftYaHei-Bold-6e" transform="translate(133.056641 0)"/>
     <use xlink:href="#MicrosoftYaHei-Bold-74" transform="translate(197.851562 0)"/>
     <use xlink:href="#MicrosoftYaHei-Bold-69" transform="translate(239.257812 0)"/>
     <use xlink:href="#MicrosoftYaHei-Bold-6e" transform="translate(268.847656 0)"/>
     <use xlink:href="#MicrosoftYaHei-Bold-75" transform="translate(333.642578 0)"/>
     <use xlink:href="#MicrosoftYaHei-Bold-65" transform="translate(398.4375 0)"/>
     <use xlink:href="#MicrosoftYaHei-Bold-20" transform="translate(456.640625 0)"/>
     <use xlink:href="#MicrosoftYaHei-Bold-6d" transform="translate(486.425781 0)"/>
     <use xlink:href="#MicrosoftYaHei-Bold-6f" transform="translate(584.619141 0)"/>
     <use xlink:href="#MicrosoftYaHei-Bold-6e" transform="translate(650.341797 0)"/>
     <use xlink:href="#MicrosoftYaHei-Bold-69" transform="translate(715.136719 0)"/>
     <use xlink:href="#MicrosoftYaHei-Bold-74" transform="translate(744.726562 0)"/>
     <use xlink:href="#MicrosoftYaHei-Bold-6f" transform="translate(785.632812 0)"/>
     <use xlink:href="#MicrosoftYaHei-Bold-72" transform="translate(851.355469 0)"/>
     <use xlink:href="#MicrosoftYaHei-Bold-69" transform="translate(894.113281 0)"/>
     <use xlink:href="#MicrosoftYaHei-Bold-6e" transform="translate(923.703125 0)"/>
     <use xlink:href="#MicrosoftYaHei-Bold-67" transform="translate(988.498047 0)"/>
    </g>
   </g>
   <g id="text_20">
    <!-- Return to the next incoming frame -->
    <g style="fill: #1f2937" transform="translate(25.976586 398.175334) scale(0.095 -0.095)">
     <use xlink:href="#MicrosoftYaHei-52"/>
     <use xlink:href="#MicrosoftYaHei-65" transform="translate(62.283203 0)"/>
     <use xlink:href="#MicrosoftYaHei-74" transform="translate(119.021484 0)"/>
     <use xlink:href="#MicrosoftYaHei-75" transform="translate(156.277344 0)"/>
     <use xlink:href="#MicrosoftYaHei-72" transform="translate(217.898438 0)"/>
     <use xlink:href="#MicrosoftYaHei-6e" transform="translate(255.832031 0)"/>
     <use xlink:href="#MicrosoftYaHei-20" transform="translate(317.453125 0)"/>
     <use xlink:href="#MicrosoftYaHei-74" transform="translate(347.042969 0)"/>
     <use xlink:href="#MicrosoftYaHei-6f" transform="translate(383.423828 0)"/>
     <use xlink:href="#MicrosoftYaHei-20" transform="translate(446.998047 0)"/>
     <use xlink:href="#MicrosoftYaHei-74" transform="translate(476.587891 0)"/>
     <use xlink:href="#MicrosoftYaHei-68" transform="translate(513.84375 0)"/>
     <use xlink:href="#MicrosoftYaHei-65" transform="translate(575.416016 0)"/>
     <use xlink:href="#MicrosoftYaHei-20" transform="translate(632.154297 0)"/>
     <use xlink:href="#MicrosoftYaHei-6e" transform="translate(661.744141 0)"/>
     <use xlink:href="#MicrosoftYaHei-65" transform="translate(723.365234 0)"/>
     <use xlink:href="#MicrosoftYaHei-78" transform="translate(780.103516 0)"/>
     <use xlink:href="#MicrosoftYaHei-74" transform="translate(830.787109 0)"/>
     <use xlink:href="#MicrosoftYaHei-20" transform="translate(868.042969 0)"/>
     <use xlink:href="#MicrosoftYaHei-69" transform="translate(897.632812 0)"/>
     <use xlink:href="#MicrosoftYaHei-6e" transform="translate(924.244141 0)"/>
     <use xlink:href="#MicrosoftYaHei-63" transform="translate(985.865234 0)"/>
     <use xlink:href="#MicrosoftYaHei-6f" transform="translate(1036.011719 0)"/>
     <use xlink:href="#MicrosoftYaHei-6d" transform="translate(1099.585938 0)"/>
     <use xlink:href="#MicrosoftYaHei-69" transform="translate(1193.287109 0)"/>
     <use xlink:href="#MicrosoftYaHei-6e" transform="translate(1219.898438 0)"/>
     <use xlink:href="#MicrosoftYaHei-67" transform="translate(1281.519531 0)"/>
     <use xlink:href="#MicrosoftYaHei-20" transform="translate(1345.484375 0)"/>
     <use xlink:href="#MicrosoftYaHei-66" transform="translate(1375.074219 0)"/>
     <use xlink:href="#MicrosoftYaHei-72" transform="translate(1409.742188 0)"/>
     <use xlink:href="#MicrosoftYaHei-61" transform="translate(1447.925781 0)"/>
     <use xlink:href="#MicrosoftYaHei-6d" transform="translate(1503.199219 0)"/>
     <use xlink:href="#MicrosoftYaHei-65" transform="translate(1596.900391 0)"/>
    </g>
   </g>
   <g id="text_21">
    <!-- Keep buzzer silent -->
    <g style="fill: #1f2937" transform="translate(54.011938 287.350349) scale(0.11 -0.11)">
     <defs>
      <path id="MicrosoftYaHei-Bold-4b" d="M 4506 0 
L 3200 0 
L 1734 2116 
Q 1678 2197 1606 2369 
L 1591 2369 
L 1591 0 
L 559 0 
L 559 4841 
L 1591 4841 
L 1591 2553 
L 1606 2553 
Q 1675 2703 1744 2813 
L 3131 4841 
L 4363 4841 
L 2631 2531 
L 4506 0 
z
" transform="scale(0.015625)"/>
     </defs>
     <use xlink:href="#MicrosoftYaHei-Bold-4b"/>
     <use xlink:href="#MicrosoftYaHei-Bold-65" transform="translate(68.162109 0)"/>
     <use xlink:href="#MicrosoftYaHei-Bold-65" transform="translate(126.365234 0)"/>
     <use xlink:href="#MicrosoftYaHei-Bold-70" transform="translate(184.568359 0)"/>
     <use xlink:href="#MicrosoftYaHei-Bold-20" transform="translate(251.169922 0)"/>
     <use xlink:href="#MicrosoftYaHei-Bold-62" transform="translate(280.955078 0)"/>
     <use xlink:href="#MicrosoftYaHei-Bold-75" transform="translate(347.556641 0)"/>
     <use xlink:href="#MicrosoftYaHei-Bold-7a" transform="translate(412.351562 0)"/>
     <use xlink:href="#MicrosoftYaHei-Bold-7a" transform="translate(463.71875 0)"/>
     <use xlink:href="#MicrosoftYaHei-Bold-65" transform="translate(515.085938 0)"/>
     <use xlink:href="#MicrosoftYaHei-Bold-72" transform="translate(573.289062 0)"/>
     <use xlink:href="#MicrosoftYaHei-Bold-20" transform="translate(615.671875 0)"/>
     <use xlink:href="#MicrosoftYaHei-Bold-73" transform="translate(645.457031 0)"/>
     <use xlink:href="#MicrosoftYaHei-Bold-69" transform="translate(694.822266 0)"/>
     <use xlink:href="#MicrosoftYaHei-Bold-6c" transform="translate(724.412109 0)"/>
     <use xlink:href="#MicrosoftYaHei-Bold-65" transform="translate(754.001953 0)"/>
     <use xlink:href="#MicrosoftYaHei-Bold-6e" transform="translate(812.205078 0)"/>
     <use xlink:href="#MicrosoftYaHei-Bold-74" transform="translate(877 0)"/>
    </g>
   </g>
   <g id="text_22">
    <!-- Yes -->
    <g style="fill: #4b5563" transform="translate(354.007795 354.044611) scale(0.095 -0.095)">
     <use xlink:href="#MicrosoftYaHei-59"/>
     <use xlink:href="#MicrosoftYaHei-65" transform="translate(50.851562 0)"/>
     <use xlink:href="#MicrosoftYaHei-73" transform="translate(107.589844 0)"/>
    </g>
   </g>
   <g id="text_23">
    <!-- No -->
    <g style="fill: #4b5563" transform="translate(196.410438 311.134051) scale(0.095 -0.095)">
     <defs>
      <path id="MicrosoftYaHei-4e" d="M 4578 0 
L 3838 0 
L 1403 3766 
Q 1300 3925 1238 4081 
L 1219 4081 
Q 1244 3919 1244 3403 
L 1244 0 
L 625 0 
L 625 4841 
L 1409 4841 
L 3778 1141 
Q 3947 878 3978 806 
L 3991 806 
Q 3959 1013 3959 1513 
L 3959 4841 
L 4578 4841 
L 4578 0 
z
" transform="scale(0.015625)"/>
     </defs>
     <use xlink:href="#MicrosoftYaHei-4e"/>
     <use xlink:href="#MicrosoftYaHei-6f" transform="translate(81.298828 0)"/>
    </g>
   </g>
   <g id="text_24">
    <!-- Next frame -->
    <g style="fill: #4b5563" transform="translate(131.82952 442.249651) scale(0.095 -0.095)">
     <use xlink:href="#MicrosoftYaHei-4e"/>
     <use xlink:href="#MicrosoftYaHei-65" transform="translate(81.298828 0)"/>
     <use xlink:href="#MicrosoftYaHei-78" transform="translate(138.037109 0)"/>
     <use xlink:href="#MicrosoftYaHei-74" transform="translate(188.720703 0)"/>
     <use xlink:href="#MicrosoftYaHei-20" transform="translate(225.976562 0)"/>
     <use xlink:href="#MicrosoftYaHei-66" transform="translate(255.566406 0)"/>
     <use xlink:href="#MicrosoftYaHei-72" transform="translate(290.234375 0)"/>
     <use xlink:href="#MicrosoftYaHei-61" transform="translate(328.417969 0)"/>
     <use xlink:href="#MicrosoftYaHei-6d" transform="translate(383.691406 0)"/>
     <use xlink:href="#MicrosoftYaHei-65" transform="translate(477.392578 0)"/>
    </g>
   </g>
   <g id="text_25">
    <!-- Yes -->
    <g style="fill: #4b5563" transform="translate(439.604995 436.528243) scale(0.095 -0.095)">
     <use xlink:href="#MicrosoftYaHei-59"/>
     <use xlink:href="#MicrosoftYaHei-65" transform="translate(50.851562 0)"/>
     <use xlink:href="#MicrosoftYaHei-73" transform="translate(107.589844 0)"/>
    </g>
   </g>
   <g id="text_26">
    <!-- Loop -->
    <g style="fill: #4b5563" transform="translate(418.942472 211.009411) scale(0.095 -0.095)">
     <use xlink:href="#MicrosoftYaHei-4c"/>
     <use xlink:href="#MicrosoftYaHei-6f" transform="translate(51.318359 0)"/>
     <use xlink:href="#MicrosoftYaHei-6f" transform="translate(114.892578 0)"/>
     <use xlink:href="#MicrosoftYaHei-70" transform="translate(178.466797 0)"/>
    </g>
   </g>
   <g id="text_27">
    <!-- No -->
    <g style="fill: #4b5563" transform="translate(196.410438 437.481811) scale(0.095 -0.095)">
     <use xlink:href="#MicrosoftYaHei-4e"/>
     <use xlink:href="#MicrosoftYaHei-6f" transform="translate(81.298828 0)"/>
    </g>
   </g>
  </g>
 </g>
 <defs>
  <clipPath id="p2aa20f6fee">
   <rect x="5.76" y="5.76" width="658.44" height="476.784"/>
  </clipPath>
 </defs>
</svg>
