<svg xmlns="http://www.w3.org/2000/svg" width="1000" height="522" viewBox="0 0 1000 522">
  <defs>
    <linearGradient id="goldGrad" x1="0" y1="0" x2="0" y2="1">
      <stop offset="0%" stop-color="#f6d25f"/>
      <stop offset="45%" stop-color="#c99618"/>
      <stop offset="100%" stop-color="#8d6710"/>
    </linearGradient>
    <linearGradient id="shieldGrad" x1="0" y1="0" x2="1" y2="1">
      <stop offset="0%" stop-color="#ffffff"/>
      <stop offset="60%" stop-color="#f1f1f1"/>
      <stop offset="100%" stop-color="#d8d8d8"/>
    </linearGradient>
    <linearGradient id="boardGrad" x1="0" y1="0" x2="0" y2="1">
      <stop offset="0%" stop-color="#1c1b1d"/>
      <stop offset="100%" stop-color="#0f0f11"/>
    </linearGradient>
    <linearGradient id="metalGrad" x1="0" y1="0" x2="1" y2="1">
      <stop offset="0%" stop-color="#f5f6f7"/>
      <stop offset="45%" stop-color="#d8dadd"/>
      <stop offset="100%" stop-color="#a9adb3"/>
    </linearGradient>
    <linearGradient id="chipGrad" x1="0" y1="0" x2="0" y2="1">
      <stop offset="0%" stop-color="#3c3c40"/>
      <stop offset="100%" stop-color="#1a1a1d"/>
    </linearGradient>
    <filter id="shadow" x="-30%" y="-30%" width="160%" height="160%">
      <feDropShadow dx="0" dy="7" stdDeviation="9" flood-color="#000000" flood-opacity="0.35"/>
    </filter>
    <filter id="softShadow" x="-30%" y="-30%" width="160%" height="160%">
      <feDropShadow dx="0" dy="3" stdDeviation="4" flood-color="#000000" flood-opacity="0.22"/>
    </filter>
  </defs>

  <rect x="12" y="12" width="976" height="498" rx="26" fill="url(#boardGrad)" filter="url(#shadow)"/>
  <rect x="24" y="24" width="952" height="474" rx="18" fill="none" stroke="#2b2b2e" stroke-width="2"/>

  <g>
  <rect x="22" y="0" width="44" height="48" rx="12" fill="url(#goldGrad)" stroke="#f1d365" stroke-width="1.2"/>
  <circle cx="44" cy="22" r="10" fill="#121214"/>
</g>
<g>
  <rect x="90" y="0" width="44" height="48" rx="12" fill="url(#goldGrad)" stroke="#f1d365" stroke-width="1.2"/>
  <circle cx="112" cy="22" r="10" fill="#121214"/>
</g>
<g>
  <rect x="158" y="0" width="44" height="48" rx="12" fill="url(#goldGrad)" stroke="#f1d365" stroke-width="1.2"/>
  <circle cx="180" cy="22" r="10" fill="#121214"/>
</g>
<g>
  <rect x="226" y="0" width="44" height="48" rx="12" fill="url(#goldGrad)" stroke="#f1d365" stroke-width="1.2"/>
  <circle cx="248" cy="22" r="10" fill="#121214"/>
</g>
<g>
  <rect x="294" y="0" width="44" height="48" rx="12" fill="url(#goldGrad)" stroke="#f1d365" stroke-width="1.2"/>
  <circle cx="316" cy="22" r="10" fill="#121214"/>
</g>
<g>
  <rect x="362" y="0" width="44" height="48" rx="12" fill="url(#goldGrad)" stroke="#f1d365" stroke-width="1.2"/>
  <circle cx="384" cy="22" r="10" fill="#121214"/>
</g>
<g>
  <rect x="430" y="0" width="44" height="48" rx="12" fill="url(#goldGrad)" stroke="#f1d365" stroke-width="1.2"/>
  <circle cx="452" cy="22" r="10" fill="#121214"/>
</g>
<g>
  <rect x="498" y="0" width="44" height="48" rx="12" fill="url(#goldGrad)" stroke="#f1d365" stroke-width="1.2"/>
  <circle cx="520" cy="22" r="10" fill="#121214"/>
</g>
<g>
  <rect x="566" y="0" width="44" height="48" rx="12" fill="url(#goldGrad)" stroke="#f1d365" stroke-width="1.2"/>
  <circle cx="588" cy="22" r="10" fill="#121214"/>
</g>
<g>
  <rect x="634" y="0" width="44" height="48" rx="12" fill="url(#goldGrad)" stroke="#f1d365" stroke-width="1.2"/>
  <circle cx="656" cy="22" r="10" fill="#121214"/>
</g>
<g>
  <rect x="702" y="0" width="44" height="48" rx="12" fill="url(#goldGrad)" stroke="#f1d365" stroke-width="1.2"/>
  <circle cx="724" cy="22" r="10" fill="#121214"/>
</g>
<g>
  <rect x="770" y="0" width="44" height="48" rx="12" fill="url(#goldGrad)" stroke="#f1d365" stroke-width="1.2"/>
  <circle cx="792" cy="22" r="10" fill="#121214"/>
</g>
<g>
  <rect x="838" y="0" width="44" height="48" rx="12" fill="url(#goldGrad)" stroke="#f1d365" stroke-width="1.2"/>
  <circle cx="860" cy="22" r="10" fill="#121214"/>
</g>
<g>
  <rect x="906" y="0" width="44" height="48" rx="12" fill="url(#goldGrad)" stroke="#f1d365" stroke-width="1.2"/>
  <circle cx="928" cy="22" r="10" fill="#121214"/>
</g>
  <g>
  <rect x="22" y="474" width="44" height="48" rx="12" fill="url(#goldGrad)" stroke="#f1d365" stroke-width="1.2"/>
  <circle cx="44" cy="500" r="10" fill="#121214"/>
</g>
<g>
  <rect x="90" y="474" width="44" height="48" rx="12" fill="url(#goldGrad)" stroke="#f1d365" stroke-width="1.2"/>
  <circle cx="112" cy="500" r="10" fill="#121214"/>
</g>
<g>
  <rect x="158" y="474" width="44" height="48" rx="12" fill="url(#goldGrad)" stroke="#f1d365" stroke-width="1.2"/>
  <circle cx="180" cy="500" r="10" fill="#121214"/>
</g>
<g>
  <rect x="226" y="474" width="44" height="48" rx="12" fill="url(#goldGrad)" stroke="#f1d365" stroke-width="1.2"/>
  <circle cx="248" cy="500" r="10" fill="#121214"/>
</g>
<g>
  <rect x="294" y="474" width="44" height="48" rx="12" fill="url(#goldGrad)" stroke="#f1d365" stroke-width="1.2"/>
  <circle cx="316" cy="500" r="10" fill="#121214"/>
</g>
<g>
  <rect x="362" y="474" width="44" height="48" rx="12" fill="url(#goldGrad)" stroke="#f1d365" stroke-width="1.2"/>
  <circle cx="384" cy="500" r="10" fill="#121214"/>
</g>
<g>
  <rect x="430" y="474" width="44" height="48" rx="12" fill="url(#goldGrad)" stroke="#f1d365" stroke-width="1.2"/>
  <circle cx="452" cy="500" r="10" fill="#121214"/>
</g>
<g>
  <rect x="498" y="474" width="44" height="48" rx="12" fill="url(#goldGrad)" stroke="#f1d365" stroke-width="1.2"/>
  <circle cx="520" cy="500" r="10" fill="#121214"/>
</g>
<g>
  <rect x="566" y="474" width="44" height="48" rx="12" fill="url(#goldGrad)" stroke="#f1d365" stroke-width="1.2"/>
  <circle cx="588" cy="500" r="10" fill="#121214"/>
</g>
<g>
  <rect x="634" y="474" width="44" height="48" rx="12" fill="url(#goldGrad)" stroke="#f1d365" stroke-width="1.2"/>
  <circle cx="656" cy="500" r="10" fill="#121214"/>
</g>
<g>
  <rect x="702" y="474" width="44" height="48" rx="12" fill="url(#goldGrad)" stroke="#f1d365" stroke-width="1.2"/>
  <circle cx="724" cy="500" r="10" fill="#121214"/>
</g>
<g>
  <rect x="770" y="474" width="44" height="48" rx="12" fill="url(#goldGrad)" stroke="#f1d365" stroke-width="1.2"/>
  <circle cx="792" cy="500" r="10" fill="#121214"/>
</g>
<g>
  <rect x="838" y="474" width="44" height="48" rx="12" fill="url(#goldGrad)" stroke="#f1d365" stroke-width="1.2"/>
  <circle cx="860" cy="500" r="10" fill="#121214"/>
</g>
<g>
  <rect x="906" y="474" width="44" height="48" rx="12" fill="url(#goldGrad)" stroke="#f1d365" stroke-width="1.2"/>
  <circle cx="928" cy="500" r="10" fill="#121214"/>
</g>
  <line x1="468" y1="160" x2="530" y2="160" stroke="#e1ad2c" stroke-width="1.6" opacity="0.34"/>
<line x1="468" y1="427" x2="548" y2="427" stroke="#e1ad2c" stroke-width="1.6" opacity="0.34"/>
<line x1="585" y1="218" x2="695" y2="218" stroke="#e1ad2c" stroke-width="1.6" opacity="0.34"/>
<line x1="787" y1="204" x2="818" y2="204" stroke="#e1ad2c" stroke-width="1.6" opacity="0.34"/>
<line x1="785" y1="286" x2="818" y2="286" stroke="#e1ad2c" stroke-width="1.6" opacity="0.34"/>
<line x1="632" y1="110" x2="718" y2="58" stroke="#e1ad2c" stroke-width="1.6" opacity="0.34"/>
<line x1="632" y1="434" x2="718" y2="328" stroke="#e1ad2c" stroke-width="1.6" opacity="0.34"/>
<line x1="540" y1="215" x2="486" y2="142" stroke="#e1ad2c" stroke-width="1.6" opacity="0.34"/>
<line x1="540" y1="395" x2="486" y2="423" stroke="#e1ad2c" stroke-width="1.6" opacity="0.34"/>
<line x1="694" y1="205" x2="770" y2="205" stroke="#e1ad2c" stroke-width="1.6" opacity="0.34"/>
  <text x="44" y="68" fill="#f5f5f5" font-size="22" font-weight="700" text-anchor="middle" font-family="Arial">3V3</text>
<text x="112" y="68" fill="#f5f5f5" font-size="22" font-weight="700" text-anchor="middle" font-family="Arial">A18</text>
<text x="180" y="68" fill="#f5f5f5" font-size="22" font-weight="700" text-anchor="middle" font-family="Arial">A19</text>
<text x="248" y="68" fill="#f5f5f5" font-size="22" font-weight="700" text-anchor="middle" font-family="Arial">A29</text>
<text x="316" y="68" fill="#f5f5f5" font-size="22" font-weight="700" text-anchor="middle" font-family="Arial">A28</text>
<text x="384" y="68" fill="#f5f5f5" font-size="22" font-weight="700" text-anchor="middle" font-family="Arial">ADC</text>
<text x="452" y="68" fill="#f5f5f5" font-size="22" font-weight="700" text-anchor="middle" font-family="Arial">P1B</text>
<text x="520" y="68" fill="#f5f5f5" font-size="22" font-weight="700" text-anchor="middle" font-family="Arial">P19</text>
<text x="588" y="68" fill="#f5f5f5" font-size="22" font-weight="700" text-anchor="middle" font-family="Arial">D21</text>
<text x="656" y="68" fill="#f5f5f5" font-size="22" font-weight="700" text-anchor="middle" font-family="Arial">P22</text>
<text x="724" y="68" fill="#f5f5f5" font-size="22" font-weight="700" text-anchor="middle" font-family="Arial">P23</text>
<text x="792" y="68" fill="#f5f5f5" font-size="22" font-weight="700" text-anchor="middle" font-family="Arial">P20</text>
<text x="860" y="68" fill="#f5f5f5" font-size="22" font-weight="700" text-anchor="middle" font-family="Arial">A14</text>
  <text x="44" y="462" fill="#f5f5f5" font-size="22" font-weight="700" text-anchor="middle" font-family="Arial">A17</text>
<text x="112" y="462" fill="#f5f5f5" font-size="22" font-weight="700" text-anchor="middle" font-family="Arial">A16</text>
<text x="180" y="462" fill="#f5f5f5" font-size="22" font-weight="700" text-anchor="middle" font-family="Arial">A15</text>
<text x="248" y="462" fill="#f5f5f5" font-size="22" font-weight="700" text-anchor="middle" font-family="Arial">VOP</text>
<text x="316" y="462" fill="#f5f5f5" font-size="22" font-weight="700" text-anchor="middle" font-family="Arial">VON</text>
<text x="384" y="462" fill="#f5f5f5" font-size="22" font-weight="700" text-anchor="middle" font-family="Arial">A24</text>
<text x="452" y="462" fill="#f5f5f5" font-size="22" font-weight="700" text-anchor="middle" font-family="Arial">A23</text>
<text x="520" y="462" fill="#f5f5f5" font-size="22" font-weight="700" text-anchor="middle" font-family="Arial">A27</text>
<text x="588" y="462" fill="#f5f5f5" font-size="22" font-weight="700" text-anchor="middle" font-family="Arial">A25</text>
<text x="656" y="462" fill="#f5f5f5" font-size="22" font-weight="700" text-anchor="middle" font-family="Arial">A22</text>
<text x="724" y="462" fill="#f5f5f5" font-size="22" font-weight="700" text-anchor="middle" font-family="Arial">A26</text>
<text x="792" y="462" fill="#f5f5f5" font-size="22" font-weight="700" text-anchor="middle" font-family="Arial">VSYS</text>
<text x="860" y="462" fill="#f5f5f5" font-size="22" font-weight="700" text-anchor="middle" font-family="Arial">VBUS</text>

  <g filter="url(#softShadow)">
    <rect x="30" y="48" width="416" height="398" rx="6" fill="url(#shieldGrad)" stroke="#4f4f53" stroke-width="3"/>
    <rect x="38" y="56" width="400" height="382" rx="4" fill="#fcfcfd" stroke="#ececed" stroke-width="2"/>
  </g>

  <g opacity="0.22">
    <line x1="58" y1="70" x2="416" y2="70" stroke="#cfcfd1" stroke-width="1.4"/>
    <line x1="58" y1="84" x2="416" y2="84" stroke="#cfcfd1" stroke-width="1.1"/>
    <line x1="52" y1="428" x2="410" y2="428" stroke="#d5d5d7" stroke-width="1.2"/>
  </g>

  <g>
    <rect x="485" y="54" width="210" height="436" rx="14" fill="#121214" stroke="#d4a11d" stroke-width="4"/>
    <rect x="540" y="84" width="44" height="370" rx="4" fill="#0b0b0d" stroke="#55565a" stroke-width="1.8"/>
    <rect x="596" y="72" width="35" height="392" rx="3" fill="#3a3a3c" stroke="#a7a7aa" stroke-width="1.5"/>
    <rect x="530" y="94" width="10" height="7" rx="2" fill="url(#goldGrad)" stroke="#f1d365" stroke-width="0.8"/>
<rect x="530" y="106" width="10" height="7" rx="2" fill="url(#goldGrad)" stroke="#f1d365" stroke-width="0.8"/>
<rect x="530" y="118" width="10" height="7" rx="2" fill="url(#goldGrad)" stroke="#f1d365" stroke-width="0.8"/>
<rect x="530" y="130" width="10" height="7" rx="2" fill="url(#goldGrad)" stroke="#f1d365" stroke-width="0.8"/>
<rect x="530" y="142" width="10" height="7" rx="2" fill="url(#goldGrad)" stroke="#f1d365" stroke-width="0.8"/>
<rect x="530" y="154" width="10" height="7" rx="2" fill="url(#goldGrad)" stroke="#f1d365" stroke-width="0.8"/>
<rect x="530" y="166" width="10" height="7" rx="2" fill="url(#goldGrad)" stroke="#f1d365" stroke-width="0.8"/>
<rect x="530" y="178" width="10" height="7" rx="2" fill="url(#goldGrad)" stroke="#f1d365" stroke-width="0.8"/>
<rect x="530" y="190" width="10" height="7" rx="2" fill="url(#goldGrad)" stroke="#f1d365" stroke-width="0.8"/>
<rect x="530" y="202" width="10" height="7" rx="2" fill="url(#goldGrad)" stroke="#f1d365" stroke-width="0.8"/>
<rect x="530" y="214" width="10" height="7" rx="2" fill="url(#goldGrad)" stroke="#f1d365" stroke-width="0.8"/>
<rect x="530" y="226" width="10" height="7" rx="2" fill="url(#goldGrad)" stroke="#f1d365" stroke-width="0.8"/>
<rect x="530" y="238" width="10" height="7" rx="2" fill="url(#goldGrad)" stroke="#f1d365" stroke-width="0.8"/>
<rect x="530" y="250" width="10" height="7" rx="2" fill="url(#goldGrad)" stroke="#f1d365" stroke-width="0.8"/>
<rect x="530" y="262" width="10" height="7" rx="2" fill="url(#goldGrad)" stroke="#f1d365" stroke-width="0.8"/>
<rect x="530" y="274" width="10" height="7" rx="2" fill="url(#goldGrad)" stroke="#f1d365" stroke-width="0.8"/>
<rect x="530" y="286" width="10" height="7" rx="2" fill="url(#goldGrad)" stroke="#f1d365" stroke-width="0.8"/>
<rect x="530" y="298" width="10" height="7" rx="2" fill="url(#goldGrad)" stroke="#f1d365" stroke-width="0.8"/>
<rect x="530" y="310" width="10" height="7" rx="2" fill="url(#goldGrad)" stroke="#f1d365" stroke-width="0.8"/>
<rect x="530" y="322" width="10" height="7" rx="2" fill="url(#goldGrad)" stroke="#f1d365" stroke-width="0.8"/>
<rect x="530" y="334" width="10" height="7" rx="2" fill="url(#goldGrad)" stroke="#f1d365" stroke-width="0.8"/>
<rect x="530" y="346" width="10" height="7" rx="2" fill="url(#goldGrad)" stroke="#f1d365" stroke-width="0.8"/>
<rect x="530" y="358" width="10" height="7" rx="2" fill="url(#goldGrad)" stroke="#f1d365" stroke-width="0.8"/>
<rect x="530" y="370" width="10" height="7" rx="2" fill="url(#goldGrad)" stroke="#f1d365" stroke-width="0.8"/>
<rect x="530" y="382" width="10" height="7" rx="2" fill="url(#goldGrad)" stroke="#f1d365" stroke-width="0.8"/>
<rect x="530" y="394" width="10" height="7" rx="2" fill="url(#goldGrad)" stroke="#f1d365" stroke-width="0.8"/>
<rect x="530" y="406" width="10" height="7" rx="2" fill="url(#goldGrad)" stroke="#f1d365" stroke-width="0.8"/>
<rect x="530" y="418" width="10" height="7" rx="2" fill="url(#goldGrad)" stroke="#f1d365" stroke-width="0.8"/>
    <rect x="632" y="94" width="10" height="7" rx="2" fill="url(#goldGrad)" stroke="#f1d365" stroke-width="0.8"/>
<rect x="632" y="106" width="10" height="7" rx="2" fill="url(#goldGrad)" stroke="#f1d365" stroke-width="0.8"/>
<rect x="632" y="118" width="10" height="7" rx="2" fill="url(#goldGrad)" stroke="#f1d365" stroke-width="0.8"/>
<rect x="632" y="130" width="10" height="7" rx="2" fill="url(#goldGrad)" stroke="#f1d365" stroke-width="0.8"/>
<rect x="632" y="142" width="10" height="7" rx="2" fill="url(#goldGrad)" stroke="#f1d365" stroke-width="0.8"/>
<rect x="632" y="154" width="10" height="7" rx="2" fill="url(#goldGrad)" stroke="#f1d365" stroke-width="0.8"/>
<rect x="632" y="166" width="10" height="7" rx="2" fill="url(#goldGrad)" stroke="#f1d365" stroke-width="0.8"/>
<rect x="632" y="178" width="10" height="7" rx="2" fill="url(#goldGrad)" stroke="#f1d365" stroke-width="0.8"/>
<rect x="632" y="190" width="10" height="7" rx="2" fill="url(#goldGrad)" stroke="#f1d365" stroke-width="0.8"/>
<rect x="632" y="202" width="10" height="7" rx="2" fill="url(#goldGrad)" stroke="#f1d365" stroke-width="0.8"/>
<rect x="632" y="214" width="10" height="7" rx="2" fill="url(#goldGrad)" stroke="#f1d365" stroke-width="0.8"/>
<rect x="632" y="226" width="10" height="7" rx="2" fill="url(#goldGrad)" stroke="#f1d365" stroke-width="0.8"/>
<rect x="632" y="238" width="10" height="7" rx="2" fill="url(#goldGrad)" stroke="#f1d365" stroke-width="0.8"/>
<rect x="632" y="250" width="10" height="7" rx="2" fill="url(#goldGrad)" stroke="#f1d365" stroke-width="0.8"/>
<rect x="632" y="262" width="10" height="7" rx="2" fill="url(#goldGrad)" stroke="#f1d365" stroke-width="0.8"/>
<rect x="632" y="274" width="10" height="7" rx="2" fill="url(#goldGrad)" stroke="#f1d365" stroke-width="0.8"/>
<rect x="632" y="286" width="10" height="7" rx="2" fill="url(#goldGrad)" stroke="#f1d365" stroke-width="0.8"/>
<rect x="632" y="298" width="10" height="7" rx="2" fill="url(#goldGrad)" stroke="#f1d365" stroke-width="0.8"/>
<rect x="632" y="310" width="10" height="7" rx="2" fill="url(#goldGrad)" stroke="#f1d365" stroke-width="0.8"/>
<rect x="632" y="322" width="10" height="7" rx="2" fill="url(#goldGrad)" stroke="#f1d365" stroke-width="0.8"/>
<rect x="632" y="334" width="10" height="7" rx="2" fill="url(#goldGrad)" stroke="#f1d365" stroke-width="0.8"/>
<rect x="632" y="346" width="10" height="7" rx="2" fill="url(#goldGrad)" stroke="#f1d365" stroke-width="0.8"/>
<rect x="632" y="358" width="10" height="7" rx="2" fill="url(#goldGrad)" stroke="#f1d365" stroke-width="0.8"/>
<rect x="632" y="370" width="10" height="7" rx="2" fill="url(#goldGrad)" stroke="#f1d365" stroke-width="0.8"/>
<rect x="632" y="382" width="10" height="7" rx="2" fill="url(#goldGrad)" stroke="#f1d365" stroke-width="0.8"/>
<rect x="632" y="394" width="10" height="7" rx="2" fill="url(#goldGrad)" stroke="#f1d365" stroke-width="0.8"/>
<rect x="632" y="406" width="10" height="7" rx="2" fill="url(#goldGrad)" stroke="#f1d365" stroke-width="0.8"/>
<rect x="632" y="418" width="10" height="7" rx="2" fill="url(#goldGrad)" stroke="#f1d365" stroke-width="0.8"/>
  </g>

  <g filter="url(#softShadow)">
    <rect x="486" y="115" width="54" height="54" rx="4" fill="url(#chipGrad)" stroke="#717278" stroke-width="2"/>
    <rect x="489" y="118" width="48" height="48" rx="3" fill="#2a2a2e"/>
    <rect x="494" y="107" width="8" height="8" rx="2" fill="url(#goldGrad)" stroke="#f1d365" stroke-width="0.8"/>
<rect x="494" y="169" width="8" height="8" rx="2" fill="url(#goldGrad)" stroke="#f1d365" stroke-width="0.8"/>
<rect x="478" y="123" width="8" height="8" rx="2" fill="url(#goldGrad)" stroke="#f1d365" stroke-width="0.8"/>
<rect x="540" y="123" width="8" height="8" rx="2" fill="url(#goldGrad)" stroke="#f1d365" stroke-width="0.8"/>
<rect x="506" y="107" width="8" height="8" rx="2" fill="url(#goldGrad)" stroke="#f1d365" stroke-width="0.8"/>
<rect x="506" y="169" width="8" height="8" rx="2" fill="url(#goldGrad)" stroke="#f1d365" stroke-width="0.8"/>
<rect x="478" y="135" width="8" height="8" rx="2" fill="url(#goldGrad)" stroke="#f1d365" stroke-width="0.8"/>
<rect x="540" y="135" width="8" height="8" rx="2" fill="url(#goldGrad)" stroke="#f1d365" stroke-width="0.8"/>
<rect x="518" y="107" width="8" height="8" rx="2" fill="url(#goldGrad)" stroke="#f1d365" stroke-width="0.8"/>
<rect x="518" y="169" width="8" height="8" rx="2" fill="url(#goldGrad)" stroke="#f1d365" stroke-width="0.8"/>
<rect x="478" y="147" width="8" height="8" rx="2" fill="url(#goldGrad)" stroke="#f1d365" stroke-width="0.8"/>
<rect x="540" y="147" width="8" height="8" rx="2" fill="url(#goldGrad)" stroke="#f1d365" stroke-width="0.8"/>
<rect x="530" y="107" width="8" height="8" rx="2" fill="url(#goldGrad)" stroke="#f1d365" stroke-width="0.8"/>
<rect x="530" y="169" width="8" height="8" rx="2" fill="url(#goldGrad)" stroke="#f1d365" stroke-width="0.8"/>
<rect x="478" y="159" width="8" height="8" rx="2" fill="url(#goldGrad)" stroke="#f1d365" stroke-width="0.8"/>
<rect x="540" y="159" width="8" height="8" rx="2" fill="url(#goldGrad)" stroke="#f1d365" stroke-width="0.8"/>
  </g>

  <g filter="url(#softShadow)">
    <rect x="485" y="396" width="54" height="54" rx="4" fill="url(#chipGrad)" stroke="#717278" stroke-width="2"/>
    <rect x="489" y="400" width="46" height="46" rx="3" fill="#2a2a2e"/>
    <rect x="493" y="388" width="8" height="8" rx="2" fill="url(#goldGrad)" stroke="#f1d365" stroke-width="0.8"/>
<rect x="493" y="450" width="8" height="8" rx="2" fill="url(#goldGrad)" stroke="#f1d365" stroke-width="0.8"/>
<rect x="477" y="404" width="8" height="8" rx="2" fill="url(#goldGrad)" stroke="#f1d365" stroke-width="0.8"/>
<rect x="539" y="404" width="8" height="8" rx="2" fill="url(#goldGrad)" stroke="#f1d365" stroke-width="0.8"/>
<rect x="505" y="388" width="8" height="8" rx="2" fill="url(#goldGrad)" stroke="#f1d365" stroke-width="0.8"/>
<rect x="505" y="450" width="8" height="8" rx="2" fill="url(#goldGrad)" stroke="#f1d365" stroke-width="0.8"/>
<rect x="477" y="416" width="8" height="8" rx="2" fill="url(#goldGrad)" stroke="#f1d365" stroke-width="0.8"/>
<rect x="539" y="416" width="8" height="8" rx="2" fill="url(#goldGrad)" stroke="#f1d365" stroke-width="0.8"/>
<rect x="517" y="388" width="8" height="8" rx="2" fill="url(#goldGrad)" stroke="#f1d365" stroke-width="0.8"/>
<rect x="517" y="450" width="8" height="8" rx="2" fill="url(#goldGrad)" stroke="#f1d365" stroke-width="0.8"/>
<rect x="477" y="428" width="8" height="8" rx="2" fill="url(#goldGrad)" stroke="#f1d365" stroke-width="0.8"/>
<rect x="539" y="428" width="8" height="8" rx="2" fill="url(#goldGrad)" stroke="#f1d365" stroke-width="0.8"/>
<rect x="529" y="388" width="8" height="8" rx="2" fill="url(#goldGrad)" stroke="#f1d365" stroke-width="0.8"/>
<rect x="529" y="450" width="8" height="8" rx="2" fill="url(#goldGrad)" stroke="#f1d365" stroke-width="0.8"/>
<rect x="477" y="440" width="8" height="8" rx="2" fill="url(#goldGrad)" stroke="#f1d365" stroke-width="0.8"/>
<rect x="539" y="440" width="8" height="8" rx="2" fill="url(#goldGrad)" stroke="#f1d365" stroke-width="0.8"/>
  </g>

  <g filter="url(#softShadow)">
    <rect x="695" y="158" width="92" height="92" rx="8" fill="url(#chipGrad)" stroke="#76777d" stroke-width="2"/>
    <rect x="705" y="168" width="72" height="72" rx="7" fill="#2c2c30"/>
    <rect x="703" y="148" width="8" height="10" rx="2" fill="url(#goldGrad)" stroke="#f1d365" stroke-width="0.8"/>
<rect x="703" y="250" width="8" height="10" rx="2" fill="url(#goldGrad)" stroke="#f1d365" stroke-width="0.8"/>
<rect x="685" y="166" width="10" height="8" rx="2" fill="url(#goldGrad)" stroke="#f1d365" stroke-width="0.8"/>
<rect x="787" y="166" width="10" height="8" rx="2" fill="url(#goldGrad)" stroke="#f1d365" stroke-width="0.8"/>
<rect x="715" y="148" width="8" height="10" rx="2" fill="url(#goldGrad)" stroke="#f1d365" stroke-width="0.8"/>
<rect x="715" y="250" width="8" height="10" rx="2" fill="url(#goldGrad)" stroke="#f1d365" stroke-width="0.8"/>
<rect x="685" y="178" width="10" height="8" rx="2" fill="url(#goldGrad)" stroke="#f1d365" stroke-width="0.8"/>
<rect x="787" y="178" width="10" height="8" rx="2" fill="url(#goldGrad)" stroke="#f1d365" stroke-width="0.8"/>
<rect x="727" y="148" width="8" height="10" rx="2" fill="url(#goldGrad)" stroke="#f1d365" stroke-width="0.8"/>
<rect x="727" y="250" width="8" height="10" rx="2" fill="url(#goldGrad)" stroke="#f1d365" stroke-width="0.8"/>
<rect x="685" y="190" width="10" height="8" rx="2" fill="url(#goldGrad)" stroke="#f1d365" stroke-width="0.8"/>
<rect x="787" y="190" width="10" height="8" rx="2" fill="url(#goldGrad)" stroke="#f1d365" stroke-width="0.8"/>
<rect x="739" y="148" width="8" height="10" rx="2" fill="url(#goldGrad)" stroke="#f1d365" stroke-width="0.8"/>
<rect x="739" y="250" width="8" height="10" rx="2" fill="url(#goldGrad)" stroke="#f1d365" stroke-width="0.8"/>
<rect x="685" y="202" width="10" height="8" rx="2" fill="url(#goldGrad)" stroke="#f1d365" stroke-width="0.8"/>
<rect x="787" y="202" width="10" height="8" rx="2" fill="url(#goldGrad)" stroke="#f1d365" stroke-width="0.8"/>
<rect x="751" y="148" width="8" height="10" rx="2" fill="url(#goldGrad)" stroke="#f1d365" stroke-width="0.8"/>
<rect x="751" y="250" width="8" height="10" rx="2" fill="url(#goldGrad)" stroke="#f1d365" stroke-width="0.8"/>
<rect x="685" y="214" width="10" height="8" rx="2" fill="url(#goldGrad)" stroke="#f1d365" stroke-width="0.8"/>
<rect x="787" y="214" width="10" height="8" rx="2" fill="url(#goldGrad)" stroke="#f1d365" stroke-width="0.8"/>
<rect x="763" y="148" width="8" height="10" rx="2" fill="url(#goldGrad)" stroke="#f1d365" stroke-width="0.8"/>
<rect x="763" y="250" width="8" height="10" rx="2" fill="url(#goldGrad)" stroke="#f1d365" stroke-width="0.8"/>
<rect x="685" y="226" width="10" height="8" rx="2" fill="url(#goldGrad)" stroke="#f1d365" stroke-width="0.8"/>
<rect x="787" y="226" width="10" height="8" rx="2" fill="url(#goldGrad)" stroke="#f1d365" stroke-width="0.8"/>
  </g>

  <g filter="url(#softShadow)">
  <rect x="718" y="44" width="34" height="28" rx="4" fill="#f8f8f8" stroke="#c8c9cd" stroke-width="1.4"/>
  <rect x="718" y="44" width="6" height="28" rx="2" fill="url(#goldGrad)"/>
  <rect x="746" y="44" width="6" height="28" rx="2" fill="url(#goldGrad)"/>
</g>
<g filter="url(#softShadow)">
  <rect x="770" y="44" width="34" height="28" rx="4" fill="#f8f8f8" stroke="#c8c9cd" stroke-width="1.4"/>
  <rect x="770" y="44" width="6" height="28" rx="2" fill="url(#goldGrad)"/>
  <rect x="798" y="44" width="6" height="28" rx="2" fill="url(#goldGrad)"/>
</g>
<g filter="url(#softShadow)">
  <rect x="718" y="88" width="34" height="28" rx="4" fill="#f8f8f8" stroke="#c8c9cd" stroke-width="1.4"/>
  <rect x="718" y="88" width="6" height="28" rx="2" fill="url(#goldGrad)"/>
  <rect x="746" y="88" width="6" height="28" rx="2" fill="url(#goldGrad)"/>
</g>
<g filter="url(#softShadow)">
  <rect x="770" y="88" width="34" height="28" rx="4" fill="#f8f8f8" stroke="#c8c9cd" stroke-width="1.4"/>
  <rect x="770" y="88" width="6" height="28" rx="2" fill="url(#goldGrad)"/>
  <rect x="798" y="88" width="6" height="28" rx="2" fill="url(#goldGrad)"/>
</g>
<g filter="url(#softShadow)">
  <rect x="718" y="270" width="34" height="28" rx="4" fill="#f8f8f8" stroke="#c8c9cd" stroke-width="1.4"/>
  <rect x="718" y="270" width="6" height="28" rx="2" fill="url(#goldGrad)"/>
  <rect x="746" y="270" width="6" height="28" rx="2" fill="url(#goldGrad)"/>
</g>
<g filter="url(#softShadow)">
  <rect x="770" y="270" width="34" height="28" rx="4" fill="#f8f8f8" stroke="#c8c9cd" stroke-width="1.4"/>
  <rect x="770" y="270" width="6" height="28" rx="2" fill="url(#goldGrad)"/>
  <rect x="798" y="270" width="6" height="28" rx="2" fill="url(#goldGrad)"/>
</g>
<g filter="url(#softShadow)">
  <rect x="718" y="314" width="34" height="28" rx="4" fill="#f8f8f8" stroke="#c8c9cd" stroke-width="1.4"/>
  <rect x="718" y="314" width="6" height="28" rx="2" fill="url(#goldGrad)"/>
  <rect x="746" y="314" width="6" height="28" rx="2" fill="url(#goldGrad)"/>
</g>
<g filter="url(#softShadow)">
  <rect x="770" y="314" width="34" height="28" rx="4" fill="#f8f8f8" stroke="#c8c9cd" stroke-width="1.4"/>
  <rect x="770" y="314" width="6" height="28" rx="2" fill="url(#goldGrad)"/>
  <rect x="798" y="314" width="6" height="28" rx="2" fill="url(#goldGrad)"/>
</g>
<g filter="url(#softShadow)">
  <rect x="675" y="48" width="34" height="28" rx="4" fill="#f8f8f8" stroke="#c8c9cd" stroke-width="1.4"/>
  <rect x="675" y="48" width="6" height="28" rx="2" fill="url(#goldGrad)"/>
  <rect x="703" y="48" width="6" height="28" rx="2" fill="url(#goldGrad)"/>
</g>
<g filter="url(#softShadow)">
  <rect x="675" y="92" width="34" height="28" rx="4" fill="#f8f8f8" stroke="#c8c9cd" stroke-width="1.4"/>
  <rect x="675" y="92" width="6" height="28" rx="2" fill="url(#goldGrad)"/>
  <rect x="703" y="92" width="6" height="28" rx="2" fill="url(#goldGrad)"/>
</g>

  <g filter="url(#softShadow)">
    <rect x="818" y="118" width="147" height="188" rx="13" fill="url(#metalGrad)" stroke="#7e8186" stroke-width="3"/>
    <rect x="834" y="131" width="121" height="162" rx="10" fill="#f5f6f8" stroke="#d6d8dc" stroke-width="1.4"/>
    <rect x="828" y="188" width="18" height="44" rx="4" fill="#6b6e72"/>
    <rect x="936" y="188" width="18" height="44" rx="4" fill="#6b6e72"/>
  </g>

  <g filter="url(#softShadow)">
    <rect x="820" y="42" width="94" height="62" rx="12" fill="#d8d9dd" stroke="#8b8e93" stroke-width="2.5"/>
    <ellipse cx="867" cy="73" rx="27" ry="20" fill="#f4f4f5" stroke="#7d8187" stroke-width="2"/>
    <rect x="821" y="354" width="94" height="62" rx="12" fill="#d8d9dd" stroke="#8b8e93" stroke-width="2.5"/>
    <ellipse cx="868" cy="385" rx="27" ry="20" fill="#f4f4f5" stroke="#7d8187" stroke-width="2"/>
  </g>

  <text x="792" y="108" fill="#f8f8f8" font-size="24" font-weight="700" font-family="Arial" transform="rotate(-90 792 108)">USER</text>
  <text x="790" y="432" fill="#f8f8f8" font-size="24" font-weight="700" font-family="Arial" transform="rotate(-90 790 432)">RESET</text>

  <g filter="url(#softShadow)">
    <rect x="548" y="405" width="46" height="46" rx="5" fill="#dcb34b" stroke="#8b6920" stroke-width="2.2"/>
    <rect x="558" y="415" width="26" height="26" rx="4" fill="#f6f3ee" stroke="#7d7d7d" stroke-width="1.6"/>
    <circle cx="571" cy="428" r="5" fill="#c9b590"/>
  </g>

  <g opacity="0.28">
    <path d="M651 74 L651 454" stroke="#f5bd2e" stroke-width="2"/>
    <path d="M476 246 L818 246" stroke="#f5bd2e" stroke-width="1.4"/>
    <path d="M476 304 L694 304" stroke="#f5bd2e" stroke-width="1.4"/>
  </g>
</svg>
